<svg width="428" height="468" viewBox="0 0 428 468" fill="none" xmlns="http://www.w3.org/2000/svg">
<path d="M406.002 318.497C347.101 456.241 200.575 504.689 95.7719 437.618C5.99327 380.162 -21.8237 255.037 22.625 151.091C67.0694 47.1492 176.308 -18.1313 279.237 8.56104C399.399 39.7208 464.903 180.753 406.002 318.497Z" fill="url(#paint0_linear_501_1695)"/>
<path d="M391.279 312.188C332.378 449.932 189.897 500.115 89.3754 434.877C3.27215 378.996 -21.9312 254.99 22.5175 151.044C66.9619 47.1019 173.587 -19.2976 272.845 5.81957C388.721 35.1416 450.18 174.439 391.279 312.188Z" fill="url(#paint1_linear_501_1695)"/>
<path d="M386.791 310.225C329.149 445.03 189.72 494.537 91.0692 430.926C6.31998 376.28 -18.6427 254.43 25.0839 152.167C68.8147 49.9079 173.716 -15.1961 271.155 9.77041C384.581 38.8342 444.432 175.421 386.791 310.225Z" fill="url(#paint2_linear_501_1695)"/>
<path d="M349.353 293.866C302.205 404.13 188.242 447.375 105.573 397.012C32.7872 352.665 10.2103 249.507 47.622 162.014C85.0338 74.5258 174.834 20.474 256.651 43.6889C349.581 70.0542 396.501 183.602 349.349 293.866H349.353Z" fill="url(#paint3_linear_501_1695)"/>
<path d="M348.141 293.337C278.085 389.57 188.19 445.83 106.05 395.884C33.677 351.873 11.1861 249.339 48.3829 162.35C85.5797 75.3608 174.873 21.6705 256.17 44.8122C352.384 71.6337 424.766 188.078 348.141 293.337Z" fill="url(#paint4_linear_501_1695)"/>
<path d="M340.175 289.855C295.598 394.107 187.868 435.639 109.236 388.43C39.5791 346.605 17.6858 248.228 53.464 164.566C89.2379 80.9041 175.122 29.624 252.985 52.2664C340.876 77.8226 384.757 185.603 340.175 289.855Z" fill="url(#paint5_linear_501_1695)"/>
<path d="M333.108 286.769C290.508 386.39 187.584 426.553 112.094 381.75C44.8966 341.867 23.5664 247.23 58.0507 166.576C92.5393 85.9224 175.345 36.7942 250.122 58.9503C334.127 83.8393 375.704 187.148 333.104 286.769H333.108Z" fill="url(#paint6_linear_501_1695)"/>
<path d="M331.44 286.038C289.309 384.565 187.515 424.401 112.773 380.162C46.1648 340.735 24.9678 246.989 59.1469 167.054C93.326 87.1189 175.397 38.4985 249.447 60.5341C332.537 85.2596 373.572 187.51 331.44 286.038Z" fill="url(#paint7_linear_501_1695)"/>
<path d="M330.929 212.408C331.492 190.695 328.023 169.968 320.732 150.906C313.575 132.193 303.133 116.144 289.842 103.172C276.4 90.0584 260.653 80.7234 243.136 75.2962C226.062 70.0068 208.304 68.7372 190.348 71.3884C173.381 73.8889 156.874 79.7765 141.214 88.8103C125.803 97.6977 111.879 109.245 99.7268 123.142C87.2562 137.405 77.0983 153.66 69.4466 171.547C61.7949 189.438 57.0448 208.052 55.3124 227.011C53.623 245.483 54.8396 263.645 58.9964 281.08C63.2178 298.803 70.2849 314.989 80.1074 329.196C90.5017 344.234 103.583 356.444 119.092 365.392C135.002 374.572 152.519 379.771 171.176 380.683C189.63 381.587 208.347 378.277 226.737 370.728C245.47 363.037 262.781 351.391 278.042 336.1C294.012 320.102 306.86 300.955 316.111 279.328C325.358 257.701 330.349 235.123 330.937 212.403L330.929 212.408ZM277.754 335.764C262.541 351.013 245.281 362.629 226.603 370.302C208.269 377.834 189.604 381.139 171.202 380.244C152.597 379.34 135.127 374.159 119.256 365.009C103.785 356.091 90.7382 343.92 80.3653 328.921C70.5686 314.753 63.5144 298.609 59.3016 280.933C55.1534 263.541 53.9368 245.427 55.6219 226.998C57.35 208.091 62.0915 189.52 69.7217 171.672C77.3519 153.824 87.4883 137.611 99.9288 123.383C112.051 109.516 125.94 98.0032 141.317 89.1417C156.943 80.1337 173.407 74.2676 190.326 71.7757C208.239 69.1375 225.946 70.4071 242.973 75.6879C260.439 81.1064 276.142 90.4199 289.541 103.499C302.794 116.437 313.201 132.442 320.337 151.104C327.606 170.114 331.058 190.781 330.495 212.433C329.906 235.085 324.928 257.598 315.707 279.16C306.486 300.722 293.672 319.81 277.754 335.764Z" fill="url(#paint8_linear_501_1695)"/>
<path d="M321.553 212.907C322.125 192.545 318.94 173.084 312.174 155.162C305.523 137.551 295.791 122.415 283.372 110.144C270.794 97.7235 256.028 88.8404 239.577 83.6284C223.513 78.537 206.782 77.2458 189.836 79.656C173.807 81.937 158.198 87.4287 143.367 95.9159C128.765 104.27 115.568 115.163 104.047 128.302C92.2169 141.79 82.5835 157.177 75.3358 174.125C68.0882 191.069 63.6004 208.706 61.9883 226.662C60.415 244.148 61.6101 261.329 65.5907 277.804C69.6357 294.538 76.3718 309.795 85.7086 323.162C95.5828 337.292 107.976 348.727 122.648 357.068C137.676 365.611 154.196 370.401 171.76 371.15C189.11 371.895 206.687 368.688 223.934 361.518C241.481 354.223 257.687 343.24 271.968 328.865C286.901 313.836 298.925 295.88 307.587 275.618C316.253 255.356 320.952 234.202 321.549 212.907H321.553ZM223.805 361.092C188.766 375.669 152.829 373.732 122.815 356.681C94.1943 340.421 74.2655 312.252 65.8959 277.654C57.7885 244.131 61.3048 207.691 75.6067 174.25C89.9085 140.809 113.753 113.252 143.466 96.2559C174.129 78.7135 208.08 74.0868 239.409 84.0244C272.26 94.444 298.276 119.578 311.778 155.369C325.775 192.464 324.287 235.485 307.2 275.454C290.108 315.42 260.125 345.99 223.809 361.101L223.805 361.092Z" fill="url(#paint9_linear_501_1695)"/>
<path d="M303.297 159.578C290.796 126.004 266.564 102.303 235.846 92.3437C206.468 82.8193 174.537 86.9983 145.637 103.409C117.584 119.337 95.0498 145.289 81.5561 176.845C68.0624 208.405 64.7997 242.775 72.5417 274.348C80.5201 306.872 99.3872 333.251 126.374 348.357C154.596 364.152 188.276 365.757 221.032 351.959C254.906 337.692 282.843 309.08 298.792 271.779C314.744 234.473 316.219 194.301 303.292 159.582L303.297 159.578ZM220.908 351.533C188.255 365.293 154.682 363.705 126.542 347.965C99.6279 332.911 80.8124 306.618 72.8512 274.193C65.1221 242.715 68.3762 208.44 81.8312 176.966C95.2862 145.496 117.76 119.617 145.736 103.74C174.555 87.3857 206.391 83.2239 235.678 92.731C266.293 102.669 290.444 126.305 302.901 159.772C315.78 194.379 314.306 234.422 298.405 271.603C282.504 308.783 254.665 337.305 220.903 351.533H220.908Z" fill="url(#paint10_linear_501_1695)"/>
<path d="M293.921 164.239C282.508 133.131 260.237 111.044 231.878 101.627C204.671 92.5933 174.997 96.2989 148.079 111.448C121.895 126.185 100.844 150.338 88.2621 179.772C75.6755 209.206 72.6921 241.252 80.0129 270.63C87.5399 300.834 105.199 325.22 130.351 339.065C156.564 353.496 187.739 354.761 217.976 341.854C249.159 328.542 274.852 302.099 289.549 267.729C304.247 233.359 305.7 196.324 293.926 164.239H293.921ZM217.847 341.432C187.717 354.301 156.646 353.048 130.514 338.673C105.44 324.88 87.8322 300.576 80.3224 270.471C73.0188 241.183 75.9936 209.236 88.5415 179.892C101.089 150.549 122.076 126.469 148.182 111.784C175.019 96.6863 204.594 92.9979 231.715 102.014C259.974 111.41 282.164 133.428 293.534 164.433C305.257 196.406 303.808 233.311 289.163 267.561C274.517 301.811 248.918 328.163 217.847 341.436V341.432Z" fill="url(#paint11_linear_501_1695)"/>
<path d="M284.112 169.12C273.812 140.611 253.573 120.245 227.682 111.431C202.758 102.944 175.483 106.176 150.671 120.013C126.486 133.497 107.03 155.739 95.4152 182.905C83.8 210.071 81.1047 239.634 87.9569 266.683C94.9853 294.43 111.346 316.728 134.538 329.27C158.628 342.293 187.167 343.244 214.769 331.297C243.158 319.005 266.517 294.839 279.907 263.524C293.298 232.21 294.708 198.45 284.116 169.124L284.112 169.12ZM214.64 330.879C187.145 342.788 158.709 341.85 134.701 328.878C111.587 316.388 95.2819 294.172 88.2707 266.524C81.4357 239.569 84.1224 210.101 95.6989 183.03C107.275 155.954 126.671 133.79 150.774 120.353C175.5 106.572 202.681 103.357 227.515 111.823C253.307 120.611 273.468 140.908 283.725 169.313C294.274 198.532 292.864 232.158 279.525 263.356C266.186 294.555 242.917 318.631 214.636 330.879H214.64Z" fill="url(#paint12_linear_501_1695)"/>
<path d="M274.229 174.035C265.03 148.164 246.82 129.572 223.418 121.403C200.807 113.514 175.982 116.295 153.336 128.797C131.215 141.011 113.401 161.295 102.783 186.12C92.1653 210.949 89.758 237.959 96.1115 262.62C102.616 287.862 117.622 308.047 138.798 319.289C160.717 330.927 186.591 331.598 211.532 320.645C237.118 309.412 258.152 287.54 270.231 259.289C282.31 231.039 283.664 200.568 274.225 174.03L274.229 174.035ZM211.412 320.236C186.569 331.146 160.803 330.488 138.965 318.902C117.867 307.707 102.916 287.604 96.4296 262.461C90.0976 237.895 92.4963 210.983 103.071 186.249C113.65 161.515 131.395 141.308 153.439 129.141C175.999 116.69 200.729 113.927 223.25 121.795C246.558 129.938 264.69 148.461 273.846 174.228C283.239 200.658 281.889 231 269.861 259.134C257.834 287.268 236.89 309.046 211.412 320.24V320.236Z" fill="url(#paint13_linear_501_1695)"/>
<path d="M264.359 178.941C256.234 155.726 240.037 138.941 219.119 131.461C198.838 124.205 176.489 126.563 156.049 137.736C136.038 148.681 119.905 166.968 110.31 189.408C100.715 211.848 98.5876 236.26 104.412 258.493C110.362 281.2 123.976 299.272 143.101 309.235C162.823 319.513 186.019 319.943 208.312 310.019C231.121 299.866 249.842 280.296 260.619 255.093C271.396 229.89 272.673 202.694 264.359 178.945V178.941ZM208.188 309.61C185.998 319.491 162.905 319.074 143.268 308.848C124.225 298.932 110.663 280.942 104.735 258.334C98.9315 236.195 101.046 211.887 110.603 189.537C120.159 167.187 136.223 148.978 156.152 138.081C176.502 126.955 198.756 124.618 218.952 131.849C239.775 139.303 255.899 156.019 263.981 179.13C272.247 202.776 270.975 229.842 260.249 254.93C249.524 280.017 230.889 299.5 208.188 309.61Z" fill="url(#paint14_linear_501_1695)"/>
<path d="M240.72 350.096C242.56 343.61 248.501 328.28 253.737 314.77C255.667 309.786 257.49 305.082 259.123 300.795C259.265 300.425 259.347 300.051 259.372 299.689C260.898 296.939 262.227 293.259 264.256 286.52C270.205 266.02 275.708 231.616 279.783 204.282C279.783 204.278 279.783 204.269 279.783 204.265C281.881 189.899 282.577 183.008 283.054 176.088C283.174 175.485 283.359 174.994 283.686 174.401C294.252 160.495 295.761 151.978 297.665 141.261C298.091 138.851 298.534 136.368 299.11 133.66C300.902 128.569 300.326 124.252 297.528 121.803C291.669 116.673 282.934 121.778 277.565 125.087C274.972 126.684 272.38 128.281 269.788 129.877C266.195 132.09 262.558 134.874 258.68 136.501C255.155 137.982 251.428 137.865 247.697 137.62C247.676 137.62 247.654 137.62 247.633 137.62C244.847 137.508 241.739 137.487 237.84 138.085C231.547 139.053 219.45 134.177 212.908 129.249C212.83 129.189 212.749 129.137 212.658 129.094C206.137 125.724 211.218 116.893 211.076 111.539C211.021 109.421 210.032 107.519 209.331 105.574C208.652 103.684 207.934 101.89 206.717 100.28C204.349 97.1554 200.218 96.2516 196.882 98.3002C192.695 100.874 190.645 106.564 188.267 113.153C185.929 119.643 183.272 127.007 178.926 129.697C178.561 129.92 178.23 130.209 177.95 130.536C175.272 132.223 172.844 134.134 170.024 135.597C164.698 138.365 158.77 139.501 153.637 142.677C149.231 145.401 145.431 149.038 141.987 152.946C136.786 158.842 132.457 165.552 126.989 171.194C96.8165 202.345 98.7811 235.713 98.2695 241.85C98.0374 244.613 97.8396 247.002 97.5989 248.026C97.5989 248.039 97.5903 248.056 97.586 248.069C97.5731 248.104 97.5645 248.138 97.5516 248.177C96.2792 252.537 90.8026 261.359 85.6184 267.415C85.5926 267.445 85.5668 267.475 85.5453 267.505C82.3728 271.43 80.5115 275.291 78.7146 279.027C76.3847 283.864 74.3729 288.039 69.7518 291.921C68.6642 292.833 68.1011 294.417 68.4278 295.644C71.5315 307.32 76.2988 318.11 82.6523 327.729C88.3696 336.384 95.3378 344.002 103.394 350.354C109.777 355.506 117.235 359.904 125.42 363.36C129.852 365.228 134.495 366.82 139.301 368.103C153.216 371.817 168.223 372.88 182.666 371.077C182.67 371.077 182.675 371.077 182.679 371.077C201.456 368.934 220.362 362.753 238.769 352.596C239.702 352.084 240.424 351.159 240.725 350.104L240.72 350.096Z" fill="url(#paint15_linear_501_1695)"/>
<path d="M262.063 205.173C263.4 207.08 265.369 205.199 267.132 202.147C265.717 203.249 263.766 204.484 262.063 205.173Z" fill="url(#paint16_linear_501_1695)"/>
<path d="M274.169 178.537C272.926 178.429 272.505 176.832 272.698 174.766C270.743 176.91 265.868 182.5 263.761 185.332C267.742 185.332 269.453 183.43 272.862 182.974C272.582 181.614 272.367 180.508 274.315 179.643C276.808 178.532 279.912 176.535 279.912 176.535C280.14 175.253 280.552 174.25 281.193 173.157C278.343 175.911 276.198 178.717 274.169 178.541V178.537Z" fill="url(#paint17_linear_501_1695)"/>
<path d="M273.158 185.771C273.025 186.098 272.703 187.26 272.29 188.797C272.931 187.57 273.133 186.654 273.158 185.771Z" fill="#F59913"/>
<path d="M263.413 141.524C261.608 144.489 261.268 145.642 259.269 146.714C251.278 149.141 252.163 157.921 248.256 163.034C246.812 164.992 244.37 169.959 245.045 167.359C245.72 164.764 247.461 161.687 247.186 160.564C246.91 159.44 246.588 160.697 245.922 159.488C245.255 158.278 244.985 159.169 245.131 157.31C245.208 156.333 245.251 155.808 245.397 155.33C244.06 156.768 242.835 157.456 242.04 157.56C242.552 162.216 242.913 167.398 244.555 169.344C247.848 162.961 250.659 159.91 257.129 156.979C255.482 157.439 255.349 157.551 256.221 156.109C257.288 154.353 258.298 153.94 261.384 152.24C259.85 152.257 258.324 152.098 257.739 151.349C256.565 149.856 261.139 148.896 263.568 147.549C266.001 146.198 267.957 145.711 270.102 143.508C271.766 141.799 280.956 139.156 285.414 138.05C285.44 135.563 286.858 134.461 285.921 130.885C285.126 128.677 285.324 126.013 284.331 124.467C279.224 125.926 272.419 134.784 269.84 136.69C266.985 139.01 265.219 138.558 263.409 141.524H263.413Z" fill="url(#paint18_linear_501_1695)"/>
<path d="M263.413 141.524C265.219 138.558 266.99 139.01 269.844 136.69C271.443 135.391 275.768 130.893 279.271 127.183C274.715 129.83 269.582 133.2 265.245 135.851C264.819 137.852 264.2 140.189 263.413 141.524Z" fill="url(#paint19_linear_501_1695)"/>
<path d="M263.413 141.524C262.223 143.538 258.672 145.681 256.041 148.143C259.785 146.835 261.122 145.918 263.413 141.524Z" fill="url(#paint20_linear_501_1695)"/>
<path d="M273.631 150.738C287.164 148.603 277.307 156.966 274.801 158.868C272.303 160.766 268.125 166.279 263.856 169.554C258.891 173.6 257.172 174.939 253.101 177.59C254.511 179.363 254.24 180.12 256.011 182.638C257.219 179.109 259.987 185.741 263.542 181.231C265.206 179.668 262.382 181.089 260.426 180.228C258.474 179.371 259.48 178.296 260.937 175.39C262.394 172.485 265.339 172.313 268.946 170.613C270.82 169.727 273.412 168.573 275.48 167.669C286.102 155.421 287.134 151.095 285.414 138.055C280.956 139.161 271.766 141.803 270.102 143.512C267.961 145.716 266.001 146.202 263.568 147.553C261.144 148.9 256.565 149.86 257.739 151.354C258.328 152.102 259.85 152.262 261.384 152.244C264.626 150.256 273.588 150.747 273.627 150.738H273.631Z" fill="url(#paint21_linear_501_1695)"/>
<path d="M285.414 138.05C287.151 151.014 286.063 155.494 275.48 167.665C277.397 166.821 278.859 166.193 278.859 166.193C278.497 167.751 274.216 173.036 272.703 174.766C272.277 181.696 277.178 177.68 281.197 173.152C293.676 156.802 292.859 148.513 296.049 133.669C299.527 124.188 292.524 120.672 284.623 124.33C284.928 126.322 285.324 128.556 285.926 130.88C286.863 134.461 285.44 135.558 285.418 138.046L285.414 138.05Z" fill="url(#paint22_linear_501_1695)"/>
<path d="M254.975 176.131C251.742 177.719 253.376 174.831 253.836 172.985C254.296 171.138 250.328 172.515 249.644 171.297C248.961 170.079 250.848 169.761 253.346 168.496C255.852 167.226 256.471 166.279 258.624 164.558C260.782 162.836 263.632 161.295 267.256 159.755C270.893 158.21 268.451 157.723 264.888 159.113C261.337 160.499 263.306 158.958 266.319 157.297C269.341 155.627 266.99 154.685 264.699 155.425C262.437 156.157 259.979 156.092 257.124 156.983C250.659 159.91 247.839 162.974 244.55 169.348C246.644 171.917 251.162 175.429 253.096 177.594C253.827 177.284 254.48 176.815 254.966 176.135L254.975 176.131Z" fill="url(#paint23_linear_501_1695)"/>
<path d="M260.993 140.826C258.698 143.929 257.146 145.281 253.93 147.252C250.766 149.193 248.222 152.395 245.393 155.326C245.247 155.804 245.204 156.333 245.126 157.306C244.98 159.165 245.251 158.274 245.917 159.483C246.584 160.693 246.906 159.44 247.181 160.559C247.456 161.683 245.715 164.76 245.041 167.355C244.366 169.95 246.807 164.984 248.252 163.03C249.696 161.072 250.079 159.845 250.861 157.753C254.064 144.127 263.542 147.467 265.24 135.847C262.674 136.923 262.833 138.373 260.993 140.826Z" fill="url(#paint24_linear_501_1695)"/>
<path d="M249.537 143.697C248.823 144.618 242.079 146.938 240.6 150.519C241.348 151.478 241.7 154.332 242.04 157.564C246.236 156.126 249.834 149.296 253.93 147.261C257.872 145.014 261.492 141.145 263.078 137.155C256.853 141.235 252.357 141.089 246.627 140.702C248.385 141.833 249.92 143.206 249.537 143.701V143.697Z" fill="url(#paint25_linear_501_1695)"/>
<path d="M186.69 126.71C188.353 123.878 193.937 109.43 195.304 105.087C196.805 100.68 201.391 100.629 201.572 100.59C190.602 95.4683 191.844 124.541 179.588 132.107C182.443 131.75 185.413 128.888 186.694 126.705L186.69 126.71Z" fill="url(#paint26_linear_501_1695)"/>
<path d="M174.438 140.013C176.562 136.927 178.986 134.663 182.847 131.035C178.118 132.197 174.735 136.514 169.701 138.541C173.097 138.08 172.908 138.291 174.438 140.017V140.013Z" fill="url(#paint27_linear_501_1695)"/>
<path d="M186.028 136.273C188.19 134.762 190.486 133.398 192.631 132.705C193.035 132.58 194.922 131.431 197.561 130.648C197.277 130.149 196.994 129.58 196.74 128.952C195.859 129.017 194.969 129.025 194.2 128.931C191.565 128.595 187.674 130.885 187.094 129.641C182.494 131.771 180.233 136.247 174.636 140.25C174.976 140.697 175.057 141.141 174.95 141.601C178.527 140.172 183.517 138.029 186.028 136.273Z" fill="url(#paint28_linear_501_1695)"/>
<path d="M199.1 132.834C198.975 132.727 198.279 131.917 197.561 130.648C194.922 131.431 193.03 132.58 192.631 132.701C200.102 129.796 202.311 138.911 198.442 144.992C196.074 148.909 189.458 156.058 188.194 158.334C186.058 163.749 184.553 164.213 180.427 168.466C188.371 165.302 189.497 159.406 194.028 155.326C194.028 155.326 206.455 145.629 211.472 145.074C216.514 144.519 220.912 142.957 219.291 144.373C223.268 145.036 236.89 145.888 240.609 150.514C242.083 146.933 248.832 144.614 249.546 143.693C249.928 143.198 248.394 141.821 246.635 140.693C244.022 140.581 241.077 140.547 237.363 141.106C229.746 142.26 217.077 136.583 210.836 131.857C210.836 131.857 199.418 133.097 199.109 132.83L199.1 132.834Z" fill="url(#paint29_linear_501_1695)"/>
<path d="M168.807 152.068C177.624 147.256 194.75 131.048 187.133 152.636C184.583 156.058 187.597 156.802 187.347 159.776C189.063 156.256 195.373 149.886 198.438 144.992C202.307 138.92 200.102 129.791 192.626 132.705C190.481 133.398 188.186 134.762 186.023 136.273C183.513 138.029 178.522 140.172 174.946 141.601C174.576 143.206 171.932 145.001 169.843 147.807C167.556 151.874 157.88 154.461 160.244 157.34C163.107 154.482 167.182 152.817 168.799 152.072L168.807 152.068Z" fill="url(#paint30_linear_501_1695)"/>
<path d="M132.496 172.692C134.276 170.605 133.828 171.048 136.567 168.754C138.527 167.174 138.26 168.126 140.964 166.206C143.673 164.282 145.663 163.206 147.829 163.512C151.212 164.063 146.106 170.217 142.873 171.164C140.393 175.946 140.152 182.793 139.073 187.708C143.862 186.159 149.072 181.928 155.374 178.872C152.567 178.265 149.51 176.858 150.907 173.841C150.881 169.567 153.396 165.956 155.116 165.169C155.116 165.169 157.282 160.387 160.253 157.34C157.875 154.478 167.573 151.861 169.852 147.807C172.25 144.317 176.055 142.729 174.64 140.25C173.948 140.762 174.03 140.568 174.443 140.013C172.018 135.679 165.428 141.179 160.79 142.031C142.804 148.638 138.475 163.886 125.313 176.527C127.711 175.296 130.11 174.048 132.496 172.696V172.692Z" fill="url(#paint31_linear_501_1695)"/>
<path d="M162.35 162.242C175.517 154.62 180.255 145.5 172.134 166.856C177.065 163.456 178.845 163.417 181.222 160.538C183.646 157.65 184.609 153.277 185.864 155.468C187.094 153.049 191.345 142.307 187.219 141.502C183.835 141.734 178.664 145.784 175.836 147.57C166.555 154.461 160.412 153.475 155.116 165.173C156.607 163.038 159.78 161.515 162.35 162.247V162.242Z" fill="url(#paint32_linear_501_1695)"/>
<path d="M172.134 166.856C180.276 145.466 175.479 154.663 162.35 162.242C168.614 164.605 165.815 173.105 161.173 175.601C155.365 179.079 150.847 177.594 151.049 173.548C149.334 176.742 152.468 178.248 155.378 178.868C158.757 177.202 161.981 175.73 165.673 173.949C167.092 171.771 169.336 168.814 172.139 166.852L172.134 166.856Z" fill="url(#paint33_linear_501_1695)"/>
<path d="M262.089 188.762C261.831 189.098 260.727 188.986 259.527 188.706C260.206 190.841 259.923 197.499 260.967 200.615C261.861 203.284 260.761 203.77 262.063 205.177C266.47 203.589 268.589 200.675 269.483 196.574C270.394 192.847 268.971 193.811 271.164 190.639C273.09 187.794 273.429 185.302 272.866 182.978C269.457 183.434 267.746 185.337 263.766 185.337C262.36 187.067 262.609 188.1 262.094 188.762H262.089Z" fill="url(#paint34_linear_501_1695)"/>
<path d="M274.315 179.643C270.669 181.162 274.766 185.349 272.286 188.801C269.487 193.23 270.201 191.676 269.483 196.574C268.954 199.117 264.699 208.573 262.059 205.177C260.761 203.77 261.857 203.284 260.963 200.615C259.974 197.663 260.129 190.936 259.6 188.939C258.689 188.173 256.501 187.979 256.131 187.45C255.207 186.765 255.112 185.177 256.007 182.634C253.427 176.57 248.6 173.901 244.426 169.184C242.014 166.542 242.552 153.919 240.6 150.514C239.203 148.724 235.102 147.213 233.4 146.645C237.054 148.444 229.501 152.623 230.081 156.307C229.849 158.248 227.042 159.656 228.671 160.805C236.83 156.359 241.756 164.2 242.186 171.995C249.227 176.991 254.743 191.134 253.638 202.16C253.96 208.379 247.297 221.515 247.671 227.652C249.528 225.676 254.515 219.569 256.643 221.885C265.477 195.963 260.877 225.715 270.188 212.89C272.509 210.226 274.706 207.131 276.64 204.601C278.833 189.675 279.473 182.918 279.916 176.535C279.916 176.535 276.812 178.537 274.319 179.643H274.315Z" fill="url(#paint35_linear_501_1695)"/>
<path d="M214.967 146.981C216.725 148.72 218.509 147.863 214.975 149.585C211.45 151.302 208.274 150.656 206.361 152.516C204.912 153.923 203.309 156.101 202.569 157.439C204.955 155.911 206.885 154.259 209.593 154.564C213.634 154.754 223.551 160.439 223.581 167.872C232.996 167.037 218.75 179.057 220.757 188.302C221.316 187.76 221.961 187.458 223.104 187.45C226.401 187.433 232.536 185.595 234.216 181.145C235.897 176.694 230.777 178.666 232.66 175.756C234.543 172.843 233.847 171.513 237.243 171.048C238.825 170.833 240.531 171.104 242.186 171.995C241.756 164.2 236.83 156.359 228.671 160.805C227.042 159.656 229.849 158.248 230.081 156.307C230.326 154.25 230.593 153.252 232.647 151.035C234.943 148.707 234.99 146.813 232.647 146.4C229.986 145.797 219.291 144.368 219.291 144.368C217.675 145.784 213.217 145.242 214.971 146.977L214.967 146.981Z" fill="url(#paint36_linear_501_1695)"/>
<path d="M192.119 161.029C194.767 161.493 199.117 157.702 202.565 157.439C203.3 156.105 204.908 153.927 206.356 152.516C208.269 150.656 211.446 151.302 214.971 149.585C218.505 147.863 216.725 148.72 214.962 146.981C213.209 145.246 217.666 145.784 219.283 144.373C220.903 142.957 216.506 144.519 211.463 145.074C206.451 145.629 194.019 155.326 194.019 155.326C196.259 153.897 190.056 161.175 192.119 161.029Z" fill="url(#paint37_linear_501_1695)"/>
<path d="M179.06 171.186C176.575 176.165 175.449 177.882 172.629 181.657C179.107 177.314 193.305 169.421 197.462 163.129C199.582 160.749 201.284 158.825 202.866 157.409C199.397 157.504 194.767 161.515 192.119 161.029C190.056 161.179 196.263 153.897 194.019 155.326C191.784 156.755 190.847 159.828 187.571 163.439C184.764 166.533 181.334 168.087 180.418 168.466C180.035 168.939 180.065 169.339 179.06 171.186Z" fill="url(#paint38_linear_501_1695)"/>
<path d="M175.831 195.649C177.026 194.19 178.084 193.01 178.978 192.115C179.941 189.283 181.583 188.526 181.978 185.444C182.421 182.018 183.904 182.625 186.849 181.084C187.954 180.503 188.727 180.146 189.381 179.965C189.695 174.943 193.899 170.51 197.776 167.364C201.211 164.45 198.546 164.123 203.687 163.271C208.639 162.453 214.305 164.85 214.924 168.47C220.744 165.22 213.638 172.464 219.73 169.098C220.929 168.534 222.33 168.061 223.573 167.876C222.734 158.92 210.122 150.127 202.862 157.409C201.275 158.825 199.573 160.749 197.454 163.129C193.318 169.425 179.025 177.327 172.599 181.691C177.099 186.038 173.308 192.24 171.339 198.601C172.904 198.085 174.554 197.189 175.823 195.649H175.831Z" fill="url(#paint39_linear_501_1695)"/>
<path d="M192.588 180.331C193.753 180.736 193.585 182.401 193.185 183.951C195.88 182.001 199.285 180.495 202.41 180.624C204.934 179.023 208.166 176.979 208.979 176.053C210.122 174.753 209.215 175.098 207.594 173.944C205.329 172.313 213.234 169.942 214.932 168.466C214.313 164.846 208.643 162.449 203.695 163.267C198.554 164.119 201.219 164.446 197.785 167.359C193.912 170.497 189.695 174.951 189.389 179.961C190.477 179.66 191.221 179.849 192.592 180.327L192.588 180.331Z" fill="url(#paint40_linear_501_1695)"/>
<path d="M217.395 168.242C217.645 166.103 212.469 170.183 211.36 170.458C202.015 174.555 211.317 173.6 208.974 176.049C208.162 176.974 204.929 179.019 202.406 180.62C207.324 180.813 210.393 184.954 211.979 187.695C213.608 188.926 214.395 191.543 211.859 193.738C215.569 195.597 219.498 189.778 220.757 188.298C220.847 187.269 220.809 186.085 220.723 184.558C220.516 180.981 225.043 175.171 226.552 170.893C228.116 166.284 222.386 167.811 219.738 169.085C216.398 170.656 216.893 170.234 217.4 168.233L217.395 168.242Z" fill="url(#paint41_linear_501_1695)"/>
<path d="M185.899 155.52C184.635 153.204 183.668 157.607 181.222 160.534C177.108 165.083 170.243 165.982 165.669 173.949C169.895 171.878 172.014 170.893 175.234 170.338C178.681 169.778 180.293 168.293 180.28 168.608C184.742 163.99 189.918 160.744 185.899 155.515V155.52Z" fill="url(#paint42_linear_501_1695)"/>
<path d="M166.825 218.838C168.455 218.554 170.166 218.399 171.068 218.739C174.301 214.547 177.362 210.936 179.893 208.84C179.176 205.685 178.75 201.893 180.667 199.143C179.537 198.136 177.697 195.05 178.982 192.115C176.962 194.151 174.335 198.024 171.352 198.601C169.589 204.243 168.377 207.897 167.363 212.373C167.879 214.379 168.059 216.548 166.83 218.833L166.825 218.838Z" fill="url(#paint43_linear_501_1695)"/>
<path d="M147.309 186.314C158.249 194.555 163.928 176.91 172.607 181.691C175.44 177.904 176.575 176.178 179.064 171.186C179.846 169.619 180.543 168.332 180.186 168.56C180.186 168.56 178.484 169.735 175.234 170.342C172.023 170.889 169.89 171.883 165.669 173.953C158.636 177.043 148.135 182.582 142.675 186.314C144.408 185.827 146.093 185.685 147.309 186.314Z" fill="url(#paint44_linear_501_1695)"/>
<path d="M185.576 187.282C187.924 184.855 187.777 186.567 189.643 185.233C191.513 183.899 190.885 184.304 192.579 184.398C193.998 183.404 193.679 180.624 192.588 180.331C190.245 179.44 189.402 179.755 186.853 181.084C183.909 182.625 182.421 182.018 181.983 185.444C181.587 188.526 179.945 189.283 178.982 192.115C177.705 195.05 179.537 198.136 180.667 199.143C182.473 196.109 183.582 193.845 186.058 191.074C185.422 189.778 183.087 189.868 185.581 187.282H185.576Z" fill="url(#paint45_linear_501_1695)"/>
<path d="M237.247 171.052C233.851 171.513 234.547 172.847 232.665 175.761C230.782 178.67 235.906 176.699 234.221 181.149C232.536 185.603 226.401 187.441 223.108 187.454C221.965 187.458 221.32 187.764 220.761 188.306C219.506 189.782 215.573 195.61 211.863 193.746C207.242 198.097 201.34 200.258 193.086 198.214C190.67 197.607 189.196 196.677 188.31 195.67C186.097 194.895 186.514 192.158 186.062 191.078C183.453 193.992 182.271 196.518 180.336 199.711C178.823 202.208 179.227 205.956 179.902 208.844C189.028 201.192 188.444 220.723 218.328 198.687C222.894 195.692 226.328 193.157 230.936 196.953C235.583 200.774 253.311 195.67 253.647 202.169C254.988 191.771 247.903 169.817 237.256 171.056L237.247 171.052Z" fill="url(#paint46_linear_501_1695)"/>
<path d="M153.491 199.186C165.721 198.261 164.182 202.113 167.358 212.378C168.661 206.925 171.266 198.227 173.587 192.3C175.221 188.577 175.307 182.806 171.752 181.149C168.128 179.393 162.909 183.727 158.542 186.839C150.641 192.356 148.126 182.165 139.073 187.708C138.944 188.633 138.832 189.438 138.811 190.252C144.777 190.286 151.109 193.544 153.491 199.186Z" fill="url(#paint47_linear_501_1695)"/>
<path d="M262.661 211.435C260.993 209.219 258.861 215.369 256.643 221.885C257.885 224.222 254.936 232.786 251.265 239.04C246.356 247.411 223.633 270.871 228.993 270.053C234.384 269.227 244.77 263.107 253.285 254.288C276.971 231.28 245.711 266.451 252.267 265.556C255.676 265.624 253.634 266.636 250.594 274.478C247.555 282.323 252.206 278.678 253.84 279.711C255.482 280.744 258.134 281.867 252.426 287.126C246.739 292.368 245.062 294.688 240.686 295.256C236.327 295.82 234.307 298.463 233.133 294.697C232.609 293.018 232.763 291.349 232.699 290.238C229.161 293.634 224.914 297.86 221.019 300.408C212.852 305.366 215.053 301.691 207.964 309.666C218.346 307.966 222.704 306.373 227.725 306.941C233.163 307.557 236.568 301.699 241.799 304.523C244.654 306.063 245.307 309.291 244.985 312.932C256.019 298.217 255.848 303.933 261.199 286.162C267.17 265.616 272.668 231.043 276.632 204.605C274.697 207.135 272.501 210.23 270.179 212.894C264.234 219.724 265.683 215.472 262.652 211.439L262.661 211.435Z" fill="url(#paint48_linear_501_1695)"/>
<path d="M234.857 250.501C229.776 256.173 201.039 279.819 201.262 282.358C201.486 284.897 215.5 277.766 212.62 281.42C209.744 285.065 203.532 285.745 204.826 288.357C206.124 290.978 207.569 290.178 204.405 293.47C201.25 296.758 207.251 295.054 206.705 297.641C206.283 299.642 198.528 305.099 192.3 308.697C193.684 310.376 201.482 311.172 207.964 309.661C209.666 307.91 211.566 305.93 213.441 303.963C211.764 304.471 209.748 305.03 206.782 306.055C193.142 310.173 220.602 295.979 215.397 295.213C213.024 294.512 209.959 297.025 210.432 295.747C210.9 294.469 213.449 294.219 213.754 292.807C214.06 291.396 214.094 291.491 212.456 291.34C210.823 291.194 211.902 288.499 214.61 287.664C214.61 287.664 223.719 285.104 231.5 281.058C239.332 276.987 250.263 267.708 248.385 270.324C246.506 272.941 234.264 279.328 235.123 282.082C238.231 286.563 240.226 282.965 232.703 290.23C232.768 291.344 232.617 293.014 233.137 294.688C234.311 298.454 236.336 295.812 240.69 295.248C245.066 294.68 246.743 292.356 252.43 287.118C258.139 281.859 255.486 280.735 253.844 279.702C252.206 278.669 247.555 282.315 250.599 274.469C253.638 266.632 255.68 265.62 252.271 265.551C248.875 265.482 254.704 258.2 259.811 251.026C270.893 234.336 241.464 269.864 228.998 270.049C223.538 268.792 261.535 234.568 256.643 221.88C256.221 221.088 255.319 221.011 253.797 221.979C242.07 229.808 254.803 229.279 234.857 250.497V250.501Z" fill="url(#paint49_linear_501_1695)"/>
<path d="M105.809 212.076C107.503 211.392 109.205 210.746 110.916 210.14C109.236 210.944 107.55 211.71 105.865 212.438C106.042 213.789 106.046 215.889 105.956 218.136C108.397 216.539 110.891 215.102 113.41 213.725C115.671 204.471 117.962 194.215 128.12 189.137C126.508 185.659 125.093 182.066 123.757 178.433C121.336 181.459 118.387 185.448 114.66 190.996C116.487 191.754 118.792 192.735 120.58 193.561C118.676 192.929 116.294 192.055 114.424 191.349C112.911 193.621 111.57 196.027 110.383 198.511C112.262 198.399 114.132 198.33 116.002 198.3C114.054 198.545 112.12 198.747 110.194 198.911C109.545 200.292 108.939 201.695 108.38 203.116C110.168 202.715 111.957 202.354 113.745 202.023C111.896 202.56 110.057 203.06 108.217 203.52C107.718 204.803 107.254 206.098 106.82 207.398C109.717 206.438 112.937 205.405 115.86 204.553C112.889 205.698 109.622 206.86 106.665 207.884C106.33 209.313 105.38 210.815 105.814 212.081L105.809 212.076Z" fill="url(#paint50_linear_501_1695)"/>
<path d="M126.877 185.384C127.325 186.61 127.746 187.854 128.15 189.115C133.738 186.189 139.215 182.617 138.828 189.748C139.133 186.623 139.752 183.779 140.414 180.107C141.106 176.346 141.149 174.31 142.873 171.164C141.644 171.599 141.519 170.906 139.417 171.758C136.481 172.946 135.423 175.739 130.549 177.818C125.695 179.884 130.566 175.464 131.481 173.992C131.481 173.992 131.95 173.372 132.496 172.696C129.71 174.633 126.207 175.18 124.04 178.076C125.033 180.473 125.983 182.905 126.877 185.388V185.384Z" fill="url(#paint51_linear_501_1695)"/>
<path d="M108.432 216.94C107.606 217.379 106.781 217.805 105.947 218.209C105.887 219.625 105.792 221.097 105.676 222.461C105.276 231.964 112.911 218.442 113.272 214.211C111.669 215.162 110.052 216.075 108.432 216.94Z" fill="url(#paint52_linear_501_1695)"/>
<path d="M101.73 250.036C102.843 253.81 104.971 256.987 106.639 259.642C99.3227 244.76 111.733 239.591 118.495 226.309C119.256 223.701 119.621 220.994 119.806 218.239C120.008 215.205 118.714 215.782 121.216 210.841C122.751 207.807 125.794 203.692 127.918 200.964C129.452 195.593 133.639 190.049 138.811 190.252C139.4 182.578 134.121 185.969 128.15 189.115C128.184 189.223 128.223 189.331 128.257 189.442C128.21 189.339 128.167 189.236 128.115 189.137C117.949 194.215 115.666 204.476 113.405 213.725C114.661 213.036 115.924 212.373 117.205 211.766C115.907 212.636 114.596 213.436 113.272 214.215C112.911 218.437 105.276 231.973 105.676 222.466C105.792 221.097 105.887 219.629 105.947 218.214C105.788 218.291 105.625 218.373 105.466 218.45C105.625 218.343 105.788 218.239 105.951 218.136C106.042 215.894 106.037 213.789 105.861 212.438C105.646 212.532 105.431 212.623 105.221 212.718C100.75 229.287 100.96 243.795 99.9675 248.03C100.668 248.009 101.296 248.556 101.734 250.036H101.73ZM109.485 225.216C108.771 225.892 108.049 226.559 107.305 227.191C109.915 224.187 112.713 221.373 115.671 218.782C113.719 221.058 111.626 223.172 109.489 225.212L109.485 225.216Z" fill="url(#paint53_linear_501_1695)"/>
<path d="M105.607 211.319C105.517 211.633 105.431 211.947 105.345 212.261C105.5 212.201 105.655 212.137 105.809 212.076C105.754 211.766 105.689 211.508 105.607 211.319Z" fill="#FFE088"/>
<path d="M175.831 285.19C171.717 286.016 165.51 286.713 159.9 287.118C167.277 287.101 173.011 286.283 175.831 285.19Z" fill="#FFCD76"/>
<path d="M230.928 196.948C221.471 190.066 215.023 205.775 199.147 208.754C182.15 213.26 188.448 196.333 171.068 218.739C171.494 218.885 171.79 219.234 171.876 219.694C178.604 221.579 186.054 223.507 190.529 229.072C185.611 224.071 178.393 222.22 171.902 219.879C172.074 221.592 170.29 224.738 169.387 227.807C168.27 233.682 171.49 232.902 168.351 239.724C177.499 256.126 160.442 253.458 149.906 255.911C147.391 256.526 143.032 258.898 138.51 260.882C140.216 265.16 139.864 266.976 143.333 270.923C143.63 267.109 143.406 263.085 143.286 259.371C143.961 263.102 144.193 267.096 143.591 271.185C146.161 274.43 150.176 274.96 155.288 274.4C161.052 252.407 176.897 271.314 180.633 265.427C181.359 262.237 175.182 258.626 180.332 255.089C185.503 251.538 183.242 249.903 193.735 247.82C204.345 245.715 206.644 245.353 212.783 242.59C218.952 239.814 228.817 238.201 230.154 240.753C231.495 243.309 228.284 242.04 222.352 247.208C216.445 252.356 220.276 253.625 214.459 255.993C204.83 258.484 203.567 247.135 198.773 267.368C197.475 270.923 203.236 269.111 193.774 273.062C182.576 276.978 186.72 271.314 179.627 280.89C180.246 281.678 180.598 282.401 180.581 282.978C196.031 276.901 191.014 283.391 177.976 289.3C175.023 290.604 171.554 292.192 167.849 293.651C171.709 293.655 175.247 293.746 177.336 293.991C184.059 294.787 178.256 297.886 181.759 301.217C187.176 305.719 188.938 304.884 192.304 308.693C198.537 305.095 206.288 299.638 206.709 297.636C207.255 295.05 201.254 296.754 204.409 293.466C207.573 290.174 206.129 290.974 204.83 288.353C203.532 285.741 209.748 285.061 212.624 281.415C215.504 277.761 201.49 284.897 201.267 282.354C207.719 271.181 249.253 245.676 247.676 227.648C247.302 221.515 253.965 208.375 253.642 202.16C253.307 195.661 235.579 200.77 230.932 196.944L230.928 196.948Z" fill="url(#paint54_linear_501_1695)"/>
<path d="M138.514 285.121C152.958 287.277 166.43 289.123 180.581 282.978C180.598 282.401 180.246 281.682 179.627 280.89C176.489 284.686 175.281 284.493 170.694 283.283C165.102 281.734 153.289 279.461 155.288 274.4C150.176 274.96 146.161 274.434 143.591 271.185C143.449 272.059 143.256 272.937 142.963 273.802C143.135 272.833 143.268 271.878 143.333 270.923C139.868 266.976 140.216 265.155 138.51 260.882C126.344 266.851 121.431 263.103 121.409 252.42C121.259 249.812 117.713 248.573 117.468 243.051C117.532 237.701 117.429 231.388 118.491 226.309C111.707 239.616 99.3227 244.768 106.635 259.642C107.761 261.437 108.672 262.991 108.922 264.325C109.321 266.507 110.654 272.244 112.159 276.152C118.078 280.094 127.432 282.99 138.51 285.117L138.514 285.121ZM114.643 238.661C113.917 239.81 113.079 240.852 112.27 241.941C112.855 240.258 114.076 238.738 115.335 237.482C115.125 237.891 114.888 238.278 114.643 238.661ZM115.696 242.324C114.084 244.854 112.597 247.652 110.878 250.114C112.27 247.251 113.771 244.092 116.07 241.85C115.92 241.988 115.808 242.16 115.692 242.324H115.696Z" fill="url(#paint55_linear_501_1695)"/>
<path d="M164.332 253.875C173.192 252.076 171.378 244.368 168.347 239.724C167.814 240.89 166.748 242.143 165.308 242.758C163.932 245.582 161.396 247.213 157.248 248.34C152.399 252.877 144.941 252.136 138.252 250.88C138.303 253.105 138.321 255.433 137.633 257.757C137.96 255.368 137.848 253.07 137.8 250.768C136.928 250.544 136.176 250.286 135.617 249.997C132.621 248.452 134.284 250.798 129.225 249.02C122.768 245.883 123.941 242.225 122.252 239.035C119.062 237.826 120.64 235.244 119.815 233.746C119.161 232.563 118.259 231.263 118.018 229.679C117.734 233.126 117.3 239.255 117.468 243.042C117.708 248.568 121.259 249.804 121.405 252.416C121.289 272.558 137.852 260.296 149.901 255.906C154.428 254.805 160.072 254.478 164.328 253.871L164.332 253.875Z" fill="url(#paint56_linear_501_1695)"/>
<path d="M99.4645 272.235C103.441 279.745 111.243 283.236 107.886 290.604C109.824 291.503 111.694 293.337 112.546 296.952C114.691 306.081 120.09 306.076 120.683 299.539C121.702 287.664 103.037 279.113 103.66 263.352C103.66 263.352 103.6 261.269 105.47 268.56C106.188 271.357 108.556 273.935 112.193 276.242C109.304 269.257 110.108 264.725 106.639 259.646C104.971 256.991 102.843 253.815 101.73 250.04C101.296 248.56 100.668 248.009 99.9632 248.035C98.9831 252.055 96.0428 265.586 99.4645 272.24V272.235Z" fill="url(#paint57_linear_501_1695)"/>
<path d="M241.804 304.518C236.568 301.695 233.167 307.552 227.73 306.937C223.242 306.205 214.855 308.697 205.518 310.044C195.842 311.15 193.533 310.328 190.077 306.55C188.723 305.138 185.275 304.574 181.755 301.221C178.256 297.89 184.055 294.792 177.331 293.995C175.242 293.746 171.709 293.66 167.844 293.655C147.722 302.633 142.8 293.147 137.534 299.328C132.741 304.346 133.235 306.524 127.372 307.415C121.543 308.301 123.082 306.588 119.669 311.74C116.26 316.887 116.784 317.546 111.492 318.204C106.231 318.859 107.765 316.483 103.209 320.731C98.8283 324.819 102.852 326.162 98.2093 325.435C105.805 341.35 115.443 336.324 117.506 344.518C132.341 342.271 132.977 341.157 147.55 337.511C162.879 333.677 169.645 335.196 179.743 331.348C189.935 327.466 203.248 319.577 212.813 318.389C222.477 317.189 230.52 318.519 223.899 327.978C220.121 333.38 214.915 340.726 210.806 346.838C216.506 343.769 222.704 340.507 229.174 336.212C244.219 326.218 236.563 326.162 243.931 314.533C246.463 310.978 244.697 306.115 241.804 304.518Z" fill="url(#paint58_linear_501_1695)"/>
<path d="M193.77 273.057C203.231 269.106 197.467 270.918 198.769 267.363C203.562 247.122 204.83 258.484 214.455 255.988C220.276 253.621 216.441 252.352 222.348 247.204C228.28 242.035 231.487 243.305 230.15 240.748C228.813 238.201 218.952 239.81 212.779 242.586C206.644 245.349 204.345 245.711 193.731 247.815C183.238 249.898 185.499 251.534 180.328 255.084C175.178 258.622 181.355 262.233 180.624 265.422C176.725 271.331 160.906 252.184 155.193 274.766C153.615 279.349 165.226 281.837 170.686 283.279C175.268 284.488 176.48 284.682 179.618 280.886C186.741 271.275 182.554 276.987 193.765 273.057H193.77Z" fill="url(#paint59_linear_501_1695)"/>
<path d="M117.506 344.518C115.95 337.06 104.614 339.564 99.6193 327.63C99.1077 326.877 98.7338 325.439 97.6634 325.344C93.7215 324.69 90.2782 323.335 88.5286 321.596C87.3508 322.216 85.7387 324.075 84.7285 325.547C90.2954 333.931 97.1131 341.402 105.126 347.686C108.93 346.162 113.324 345.034 117.502 344.518H117.506Z" fill="url(#paint60_linear_501_1695)"/>
<path d="M103.209 320.726C107.765 316.474 106.235 318.854 111.492 318.2C116.784 317.542 116.26 316.883 119.669 311.736C123.082 306.58 121.543 308.297 127.372 307.41C133.235 306.515 132.741 304.342 137.534 299.324C142.34 294.292 143.32 298.712 152.261 297.852C161.559 296.918 185.31 288.069 190.404 280.929C190.529 279.065 178.858 283.369 175.831 285.19C165.948 288.332 150.159 287.234 138.514 285.121C123.959 281.549 110.873 279.784 105.47 268.555C103.604 261.265 103.66 263.348 103.66 263.348C103.114 279.324 121.607 287.441 120.683 299.534C120.085 306.072 114.691 306.076 112.546 296.948C111.694 293.333 109.824 291.499 107.886 290.6C98.0889 309.988 105.762 315.274 97.6591 320.658C93.6699 323.748 91.9977 319.586 88.5372 321.596C90.304 323.408 94.2631 324.867 98.2136 325.435C102.861 326.162 98.8326 324.819 103.213 320.731L103.209 320.726Z" fill="url(#paint61_linear_501_1695)"/>
<path d="M88.5329 321.596C91.9977 319.586 93.6656 323.743 97.6548 320.658C105.741 315.325 98.1018 309.967 107.886 290.6C111.901 275.949 91.0563 280.227 99.8772 248.345C98.3641 253.539 92.4061 262.952 87.0756 269.167C80.202 277.658 79.8065 286.533 70.7362 294.137C73.7797 305.521 78.4739 316.117 84.7328 325.542C85.743 324.071 87.3551 322.211 88.5329 321.592V321.596Z" fill="url(#paint62_linear_501_1695)"/>
<path d="M210.801 346.842C214.911 340.731 220.121 333.384 223.895 327.983C230.515 318.519 222.472 317.189 212.809 318.394C203.244 319.582 189.931 327.466 179.739 331.353C169.641 335.2 162.875 333.681 147.546 337.516C132.934 341.217 130.742 342.659 115.86 344.768C112.098 345.319 108.475 346.386 105.126 347.694C125.093 363.717 154.467 371.417 182.873 367.793C192.394 358.699 198.812 352.691 210.797 346.846L210.801 346.842Z" fill="url(#paint63_linear_501_1695)"/>
<path d="M165.308 242.758C168.334 241.377 168.79 238.627 169.645 235.799C170.509 233.062 168.253 231.641 169.383 227.802C170.29 224.73 172.074 221.583 171.898 219.875C171.305 219.681 170.711 219.496 170.114 219.307C170.707 219.419 171.287 219.552 171.868 219.69C171.249 217.882 168.945 218.627 166.817 218.833C164.478 223.24 160.205 222.483 156.784 226.632C150.052 233.363 149.02 233.075 154.342 237.267C158.671 236.681 162.273 237.396 165.282 239.173C166.318 239.771 166.404 240.124 165.914 240.395C166.649 240.809 166.082 241.566 165.304 242.758H165.308Z" fill="url(#paint64_linear_501_1695)"/>
<path d="M151.045 248.289C146.866 246.541 146.381 243.701 145.083 243.929C143.784 244.161 140.345 245.681 138.892 242.814C137.444 239.961 135.711 241.704 132.741 243.456C129.779 245.203 124.969 244.794 123.421 242.035C123.421 242.035 124.204 247.26 129.229 249.02C134.288 250.798 132.625 248.452 135.621 249.997C136.18 250.286 136.932 250.544 137.805 250.768C137.753 248.861 137.663 246.963 137.629 245.039C138.003 246.92 138.183 248.878 138.256 250.875C144.932 252.136 152.408 252.868 157.252 248.336C155.034 248.891 152.747 248.99 151.045 248.28V248.289Z" fill="url(#paint65_linear_501_1695)"/>
<path d="M156.788 226.632C162.17 220.985 169.387 222.35 167.358 212.373C164.186 202.109 165.703 198.257 153.491 199.186C153.693 199.724 153.873 200.288 153.959 200.882C157.248 202.582 151.565 208.323 146.884 212.412C147.142 212.451 147.713 213.049 147.357 213.449C147.15 213.781 147.283 213.854 146.811 214.237C146.342 214.62 146.376 213.819 146.29 213.178C146.29 213.178 146.445 212.872 146.617 212.644C145.62 213.518 144.717 214.245 143.9 214.938C144.532 214.581 144.885 215.489 144.876 215.855C144.429 216.191 143.393 216.118 143.217 215.605C139.202 220.111 140.117 229.868 140.904 232.713C141.721 235.666 150.146 237.632 154.351 237.262C149.024 233.07 150.065 233.359 156.792 226.628L156.788 226.632ZM142.49 220.512C142.331 220.809 141.833 221.05 141.833 221.05L141.519 220.792C141.884 219.152 143.307 219.457 142.49 220.512ZM141.493 225.78C141.261 225.917 141.136 226.068 140.896 225.771C140.779 225.509 140.337 225.431 140.878 225.186C141.33 224.979 141.523 225.082 141.506 225.349C141.489 225.616 141.652 225.668 141.497 225.78H141.493ZM144.274 218.696C143.415 218.696 143.918 216.996 144.837 217.237C146.101 217.49 145.465 218.687 144.274 218.696ZM144.197 223.116C143.737 223.266 143.677 223.331 143.548 222.948C142.972 221.816 143.969 221.872 144.498 222.035C144.511 222.698 144.657 222.969 144.197 223.12V223.116ZM143.707 227.252C142.645 227.979 142.632 227.342 143.118 226.787C143.681 226.468 143.978 226.236 143.991 226.589C144.004 226.942 144.21 226.998 143.707 227.252ZM147.885 218.493C147.589 218.416 147.348 218.82 147.412 218.373C147.473 217.925 147.485 217.968 147.533 217.706C147.709 217.099 148.255 217.589 148.513 217.572C148.319 217.947 148.182 218.571 147.885 218.493ZM143.681 230.858C143.41 231.323 142.95 230.733 143.114 230.488C143.402 230.127 143.905 229.868 143.832 230.2C143.763 230.51 143.814 230.699 143.681 230.858ZM148.186 223.184C147.808 223.391 147.146 222.823 147.236 222.556C148.341 221.536 149.183 222.659 148.186 223.184ZM146.781 228.624C146.376 227.635 147.567 227.91 147.357 228.332C147.357 228.332 146.922 228.827 146.781 228.624ZM151.978 217.258C151.874 216.806 151.569 216.974 151.767 216.591C151.965 216.208 152.726 216.053 152.726 216.053C152.936 216.105 153.1 216.806 152.726 217.06C152.352 217.314 152.085 217.71 151.978 217.258ZM151.479 223.301C150.671 223.598 149.639 223.326 150.507 222.427C150.778 222.216 151.978 221.966 151.943 222.216C151.836 223.004 152.077 223.223 151.479 223.301ZM157.14 215.971C156.517 217.064 154.759 216.798 155.791 215.627C156.964 214.71 157.454 215.468 157.14 215.971Z" fill="url(#paint66_linear_501_1695)"/>
<path d="M123.421 242.035C124.969 244.794 129.783 245.203 132.741 243.456C135.707 241.704 137.444 239.956 138.892 242.814C140.345 245.681 143.784 244.161 145.083 243.929C146.381 243.697 146.866 246.541 151.045 248.289C154.909 249.937 163.451 247.312 165.308 242.763C166.082 241.57 166.649 240.817 165.918 240.4C156.809 242.737 145.095 244.454 137.633 238.14C133.467 234.968 127.823 241.764 122.256 239.04C122.562 240.12 122.944 241.192 123.421 242.035Z" fill="url(#paint67_linear_501_1695)"/>
<path d="M118.022 229.683C118.267 231.267 119.166 232.567 119.819 233.75C120.649 235.248 119.067 237.835 122.256 239.04C127.832 241.76 133.459 234.973 137.633 238.14C141.88 241.174 146.832 243.115 151.685 242.556C154.793 242.04 169.641 241.398 165.286 239.173C161.62 240.451 156.423 243.524 148.272 239.509C136.459 232.171 126.349 227.355 119.6 221.274C119.6 221.274 124.01 219.914 131.026 224.291C149.755 240.671 139.017 236.483 164.706 238.863C161.641 237.292 158.503 236.707 154.342 237.267C150.138 237.637 141.712 235.67 140.896 232.717C140.109 229.873 139.193 220.116 143.208 215.61C146.798 212.248 158.37 203.314 153.951 200.878C154.634 205.978 144.678 207.204 141.36 211.078C141.717 211.654 142.073 212.472 142.215 213.277C142.439 214.547 141.583 213.983 140.057 215.149C138.531 216.316 139.391 216.707 138.983 218.338C138.359 221.037 139.739 222.044 136.515 223.073C133.927 224.088 136.219 216.712 133.85 217.357C132.762 217.478 131.305 216.931 129.788 217.051C129.581 217.572 129.371 217.951 128.696 218.949C127.974 219.922 129.1 217.585 129.354 216.974C128.601 216.806 128.017 216.47 127.127 216.126C125.764 215.601 126.89 213.316 126.843 211.073C126.817 209.791 127.299 208.861 127.84 208.013C127.127 205.621 127.101 203.589 127.909 200.955C124.053 205.961 118.495 213.058 119.802 218.226C119.914 222.121 118.031 225.999 118.014 229.675L118.022 229.683Z" fill="url(#paint68_linear_501_1695)"/>
<path d="M134.533 214.082C133.545 214.069 132.646 213.815 131.838 213.38C131.12 214.172 130.11 215.988 129.792 217.051C131.318 216.927 132.771 217.478 133.854 217.357C134.972 217.129 134.839 217.783 135.024 219.388C135.213 220.994 134.933 223.697 136.519 223.073C138.11 222.449 138.441 222.358 138.708 221.39C138.978 220.417 138.583 219.969 138.987 218.338C139.391 216.711 138.536 216.316 140.062 215.149C141.588 213.983 142.443 214.547 142.22 213.277C142.078 212.472 141.721 211.654 141.364 211.078C139.198 212.7 136.979 214.103 134.533 214.078V214.082Z" fill="url(#paint69_linear_501_1695)"/>
<path d="M127.845 208.022C127.303 208.87 126.822 209.8 126.847 211.082C126.895 213.324 125.768 215.61 127.131 216.135C128.021 216.479 128.606 216.815 129.358 216.983C129.856 215.799 130.699 213.647 130.974 212.825C129.504 211.698 128.434 209.929 127.845 208.022Z" fill="url(#paint70_linear_501_1695)"/>
<path d="M244.989 312.928C236.456 324.682 244.654 326.184 229.17 336.212C216.377 345.022 202.049 349.657 191.552 359.68C189.299 361.905 186.226 364.755 182.873 367.785C201.344 365.633 220.022 359.401 237.711 349.605C240.26 340.632 249.915 316.56 256.187 300.081C252.559 303.537 248.351 308.017 244.985 312.924L244.989 312.928Z" fill="url(#paint71_linear_501_1695)"/>
<path d="M127.845 208.022C128.438 209.929 129.504 211.698 130.974 212.825C131.082 213.066 127.741 220.318 128.7 218.958C129.259 218.183 129.581 217.499 129.702 217.301C130.059 216.148 131.039 214.263 131.842 213.385C135.849 215.833 140.762 211.577 144.756 208.526C147.623 206.516 154.557 205.384 153.955 200.882C152.408 194.035 145.237 190.351 138.806 190.252C131.266 190.084 125.592 201.721 127.84 208.022L127.845 208.022Z" fill="url(#paint72_linear_501_1695)"/>
<path d="M213.419 191.383C211.945 191.112 207.238 195.425 203.536 196.763C199.723 198.769 193.099 197.633 190.15 195.864C188.065 196.66 186.462 193.712 187.408 190.544C187.885 188.943 189.884 186.477 192.583 184.403C190.89 184.308 191.517 183.903 189.647 185.238C187.782 186.567 187.928 184.859 185.581 187.286C183.087 189.873 185.426 189.782 186.058 191.078C186.892 201.971 209.069 201.162 213.419 191.388V191.383Z" fill="url(#paint73_linear_501_1695)"/>
<path d="M213.514 190.919C213.694 189.46 212.723 188.379 211.983 187.704C212.602 188.836 213.295 190.011 213.514 190.919Z" fill="#6D461C"/>
<path d="M196.555 191.956C196.551 190.174 197.308 188.702 198.361 187.51C196.482 186.473 202.294 183.279 203.395 183.099C197.514 181.579 185.426 190.058 190.15 195.855C193.099 197.624 199.723 198.76 203.536 196.755C200.48 197.809 196.573 197.714 196.555 191.952V191.956Z" fill="url(#paint74_linear_501_1695)"/>
<path d="M164.71 238.863C139.034 236.492 149.729 240.645 131.03 224.291C124.015 219.914 119.604 221.274 119.604 221.274C126.353 227.359 136.464 232.171 148.276 239.509C153.358 243.748 168.02 239.337 164.71 238.863Z" fill="url(#paint75_linear_501_1695)"/>
<path d="M159.806 176.234C157.931 176.776 155.202 176.522 154.097 173.57C150.783 175.365 152.885 167.652 155.111 165.173C149.459 168.384 148.681 182.246 159.801 176.238L159.806 176.234Z" fill="url(#paint76_linear_501_1695)"/>
<path d="M193.185 183.951C190.498 185.819 187.833 188.883 187.403 190.54C186.458 193.708 188.061 196.656 190.146 195.859C185.422 190.041 197.535 181.579 203.39 183.103C204.512 182.883 206.068 183.142 205.381 184.454C204.078 186.352 199.999 187.88 198.352 187.514C193.645 193.402 198.623 199.285 203.532 196.763C206.597 195.704 212.005 191.396 212.719 191.439C213.196 191.465 213.621 191.551 213.509 190.919C210.947 183.297 203.059 176.376 193.181 183.951L193.185 183.951Z" fill="url(#paint77_linear_501_1695)"/>
<path d="M160.283 163.533C162.471 163.133 161.805 167.497 160.687 167.136C159.573 166.778 157.841 168.095 156.375 169.696C155.141 171.048 155.137 172.916 154.097 173.57C156.612 180.486 168.21 173.815 165.531 165.414C164.242 160.874 157.656 161.14 154.944 165.444C156.788 163.71 159.655 163.645 160.278 163.529L160.283 163.533ZM164.702 165.991C166.383 166.047 165.2 169.937 163.545 169.795C161.869 169.735 163.051 165.853 164.702 165.991Z" fill="url(#paint78_linear_501_1695)"/>
<path d="M198.399 186.189C195.988 189.52 204.869 186.197 205.385 184.45C206.167 180.942 199.65 184.579 198.399 186.189Z" fill="#FFFCE3"/>
<path d="M163.545 169.795C165.2 169.937 166.387 166.047 164.702 165.991C163.047 165.853 161.865 169.735 163.545 169.795Z" fill="#FFFCE3"/>
<path d="M156.375 169.696C157.841 168.095 159.573 166.774 160.687 167.136C161.805 167.497 162.471 163.129 160.283 163.533C159.354 163.508 154.518 164.295 153.719 167.295C152.287 171.125 151.406 174.728 154.097 173.57C155.133 172.916 155.137 171.048 156.375 169.696Z" fill="url(#paint79_linear_501_1695)"/>
<path d="M235.123 282.087C234.259 279.332 246.506 272.941 248.385 270.329C250.263 267.712 239.332 276.987 231.5 281.062C223.719 285.108 214.61 287.669 214.61 287.669C211.902 288.504 210.818 291.198 212.456 291.344C214.094 291.491 214.06 291.4 213.755 292.812C213.449 294.223 210.904 294.473 210.432 295.751C209.963 297.03 213.028 294.516 215.397 295.218C220.602 295.988 193.146 310.178 206.782 306.063C218.767 302.87 223.164 299.844 232.703 290.238C240.217 282.978 238.231 286.576 235.123 282.095V282.087Z" fill="url(#paint80_linear_501_1695)"/>
<path d="M264.703 155.421C266.994 154.685 269.345 155.627 266.323 157.293C263.31 158.958 261.337 160.495 264.892 159.109C268.456 157.719 270.897 158.205 267.261 159.75C263.633 161.291 260.782 162.832 258.629 164.553C254.064 169.3 248.544 169.628 249.644 171.293C250.328 172.511 254.296 171.134 253.836 172.98C253.376 174.831 251.747 177.714 254.975 176.126C260.83 173.355 270.528 163.013 274.805 158.864C277.307 156.961 287.168 148.599 273.636 150.734C271.198 150.372 259.493 150.549 256.226 156.105C255.349 157.547 255.486 157.435 257.133 156.974C260 156.079 262.433 156.157 264.707 155.416L264.703 155.421Z" fill="url(#paint81_linear_501_1695)"/>
<path d="M205.402 120.276L201.039 128.302C201.039 128.302 198.924 128.793 196.74 128.952C197.11 130.093 198.778 132.645 199.1 132.834C199.414 133.101 210.827 131.861 210.827 131.861C203.588 128.109 207.362 119.669 208.097 113.411C207.233 116.639 205.402 120.276 205.402 120.276Z" fill="url(#paint82_linear_501_1695)"/>
<path d="M200.527 112.288C197.957 119.195 191.504 125.087 186.144 129.951C186.471 129.843 186.784 129.74 187.094 129.641C187.674 130.889 191.565 128.595 194.2 128.931C195.554 129.283 200.867 128.436 201.039 128.302C207.01 117.289 212.147 111.306 204.052 102.169C204.486 104.769 201.202 110.536 200.527 112.288Z" fill="url(#paint83_linear_501_1695)"/>
<path d="M260.933 175.39C259.476 178.296 258.47 179.367 260.421 180.228C262.382 181.089 265.201 179.668 263.538 181.231C261.874 182.789 262.033 182.944 260.112 182.771C258.195 182.599 256.896 180.099 256.007 182.642C254.386 187.411 255.994 187.768 259.523 188.711C263.237 189.623 261.496 188.384 263.757 185.341C268.236 179.113 275.776 172.472 278.85 166.202C277.083 166.959 271.181 169.546 268.941 170.617C265.335 172.317 262.39 172.49 260.933 175.395V175.39Z" fill="url(#paint84_linear_501_1695)"/>
<path d="M194.754 104.997C191.646 112.735 188.508 125.75 182.305 130.923C178.449 134.547 176.02 136.815 173.901 139.901C172.887 141.274 175.096 140.164 176.128 139.316C180.491 135.675 180.964 134.749 183.019 133.161C184.983 131.646 188.697 128.543 189.944 126.964C191.169 125.414 195.167 121.735 197.161 118.726C199.156 115.714 200.278 114.496 201.168 112.184C201.843 110.437 204.482 104.76 204.048 102.165C203.519 101.717 202.225 100.753 201.563 100.59C201.563 100.59 196.113 100.659 194.75 104.993L194.754 104.997Z" fill="url(#paint85_linear_501_1695)"/>
<path d="M145.078 169.925C148.741 167.433 150 163.822 147.829 163.516C145.663 163.206 143.673 164.287 140.964 166.21C138.26 168.13 138.527 167.179 136.567 168.758C134.611 170.333 134.546 170.488 133.828 171.164C133.39 171.521 131.683 173.716 131.481 173.992C130.566 175.464 125.695 179.884 130.549 177.818C135.423 175.739 136.481 172.946 139.417 171.758C142.525 170.734 142.31 171.986 145.083 169.925H145.078Z" fill="url(#paint86_linear_501_1695)"/>
<path d="M155.795 215.631C154.763 216.802 156.521 217.069 157.145 215.976C157.459 215.472 156.968 214.715 155.795 215.631Z" fill="url(#paint87_linear_501_1695)"/>
<path d="M152.73 216.053C152.73 216.053 151.969 216.208 151.771 216.591C151.574 216.974 151.879 216.806 151.982 217.258C152.085 217.71 152.356 217.314 152.73 217.06C153.104 216.806 152.941 216.105 152.73 216.053Z" fill="url(#paint88_linear_501_1695)"/>
<path d="M147.834 217.396C147.49 217.482 147.498 217.895 147.417 218.373C147.357 218.82 147.593 218.42 147.89 218.493C148.186 218.571 148.319 217.947 148.517 217.572L147.834 217.396Z" fill="url(#paint89_linear_501_1695)"/>
<path d="M150.512 222.431C149.643 223.335 150.675 223.602 151.483 223.305C152.081 223.227 151.84 223.008 151.948 222.22C151.982 221.966 150.783 222.22 150.512 222.431Z" fill="url(#paint90_linear_501_1695)"/>
<path d="M147.24 222.556C147.154 222.827 147.812 223.391 148.19 223.184C149.183 222.668 148.354 221.527 147.24 222.556Z" fill="url(#paint91_linear_501_1695)"/>
<path d="M143.462 222.078C143.281 222.35 143.419 222.565 143.548 222.948C143.681 223.331 143.737 223.271 144.197 223.116C144.657 222.965 144.511 222.694 144.498 222.031C144.498 222.031 143.642 221.807 143.458 222.078H143.462Z" fill="url(#paint92_linear_501_1695)"/>
<path d="M142.624 219.737C141.957 219.229 141.519 220.792 141.519 220.792L141.833 221.05C142.048 220.998 143.144 220.073 142.624 219.737Z" fill="url(#paint93_linear_501_1695)"/>
<path d="M145.517 218.046C145.753 216.858 143.475 217.03 143.875 218.399C144.012 219.031 145.194 218.601 145.517 218.046Z" fill="url(#paint94_linear_501_1695)"/>
<path d="M143.578 215.954C144.601 216.281 145.31 215.902 144.489 214.917C143.887 214.659 142.594 215.605 143.578 215.954Z" fill="url(#paint95_linear_501_1695)"/>
<path d="M146.806 214.237C147.275 213.854 147.142 213.781 147.352 213.449C147.709 213.049 147.137 212.451 146.879 212.412C146.682 212.416 146.286 213.169 146.286 213.178C146.372 213.815 146.338 214.62 146.806 214.237Z" fill="url(#paint96_linear_501_1695)"/>
<path d="M143.122 226.787C142.637 227.346 142.649 227.983 143.711 227.252C144.214 226.998 144.008 226.942 143.995 226.589C143.982 226.236 143.685 226.468 143.122 226.787Z" fill="url(#paint97_linear_501_1695)"/>
<path d="M146.914 227.936C146.914 227.936 146.497 228.224 146.785 228.629C147.206 228.775 147.804 227.962 146.914 227.936Z" fill="url(#paint98_linear_501_1695)"/>
<path d="M143.118 230.484C142.955 230.733 143.415 231.319 143.685 230.854C143.948 230.316 143.926 229.567 143.118 230.484Z" fill="url(#paint99_linear_501_1695)"/>
<path d="M140.874 225.186C140.337 225.431 140.775 225.508 140.891 225.771C141.007 226.034 141.334 225.887 141.334 225.887C141.601 225.732 141.549 225.728 141.497 225.349C141.515 225.082 141.321 224.979 140.87 225.186H140.874Z" fill="url(#paint100_linear_501_1695)"/>
<path d="M171.902 219.875C178.389 222.216 185.607 224.067 190.529 229.068C185.619 223.111 177.478 221.136 170.123 219.307C170.716 219.496 171.313 219.681 171.906 219.875H171.902Z" fill="url(#paint101_linear_501_1695)"/>
<path d="M113.663 221.011C114.342 220.288 115.017 219.552 115.662 218.786C112.709 221.377 109.906 224.192 107.297 227.196C109.515 225.28 111.613 223.176 113.659 221.015L113.663 221.011Z" fill="url(#paint102_linear_501_1695)"/>
<path d="M108.346 216.625C107.378 217.211 106.42 217.822 105.466 218.45C109.433 216.505 113.362 214.28 117.205 211.766C114.201 213.212 111.256 214.882 108.346 216.63V216.625Z" fill="url(#paint103_linear_501_1695)"/>
<path d="M117.91 192.636C118.8 192.941 119.681 193.264 120.576 193.557C113.831 190.523 106.91 187.785 99.9847 185.405C105.741 188.026 111.806 190.411 117.91 192.632V192.636Z" fill="url(#paint104_linear_501_1695)"/>
<path d="M116.002 198.295C109.558 198.442 103.101 198.907 96.636 199.686C102.981 199.548 109.438 199.083 116.002 198.295Z" fill="url(#paint105_linear_501_1695)"/>
<path d="M113.741 202.018C107.194 203.266 100.668 204.816 94.1814 206.666C100.638 205.44 107.164 203.89 113.741 202.018Z" fill="url(#paint106_linear_501_1695)"/>
<path d="M112.954 205.646C113.921 205.281 114.888 204.932 115.856 204.553C108.144 206.856 100.41 209.481 92.8445 212.347C99.4688 210.389 106.248 208.082 112.954 205.646Z" fill="url(#paint107_linear_501_1695)"/>
<path d="M106.618 212.106C108.049 211.478 109.481 210.824 110.912 210.14C105.13 212.236 99.4087 214.62 93.7645 217.288C98.0503 215.76 102.332 213.979 106.618 212.111V212.106Z" fill="url(#paint108_linear_501_1695)"/>
<path d="M126.559 185.599C127.097 186.899 127.673 188.173 128.257 189.442C126.486 183.994 124.444 178.756 122.14 173.742C123.438 177.792 124.947 181.717 126.559 185.599Z" fill="url(#paint109_linear_501_1695)"/>
<path d="M143.93 266.399C143.918 263.989 143.724 261.626 143.286 259.371C143.41 264.054 143.81 268.926 142.963 273.802C143.776 271.327 143.918 268.809 143.93 266.399Z" fill="url(#paint110_linear_501_1695)"/>
<path d="M115.206 242.72C113.465 245.001 112.047 247.531 110.873 250.114C112.748 247.51 114.188 244.432 116.066 241.85C115.731 242.061 115.469 242.41 115.206 242.724V242.72Z" fill="url(#paint111_linear_501_1695)"/>
<path d="M113.564 239.548C113.053 240.296 112.515 241.08 112.266 241.941C113.345 240.486 114.484 239.087 115.331 237.482C114.665 238.097 114.102 238.807 113.564 239.548Z" fill="url(#paint112_linear_501_1695)"/>
<path d="M137.629 245.044C137.659 249.274 138.149 253.393 137.641 257.757C138.772 253.354 138.278 249.029 137.629 245.044Z" fill="url(#paint113_linear_501_1695)"/>
<defs>
<linearGradient id="paint0_linear_501_1695" x1="198.661" y1="52.2212" x2="242.385" y2="349.374" gradientUnits="userSpaceOnUse">
<stop stop-color="#C7932E"/>
<stop offset="0.26" stop-color="#F3C427"/>
<stop offset="0.51" stop-color="#FDF8B8"/>
<stop offset="0.77" stop-color="#ECC231"/>
<stop offset="1" stop-color="#C8952E"/>
</linearGradient>
<linearGradient id="paint1_linear_501_1695" x1="226.762" y1="35.752" x2="218.697" y2="334.149" gradientUnits="userSpaceOnUse">
<stop stop-color="#C7932E"/>
<stop offset="0.26" stop-color="#F3C427"/>
<stop offset="0.51" stop-color="#FDF8B8"/>
<stop offset="0.77" stop-color="#ECC231"/>
<stop offset="1" stop-color="#C8952E"/>
</linearGradient>
<linearGradient id="paint2_linear_501_1695" x1="483.468" y1="79.2387" x2="-74.3361" y2="332.365" gradientUnits="userSpaceOnUse">
<stop stop-color="#C7932E"/>
<stop offset="0.26" stop-color="#F3C427"/>
<stop offset="0.51" stop-color="#FDF8B8"/>
<stop offset="0.77" stop-color="#ECC231"/>
<stop offset="1" stop-color="#C8952E"/>
</linearGradient>
<linearGradient id="paint3_linear_501_1695" x1="313.581" y1="5.79076" x2="116.166" y2="478.513" gradientUnits="userSpaceOnUse">
<stop stop-color="#FBF2A9"/>
<stop offset="0.51" stop-color="#FDF8B8"/>
<stop offset="1" stop-color="#FDF8B8"/>
</linearGradient>
<linearGradient id="paint4_linear_501_1695" x1="302.763" y1="9.81823" x2="84.1295" y2="510.106" gradientUnits="userSpaceOnUse">
<stop stop-color="#F3C427"/>
<stop offset="0.27" stop-color="#FBF2A9"/>
<stop offset="0.51" stop-color="#FDF8B8"/>
<stop offset="0.77" stop-color="#ECC231"/>
<stop offset="1" stop-color="#C8952E"/>
</linearGradient>
<linearGradient id="paint5_linear_501_1695" x1="304.149" y1="27.3839" x2="141.221" y2="417.688" gradientUnits="userSpaceOnUse">
<stop stop-color="#BA881F"/>
<stop offset="0.58" stop-color="#ECC231"/>
<stop offset="1" stop-color="#A87318"/>
</linearGradient>
<linearGradient id="paint6_linear_501_1695" x1="475.518" y1="64.108" x2="-30.8188" y2="332.562" gradientUnits="userSpaceOnUse">
<stop stop-color="#FBF2A9"/>
<stop offset="0.51" stop-color="#FDF8B8"/>
<stop offset="1" stop-color="#FDF8B8"/>
</linearGradient>
<linearGradient id="paint7_linear_501_1695" x1="475.522" y1="64.1113" x2="-30.8197" y2="332.584" gradientUnits="userSpaceOnUse">
<stop stop-color="#F3C427"/>
<stop offset="0.27" stop-color="#FBF2A9"/>
<stop offset="0.51" stop-color="#FDF8B8"/>
<stop offset="0.77" stop-color="#ECC231"/>
<stop offset="1" stop-color="#C8952E"/>
</linearGradient>
<linearGradient id="paint8_linear_501_1695" x1="416.542" y1="142.727" x2="-151.648" y2="333.609" gradientUnits="userSpaceOnUse">
<stop stop-color="white"/>
<stop offset="0.38" stop-color="#FDF8B8"/>
<stop offset="0.71" stop-color="#ECC231"/>
<stop offset="1" stop-color="#C8952E"/>
</linearGradient>
<linearGradient id="paint9_linear_501_1695" x1="428.899" y1="137.18" x2="-173.96" y2="339.788" gradientUnits="userSpaceOnUse">
<stop stop-color="white"/>
<stop offset="0.38" stop-color="#FDF8B8"/>
<stop offset="0.71" stop-color="#ECC231"/>
<stop offset="1" stop-color="#C8952E"/>
</linearGradient>
<linearGradient id="paint10_linear_501_1695" x1="443.44" y1="130.601" x2="-200.338" y2="347.013" gradientUnits="userSpaceOnUse">
<stop stop-color="white"/>
<stop offset="0.38" stop-color="#FDF8B8"/>
<stop offset="0.71" stop-color="#ECC231"/>
<stop offset="1" stop-color="#C8952E"/>
</linearGradient>
<linearGradient id="paint11_linear_501_1695" x1="461.382" y1="122.546" x2="-232.794" y2="355.968" gradientUnits="userSpaceOnUse">
<stop stop-color="white"/>
<stop offset="0.38" stop-color="#FDF8B8"/>
<stop offset="0.71" stop-color="#ECC231"/>
<stop offset="1" stop-color="#C8952E"/>
</linearGradient>
<linearGradient id="paint12_linear_501_1695" x1="483.677" y1="112.54" x2="-273.04" y2="367.079" gradientUnits="userSpaceOnUse">
<stop stop-color="white"/>
<stop offset="0.38" stop-color="#FDF8B8"/>
<stop offset="0.71" stop-color="#ECC231"/>
<stop offset="1" stop-color="#C8952E"/>
</linearGradient>
<linearGradient id="paint13_linear_501_1695" x1="510.888" y1="100.335" x2="-322.179" y2="380.633" gradientUnits="userSpaceOnUse">
<stop stop-color="white"/>
<stop offset="0.38" stop-color="#FDF8B8"/>
<stop offset="0.71" stop-color="#ECC231"/>
<stop offset="1" stop-color="#C8952E"/>
</linearGradient>
<linearGradient id="paint14_linear_501_1695" x1="544.48" y1="85.2422" x2="-382.903" y2="397.371" gradientUnits="userSpaceOnUse">
<stop stop-color="white"/>
<stop offset="0.38" stop-color="#FDF8B8"/>
<stop offset="0.71" stop-color="#ECC231"/>
<stop offset="1" stop-color="#C8952E"/>
</linearGradient>
<linearGradient id="paint15_linear_501_1695" x1="8.09694" y1="480.82" x2="346.36" y2="88.0993" gradientUnits="userSpaceOnUse">
<stop stop-color="#F3C427"/>
<stop offset="0.27" stop-color="#FBF2A9"/>
<stop offset="0.51" stop-color="#FDF8B8"/>
<stop offset="0.77" stop-color="#ECC231"/>
<stop offset="1" stop-color="#C8952E"/>
</linearGradient>
<linearGradient id="paint16_linear_501_1695" x1="77.6332" y1="-118.7" x2="814.631" y2="671.645" gradientUnits="userSpaceOnUse">
<stop offset="0.3" stop-color="#FDF8B8"/>
<stop offset="0.64" stop-color="#ECC231"/>
<stop offset="1" stop-color="#C8952E"/>
</linearGradient>
<linearGradient id="paint17_linear_501_1695" x1="-21.2517" y1="-275.265" x2="554.654" y2="233.207" gradientUnits="userSpaceOnUse">
<stop stop-color="#F3C427"/>
<stop offset="0.3" stop-color="#FDF8B8"/>
<stop offset="0.64" stop-color="#ECC231"/>
<stop offset="1" stop-color="#C8952E"/>
</linearGradient>
<linearGradient id="paint18_linear_501_1695" x1="-510.372" y1="620.46" x2="489.067" y2="163.652" gradientUnits="userSpaceOnUse">
<stop stop-color="#F3C427"/>
<stop offset="0.3" stop-color="#FDF8B8"/>
<stop offset="0.64" stop-color="#ECC231"/>
<stop offset="1" stop-color="#C8952E"/>
</linearGradient>
<linearGradient id="paint19_linear_501_1695" x1="-303.779" y1="-1350.23" x2="944.16" y2="1255.48" gradientUnits="userSpaceOnUse">
<stop stop-color="#F3C427"/>
<stop offset="0.3" stop-color="#FDF8B8"/>
<stop offset="0.64" stop-color="#ECC231"/>
<stop offset="1" stop-color="#C8952E"/>
</linearGradient>
<linearGradient id="paint20_linear_501_1695" x1="-861.416" y1="-3077.84" x2="1500.91" y2="1819.4" gradientUnits="userSpaceOnUse">
<stop stop-color="#F3C427"/>
<stop offset="0.3" stop-color="#FDF8B8"/>
<stop offset="0.64" stop-color="#ECC231"/>
<stop offset="1" stop-color="#C8952E"/>
</linearGradient>
<linearGradient id="paint21_linear_501_1695" x1="-889.536" y1="400.223" x2="481.928" y2="95.8215" gradientUnits="userSpaceOnUse">
<stop stop-color="#F3C427"/>
<stop offset="0.3" stop-color="#FDF8B8"/>
<stop offset="0.64" stop-color="#ECC231"/>
<stop offset="1" stop-color="#C8952E"/>
</linearGradient>
<linearGradient id="paint22_linear_501_1695" x1="-867.782" y1="340.657" x2="358.782" y2="-212.86" gradientUnits="userSpaceOnUse">
<stop stop-color="#F3C427"/>
<stop offset="0.3" stop-color="#FDF8B8"/>
<stop offset="0.64" stop-color="#ECC231"/>
<stop offset="1" stop-color="#C8952E"/>
</linearGradient>
<linearGradient id="paint23_linear_501_1695" x1="-353.973" y1="802.146" x2="654.662" y2="65.6539" gradientUnits="userSpaceOnUse">
<stop stop-color="#F3C427"/>
<stop offset="0.3" stop-color="#FDF8B8"/>
<stop offset="0.64" stop-color="#ECC231"/>
<stop offset="1" stop-color="#C8952E"/>
</linearGradient>
<linearGradient id="paint24_linear_501_1695" x1="-121.637" y1="-148.853" x2="63.8058" y2="295.578" gradientUnits="userSpaceOnUse">
<stop stop-color="#F3C427"/>
<stop offset="0.3" stop-color="#FDF8B8"/>
<stop offset="0.64" stop-color="#ECC231"/>
<stop offset="1" stop-color="#C8952E"/>
</linearGradient>
<linearGradient id="paint25_linear_501_1695" x1="42.4252" y1="-208.909" x2="402.361" y2="383.135" gradientUnits="userSpaceOnUse">
<stop stop-color="#F3C427"/>
<stop offset="0.3" stop-color="#FDF8B8"/>
<stop offset="0.64" stop-color="#ECC231"/>
<stop offset="1" stop-color="#C8952E"/>
</linearGradient>
<linearGradient id="paint26_linear_501_1695" x1="16.0276" y1="-26.9226" x2="307.957" y2="670.694" gradientUnits="userSpaceOnUse">
<stop stop-color="#F3C427"/>
<stop offset="0.3" stop-color="#FDF8B8"/>
<stop offset="0.64" stop-color="#ECC231"/>
<stop offset="1" stop-color="#C8952E"/>
</linearGradient>
<linearGradient id="paint27_linear_501_1695" x1="-401.269" y1="172.172" x2="668.67" y2="210.141" gradientUnits="userSpaceOnUse">
<stop stop-color="#F3C427"/>
<stop offset="0.3" stop-color="#FDF8B8"/>
<stop offset="0.64" stop-color="#ECC231"/>
<stop offset="1" stop-color="#C8952E"/>
</linearGradient>
<linearGradient id="paint28_linear_501_1695" x1="139.664" y1="-74.1561" x2="489.437" y2="321.14" gradientUnits="userSpaceOnUse">
<stop stop-color="#F3C427"/>
<stop offset="0.3" stop-color="#FDF8B8"/>
<stop offset="0.64" stop-color="#ECC231"/>
<stop offset="1" stop-color="#C8952E"/>
</linearGradient>
<linearGradient id="paint29_linear_501_1695" x1="44.5851" y1="552.695" x2="468.933" y2="318.639" gradientUnits="userSpaceOnUse">
<stop stop-color="#F3C427"/>
<stop offset="0.3" stop-color="#FDF8B8"/>
<stop offset="0.64" stop-color="#ECC231"/>
<stop offset="1" stop-color="#C8952E"/>
</linearGradient>
<linearGradient id="paint30_linear_501_1695" x1="-34.6152" y1="770.111" x2="874.682" y2="112.096" gradientUnits="userSpaceOnUse">
<stop stop-color="#F3C427"/>
<stop offset="0.3" stop-color="#FDF8B8"/>
<stop offset="0.64" stop-color="#ECC231"/>
<stop offset="1" stop-color="#C8952E"/>
</linearGradient>
<linearGradient id="paint31_linear_501_1695" x1="157.046" y1="32.6283" x2="480.058" y2="781.925" gradientUnits="userSpaceOnUse">
<stop stop-color="#F3C427"/>
<stop offset="0.3" stop-color="#FDF8B8"/>
<stop offset="0.64" stop-color="#ECC231"/>
<stop offset="1" stop-color="#C8952E"/>
</linearGradient>
<linearGradient id="paint32_linear_501_1695" x1="-243.352" y1="977.704" x2="1142.16" y2="17.0629" gradientUnits="userSpaceOnUse">
<stop stop-color="#F3C427"/>
<stop offset="0.3" stop-color="#FDF8B8"/>
<stop offset="0.64" stop-color="#ECC231"/>
<stop offset="1" stop-color="#C8952E"/>
</linearGradient>
<linearGradient id="paint33_linear_501_1695" x1="115.535" y1="412.217" x2="953.135" y2="-615.796" gradientUnits="userSpaceOnUse">
<stop stop-color="#F3C427"/>
<stop offset="0.3" stop-color="#FDF8B8"/>
<stop offset="0.64" stop-color="#ECC231"/>
<stop offset="1" stop-color="#C8952E"/>
</linearGradient>
<linearGradient id="paint34_linear_501_1695" x1="-1321.96" y1="-1029.66" x2="510.582" y2="2253.76" gradientUnits="userSpaceOnUse">
<stop offset="0.3" stop-color="#FDF8B8"/>
<stop offset="0.64" stop-color="#ECC231"/>
<stop offset="1" stop-color="#C8952E"/>
</linearGradient>
<linearGradient id="paint35_linear_501_1695" x1="-85.8337" y1="352.804" x2="193.739" y2="30.0968" gradientUnits="userSpaceOnUse">
<stop stop-color="#F3C427"/>
<stop offset="0.3" stop-color="#FDF8B8"/>
<stop offset="0.64" stop-color="#ECC231"/>
<stop offset="1" stop-color="#C8952E"/>
</linearGradient>
<linearGradient id="paint36_linear_501_1695" x1="-167.561" y1="653.975" x2="450.699" y2="-72.213" gradientUnits="userSpaceOnUse">
<stop stop-color="#F3C427"/>
<stop offset="0.3" stop-color="#FDF8B8"/>
<stop offset="0.64" stop-color="#ECC231"/>
<stop offset="1" stop-color="#C8952E"/>
</linearGradient>
<linearGradient id="paint37_linear_501_1695" x1="-430.529" y1="1157.42" x2="1002.26" y2="490.971" gradientUnits="userSpaceOnUse">
<stop stop-color="#F3C427"/>
<stop offset="0.3" stop-color="#FDF8B8"/>
<stop offset="0.64" stop-color="#ECC231"/>
<stop offset="1" stop-color="#C8952E"/>
</linearGradient>
<linearGradient id="paint38_linear_501_1695" x1="325.157" y1="616.817" x2="-20.9163" y2="-107.817" gradientUnits="userSpaceOnUse">
<stop stop-color="#F3C427"/>
<stop offset="0.3" stop-color="#FDF8B8"/>
<stop offset="0.64" stop-color="#ECC231"/>
<stop offset="1" stop-color="#C8952E"/>
</linearGradient>
<linearGradient id="paint39_linear_501_1695" x1="-126.559" y1="671.695" x2="727.228" y2="7.25603" gradientUnits="userSpaceOnUse">
<stop stop-color="#F3C427"/>
<stop offset="0.3" stop-color="#FDF8B8"/>
<stop offset="0.64" stop-color="#ECC231"/>
<stop offset="1" stop-color="#C8952E"/>
</linearGradient>
<linearGradient id="paint40_linear_501_1695" x1="-73.6902" y1="740.729" x2="1004.1" y2="-352.521" gradientUnits="userSpaceOnUse">
<stop stop-color="#F3C427"/>
<stop offset="0.3" stop-color="#FDF8B8"/>
<stop offset="0.64" stop-color="#ECC231"/>
<stop offset="1" stop-color="#C8952E"/>
</linearGradient>
<linearGradient id="paint41_linear_501_1695" x1="-131.355" y1="448.251" x2="624.177" y2="0.0114385" gradientUnits="userSpaceOnUse">
<stop stop-color="#F3C427"/>
<stop offset="0.3" stop-color="#FDF8B8"/>
<stop offset="0.64" stop-color="#ECC231"/>
<stop offset="1" stop-color="#C8952E"/>
</linearGradient>
<linearGradient id="paint42_linear_501_1695" x1="97.1183" y1="506.234" x2="937.742" y2="-428.685" gradientUnits="userSpaceOnUse">
<stop stop-color="#F3C427"/>
<stop offset="0.3" stop-color="#FDF8B8"/>
<stop offset="0.64" stop-color="#ECC231"/>
<stop offset="1" stop-color="#C8952E"/>
</linearGradient>
<linearGradient id="paint43_linear_501_1695" x1="-261.486" y1="-43.7203" x2="190.865" y2="827.528" gradientUnits="userSpaceOnUse">
<stop stop-color="#F3C427"/>
<stop offset="0.3" stop-color="#FDF8B8"/>
<stop offset="0.64" stop-color="#ECC231"/>
<stop offset="1" stop-color="#C8952E"/>
</linearGradient>
<linearGradient id="paint44_linear_501_1695" x1="265.104" y1="681.108" x2="-68.8998" y2="-49.5005" gradientUnits="userSpaceOnUse">
<stop stop-color="#F3C427"/>
<stop offset="0.3" stop-color="#FDF8B8"/>
<stop offset="0.64" stop-color="#ECC231"/>
<stop offset="1" stop-color="#C8952E"/>
</linearGradient>
<linearGradient id="paint45_linear_501_1695" x1="-341.181" y1="68.7464" x2="392.411" y2="374.869" gradientUnits="userSpaceOnUse">
<stop stop-color="#F3C427"/>
<stop offset="0.3" stop-color="#FDF8B8"/>
<stop offset="0.64" stop-color="#ECC231"/>
<stop offset="1" stop-color="#C8952E"/>
</linearGradient>
<linearGradient id="paint46_linear_501_1695" x1="-127.17" y1="-525.537" x2="1084.36" y2="135.435" gradientUnits="userSpaceOnUse">
<stop stop-color="#F3C427"/>
<stop offset="0.3" stop-color="#FDF8B8"/>
<stop offset="0.64" stop-color="#ECC231"/>
<stop offset="1" stop-color="#C8952E"/>
</linearGradient>
<linearGradient id="paint47_linear_501_1695" x1="11.7291" y1="603.879" x2="685.831" y2="-263.386" gradientUnits="userSpaceOnUse">
<stop stop-color="#F3C427"/>
<stop offset="0.3" stop-color="#FDF8B8"/>
<stop offset="0.64" stop-color="#ECC231"/>
<stop offset="1" stop-color="#C8952E"/>
</linearGradient>
<linearGradient id="paint48_linear_501_1695" x1="-157.916" y1="-166.057" x2="116.2" y2="434.897" gradientUnits="userSpaceOnUse">
<stop stop-color="#F3C427"/>
<stop offset="0.3" stop-color="#FDF8B8"/>
<stop offset="0.64" stop-color="#ECC231"/>
<stop offset="1" stop-color="#C8952E"/>
</linearGradient>
<linearGradient id="paint49_linear_501_1695" x1="306.993" y1="-523.507" x2="213.602" y2="596.273" gradientUnits="userSpaceOnUse">
<stop stop-color="#F3C427"/>
<stop offset="0.3" stop-color="#FDF8B8"/>
<stop offset="0.64" stop-color="#ECC231"/>
<stop offset="1" stop-color="#C8952E"/>
</linearGradient>
<linearGradient id="paint50_linear_501_1695" x1="-132.883" y1="-136.717" x2="408.934" y2="1573.19" gradientUnits="userSpaceOnUse">
<stop stop-color="#F3C427"/>
<stop offset="0.3" stop-color="#FDF8B8"/>
<stop offset="0.64" stop-color="#ECC231"/>
<stop offset="1" stop-color="#C8952E"/>
</linearGradient>
<linearGradient id="paint51_linear_501_1695" x1="-6.18228" y1="-350.558" x2="1445.52" y2="2202.28" gradientUnits="userSpaceOnUse">
<stop stop-color="#F3C427"/>
<stop offset="0.3" stop-color="#FDF8B8"/>
<stop offset="0.64" stop-color="#ECC231"/>
<stop offset="1" stop-color="#C8952E"/>
</linearGradient>
<linearGradient id="paint52_linear_501_1695" x1="-1015.15" y1="-1514.15" x2="938.895" y2="3777.26" gradientUnits="userSpaceOnUse">
<stop stop-color="#F3C427"/>
<stop offset="0.3" stop-color="#FDF8B8"/>
<stop offset="0.64" stop-color="#ECC231"/>
<stop offset="1" stop-color="#C8952E"/>
</linearGradient>
<linearGradient id="paint53_linear_501_1695" x1="441.172" y1="-93.1004" x2="181.633" y2="770.923" gradientUnits="userSpaceOnUse">
<stop stop-color="#F3C427"/>
<stop offset="0.3" stop-color="#FDF8B8"/>
<stop offset="0.64" stop-color="#ECC231"/>
<stop offset="1" stop-color="#C8952E"/>
</linearGradient>
<linearGradient id="paint54_linear_501_1695" x1="540.012" y1="-287.278" x2="-174.889" y2="602.652" gradientUnits="userSpaceOnUse">
<stop stop-color="#F3C427"/>
<stop offset="0.3" stop-color="#FDF8B8"/>
<stop offset="0.64" stop-color="#ECC231"/>
<stop offset="1" stop-color="#C8952E"/>
</linearGradient>
<linearGradient id="paint55_linear_501_1695" x1="261.42" y1="204.592" x2="-257.366" y2="697.169" gradientUnits="userSpaceOnUse">
<stop stop-color="#F3C427"/>
<stop offset="0.3" stop-color="#FDF8B8"/>
<stop offset="0.64" stop-color="#ECC231"/>
<stop offset="1" stop-color="#C8952E"/>
</linearGradient>
<linearGradient id="paint56_linear_501_1695" x1="213.89" y1="1128.77" x2="215.255" y2="-99.2726" gradientUnits="userSpaceOnUse">
<stop stop-color="#F3C427"/>
<stop offset="0.3" stop-color="#FDF8B8"/>
<stop offset="0.64" stop-color="#ECC231"/>
<stop offset="1" stop-color="#C8952E"/>
</linearGradient>
<linearGradient id="paint57_linear_501_1695" x1="903.063" y1="-545.91" x2="677.703" y2="747.288" gradientUnits="userSpaceOnUse">
<stop stop-color="#F3C427"/>
<stop offset="0.3" stop-color="#FDF8B8"/>
<stop offset="0.64" stop-color="#ECC231"/>
<stop offset="1" stop-color="#C8952E"/>
</linearGradient>
<linearGradient id="paint58_linear_501_1695" x1="147.815" y1="-882.576" x2="821.236" y2="327.854" gradientUnits="userSpaceOnUse">
<stop stop-color="#F3C427"/>
<stop offset="0.3" stop-color="#FDF8B8"/>
<stop offset="0.64" stop-color="#ECC231"/>
<stop offset="1" stop-color="#C8952E"/>
</linearGradient>
<linearGradient id="paint59_linear_501_1695" x1="811.59" y1="-1055.92" x2="-730.949" y2="-126.699" gradientUnits="userSpaceOnUse">
<stop stop-color="#F3C427"/>
<stop offset="0.3" stop-color="#FDF8B8"/>
<stop offset="0.64" stop-color="#ECC231"/>
<stop offset="1" stop-color="#C8952E"/>
</linearGradient>
<linearGradient id="paint60_linear_501_1695" x1="757.746" y1="-1536.32" x2="-620.483" y2="845.152" gradientUnits="userSpaceOnUse">
<stop stop-color="#F3C427"/>
<stop offset="0.3" stop-color="#FDF8B8"/>
<stop offset="0.64" stop-color="#ECC231"/>
<stop offset="1" stop-color="#C8952E"/>
</linearGradient>
<linearGradient id="paint61_linear_501_1695" x1="276.302" y1="-247.446" x2="130.19" y2="147.812" gradientUnits="userSpaceOnUse">
<stop stop-color="#F3C427"/>
<stop offset="0.3" stop-color="#FDF8B8"/>
<stop offset="0.64" stop-color="#ECC231"/>
<stop offset="1" stop-color="#C8952E"/>
</linearGradient>
<linearGradient id="paint62_linear_501_1695" x1="-66.0751" y1="-226.623" x2="66.0811" y2="508.195" gradientUnits="userSpaceOnUse">
<stop stop-color="#F3C427"/>
<stop offset="0.3" stop-color="#FDF8B8"/>
<stop offset="0.64" stop-color="#ECC231"/>
<stop offset="1" stop-color="#C8952E"/>
</linearGradient>
<linearGradient id="paint63_linear_501_1695" x1="195.449" y1="-1240.37" x2="386.661" y2="819.226" gradientUnits="userSpaceOnUse">
<stop stop-color="#F3C427"/>
<stop offset="0.3" stop-color="#FDF8B8"/>
<stop offset="0.64" stop-color="#ECC231"/>
<stop offset="1" stop-color="#C8952E"/>
</linearGradient>
<linearGradient id="paint64_linear_501_1695" x1="52.1635" y1="-479.357" x2="321.978" y2="710.421" gradientUnits="userSpaceOnUse">
<stop stop-color="#F3C427"/>
<stop offset="0.3" stop-color="#FDF8B8"/>
<stop offset="0.64" stop-color="#ECC231"/>
<stop offset="1" stop-color="#C8952E"/>
</linearGradient>
<linearGradient id="paint65_linear_501_1695" x1="277.505" y1="-1399.49" x2="-676.081" y2="513.583" gradientUnits="userSpaceOnUse">
<stop stop-color="#F3C427"/>
<stop offset="0.3" stop-color="#FDF8B8"/>
<stop offset="0.64" stop-color="#ECC231"/>
<stop offset="1" stop-color="#C8952E"/>
</linearGradient>
<linearGradient id="paint66_linear_501_1695" x1="-165" y1="-227.415" x2="201.161" y2="524.219" gradientUnits="userSpaceOnUse">
<stop stop-color="#F3C427"/>
<stop offset="0.3" stop-color="#FDF8B8"/>
<stop offset="0.64" stop-color="#ECC231"/>
<stop offset="1" stop-color="#C8952E"/>
</linearGradient>
<linearGradient id="paint67_linear_501_1695" x1="331.482" y1="-1745.69" x2="-660.192" y2="-848.871" gradientUnits="userSpaceOnUse">
<stop stop-color="#F3C427"/>
<stop offset="0.3" stop-color="#FDF8B8"/>
<stop offset="0.64" stop-color="#ECC231"/>
<stop offset="1" stop-color="#C8952E"/>
</linearGradient>
<linearGradient id="paint68_linear_501_1695" x1="19.5401" y1="142.006" x2="475.157" y2="272.128" gradientUnits="userSpaceOnUse">
<stop stop-color="#BA881F"/>
<stop offset="0.58" stop-color="#ECC231"/>
<stop offset="1" stop-color="#A87318"/>
</linearGradient>
<linearGradient id="paint69_linear_501_1695" x1="175.123" y1="742.869" x2="253.557" y2="-177.925" gradientUnits="userSpaceOnUse">
<stop stop-color="#BA881F"/>
<stop offset="0.58" stop-color="#ECC231"/>
<stop offset="1" stop-color="#A87318"/>
</linearGradient>
<linearGradient id="paint70_linear_501_1695" x1="98.1911" y1="1133.9" x2="145.619" y2="-3.34952" gradientUnits="userSpaceOnUse">
<stop stop-color="#BA881F"/>
<stop offset="0.58" stop-color="#ECC231"/>
<stop offset="1" stop-color="#A87318"/>
</linearGradient>
<linearGradient id="paint71_linear_501_1695" x1="-409.085" y1="-653.077" x2="376.985" y2="142.811" gradientUnits="userSpaceOnUse">
<stop stop-color="#F3C427"/>
<stop offset="0.3" stop-color="#FDF8B8"/>
<stop offset="0.64" stop-color="#ECC231"/>
<stop offset="1" stop-color="#C8952E"/>
</linearGradient>
<linearGradient id="paint72_linear_501_1695" x1="1503.36" y1="-1029.86" x2="839.535" y2="-427.424" gradientUnits="userSpaceOnUse">
<stop stop-color="#BA881F"/>
<stop offset="0.58" stop-color="#ECC231"/>
<stop offset="1" stop-color="#A87318"/>
</linearGradient>
<linearGradient id="paint73_linear_501_1695" x1="456.107" y1="-686.64" x2="-176.32" y2="-194.755" gradientUnits="userSpaceOnUse">
<stop stop-color="#BA881F"/>
<stop offset="0.58" stop-color="#ECC231"/>
<stop offset="1" stop-color="#A87318"/>
</linearGradient>
<linearGradient id="paint74_linear_501_1695" x1="55.0585" y1="610.172" x2="910.653" y2="-630.583" gradientUnits="userSpaceOnUse">
<stop stop-color="#F3C427"/>
<stop offset="0.3" stop-color="#FDF8B8"/>
<stop offset="0.64" stop-color="#ECC231"/>
<stop offset="1" stop-color="#C8952E"/>
</linearGradient>
<linearGradient id="paint75_linear_501_1695" x1="935.634" y1="-1417.67" x2="422.029" y2="-1226.52" gradientUnits="userSpaceOnUse">
<stop stop-color="#BA881F"/>
<stop offset="0.58" stop-color="#ECC231"/>
<stop offset="1" stop-color="#A87318"/>
</linearGradient>
<linearGradient id="paint76_linear_501_1695" x1="-48.3762" y1="540.156" x2="861.946" y2="-971.153" gradientUnits="userSpaceOnUse">
<stop stop-color="#BA881F"/>
<stop offset="0.58" stop-color="#ECC231"/>
<stop offset="1" stop-color="#A87318"/>
</linearGradient>
<linearGradient id="paint77_linear_501_1695" x1="933.51" y1="-872.432" x2="-61.0032" y2="-345.965" gradientUnits="userSpaceOnUse">
<stop stop-color="#BA881F"/>
<stop offset="0.58" stop-color="#ECC231"/>
<stop offset="1" stop-color="#A87318"/>
</linearGradient>
<linearGradient id="paint78_linear_501_1695" x1="2241.78" y1="-1463.5" x2="871.956" y2="-73.6959" gradientUnits="userSpaceOnUse">
<stop stop-color="#BA881F"/>
<stop offset="0.58" stop-color="#ECC231"/>
<stop offset="1" stop-color="#A87318"/>
</linearGradient>
<linearGradient id="paint79_linear_501_1695" x1="-454.775" y1="783.016" x2="1203.61" y2="-746.567" gradientUnits="userSpaceOnUse">
<stop stop-color="#F3C427"/>
<stop offset="0.3" stop-color="#FDF8B8"/>
<stop offset="0.64" stop-color="#ECC231"/>
<stop offset="1" stop-color="#C8952E"/>
</linearGradient>
<linearGradient id="paint80_linear_501_1695" x1="-510.986" y1="-944.691" x2="785.287" y2="205.167" gradientUnits="userSpaceOnUse">
<stop stop-color="#F3C427"/>
<stop offset="0.3" stop-color="#FDF8B8"/>
<stop offset="0.64" stop-color="#ECC231"/>
<stop offset="1" stop-color="#C8952E"/>
</linearGradient>
<linearGradient id="paint81_linear_501_1695" x1="392.166" y1="-442.886" x2="217.083" y2="-68.7286" gradientUnits="userSpaceOnUse">
<stop stop-color="#BA881F"/>
<stop offset="0.58" stop-color="#ECC231"/>
<stop offset="1" stop-color="#A87318"/>
</linearGradient>
<linearGradient id="paint82_linear_501_1695" x1="-662.59" y1="290.248" x2="991.298" y2="125.267" gradientUnits="userSpaceOnUse">
<stop stop-color="#F3C427"/>
<stop offset="0.3" stop-color="#FDF8B8"/>
<stop offset="0.64" stop-color="#ECC231"/>
<stop offset="1" stop-color="#C8952E"/>
</linearGradient>
<linearGradient id="paint83_linear_501_1695" x1="-15.5385" y1="26.8811" x2="430.479" y2="671.905" gradientUnits="userSpaceOnUse">
<stop stop-color="#F3C427"/>
<stop offset="0.3" stop-color="#FDF8B8"/>
<stop offset="0.64" stop-color="#ECC231"/>
<stop offset="1" stop-color="#C8952E"/>
</linearGradient>
<linearGradient id="paint84_linear_501_1695" x1="-425.481" y1="400.861" x2="315.556" y2="261.324" gradientUnits="userSpaceOnUse">
<stop stop-color="#F3C427"/>
<stop offset="0.3" stop-color="#FDF8B8"/>
<stop offset="0.64" stop-color="#ECC231"/>
<stop offset="1" stop-color="#C8952E"/>
</linearGradient>
<linearGradient id="paint85_linear_501_1695" x1="110.265" y1="-221.091" x2="265.932" y2="779.328" gradientUnits="userSpaceOnUse">
<stop stop-color="#F3C427"/>
<stop offset="0.3" stop-color="#FDF8B8"/>
<stop offset="0.64" stop-color="#ECC231"/>
<stop offset="1" stop-color="#C8952E"/>
</linearGradient>
<linearGradient id="paint86_linear_501_1695" x1="137.326" y1="1080.45" x2="621.334" y2="-1229.05" gradientUnits="userSpaceOnUse">
<stop stop-color="#F3C427"/>
<stop offset="0.3" stop-color="#FDF8B8"/>
<stop offset="0.64" stop-color="#ECC231"/>
<stop offset="1" stop-color="#C8952E"/>
</linearGradient>
<linearGradient id="paint87_linear_501_1695" x1="607.483" y1="-3402.09" x2="-402.978" y2="1957.97" gradientUnits="userSpaceOnUse">
<stop stop-color="#BA881F"/>
<stop offset="0.58" stop-color="#ECC231"/>
<stop offset="1" stop-color="#A87318"/>
</linearGradient>
<linearGradient id="paint88_linear_501_1695" x1="797.934" y1="-3775.17" x2="29.7388" y2="1762.71" gradientUnits="userSpaceOnUse">
<stop stop-color="#BA881F"/>
<stop offset="0.58" stop-color="#ECC231"/>
<stop offset="1" stop-color="#A87318"/>
</linearGradient>
<linearGradient id="paint89_linear_501_1695" x1="933.707" y1="-4939.08" x2="-6.98441" y2="1496.05" gradientUnits="userSpaceOnUse">
<stop stop-color="#BA881F"/>
<stop offset="0.58" stop-color="#ECC231"/>
<stop offset="1" stop-color="#A87318"/>
</linearGradient>
<linearGradient id="paint90_linear_501_1695" x1="873.85" y1="-6601.63" x2="-416.85" y2="-517.792" gradientUnits="userSpaceOnUse">
<stop stop-color="#BA881F"/>
<stop offset="0.58" stop-color="#ECC231"/>
<stop offset="1" stop-color="#A87318"/>
</linearGradient>
<linearGradient id="paint91_linear_501_1695" x1="980.468" y1="-7401.27" x2="-399.866" y2="-574.043" gradientUnits="userSpaceOnUse">
<stop stop-color="#BA881F"/>
<stop offset="0.58" stop-color="#ECC231"/>
<stop offset="1" stop-color="#A87318"/>
</linearGradient>
<linearGradient id="paint92_linear_501_1695" x1="1143.63" y1="-6193.43" x2="318.939" y2="-319.322" gradientUnits="userSpaceOnUse">
<stop stop-color="#BA881F"/>
<stop offset="0.58" stop-color="#ECC231"/>
<stop offset="1" stop-color="#A87318"/>
</linearGradient>
<linearGradient id="paint93_linear_501_1695" x1="989.297" y1="-4998.12" x2="234.639" y2="467.87" gradientUnits="userSpaceOnUse">
<stop stop-color="#BA881F"/>
<stop offset="0.58" stop-color="#ECC231"/>
<stop offset="1" stop-color="#A87318"/>
</linearGradient>
<linearGradient id="paint94_linear_501_1695" x1="690.065" y1="-4058.39" x2="-273.115" y2="1184.82" gradientUnits="userSpaceOnUse">
<stop stop-color="#BA881F"/>
<stop offset="0.58" stop-color="#ECC231"/>
<stop offset="1" stop-color="#A87318"/>
</linearGradient>
<linearGradient id="paint95_linear_501_1695" x1="609.747" y1="-3883.39" x2="-701.149" y2="2252.02" gradientUnits="userSpaceOnUse">
<stop stop-color="#BA881F"/>
<stop offset="0.58" stop-color="#ECC231"/>
<stop offset="1" stop-color="#A87318"/>
</linearGradient>
<linearGradient id="paint96_linear_501_1695" x1="628.928" y1="-1792" x2="249.706" y2="2151.42" gradientUnits="userSpaceOnUse">
<stop stop-color="#BA881F"/>
<stop offset="0.58" stop-color="#ECC231"/>
<stop offset="1" stop-color="#A87318"/>
</linearGradient>
<linearGradient id="paint97_linear_501_1695" x1="1387.13" y1="-9221.65" x2="251.345" y2="-2359.03" gradientUnits="userSpaceOnUse">
<stop stop-color="#BA881F"/>
<stop offset="0.58" stop-color="#ECC231"/>
<stop offset="1" stop-color="#A87318"/>
</linearGradient>
<linearGradient id="paint98_linear_501_1695" x1="2268.76" y1="-15159.4" x2="640.792" y2="-4508.03" gradientUnits="userSpaceOnUse">
<stop stop-color="#BA881F"/>
<stop offset="0.58" stop-color="#ECC231"/>
<stop offset="1" stop-color="#A87318"/>
</linearGradient>
<linearGradient id="paint99_linear_501_1695" x1="2318.66" y1="-12258.7" x2="1362.55" y2="-4345.06" gradientUnits="userSpaceOnUse">
<stop stop-color="#BA881F"/>
<stop offset="0.58" stop-color="#ECC231"/>
<stop offset="1" stop-color="#A87318"/>
</linearGradient>
<linearGradient id="paint100_linear_501_1695" x1="1578.8" y1="-11171.5" x2="72.75" y2="-2341.85" gradientUnits="userSpaceOnUse">
<stop stop-color="#BA881F"/>
<stop offset="0.58" stop-color="#ECC231"/>
<stop offset="1" stop-color="#A87318"/>
</linearGradient>
<linearGradient id="paint101_linear_501_1695" x1="-5.34901" y1="38.1288" x2="483.129" y2="114.913" gradientUnits="userSpaceOnUse">
<stop stop-color="#BA881F"/>
<stop offset="0.58" stop-color="#ECC231"/>
<stop offset="1" stop-color="#A87318"/>
</linearGradient>
<linearGradient id="paint102_linear_501_1695" x1="92.3133" y1="188.264" x2="338.306" y2="269.53" gradientUnits="userSpaceOnUse">
<stop stop-color="#BA881F"/>
<stop offset="0.58" stop-color="#ECC231"/>
<stop offset="1" stop-color="#A87318"/>
</linearGradient>
<linearGradient id="paint103_linear_501_1695" x1="63.0741" y1="131.921" x2="391.232" y2="193.316" gradientUnits="userSpaceOnUse">
<stop stop-color="#BA881F"/>
<stop offset="0.58" stop-color="#ECC231"/>
<stop offset="1" stop-color="#A87318"/>
</linearGradient>
<linearGradient id="paint104_linear_501_1695" x1="-2.08491" y1="21.1358" x2="477.515" y2="83.5273" gradientUnits="userSpaceOnUse">
<stop stop-color="#BA881F"/>
<stop offset="0.58" stop-color="#ECC231"/>
<stop offset="1" stop-color="#A87318"/>
</linearGradient>
<linearGradient id="paint105_linear_501_1695" x1="29.5866" y1="-768.241" x2="445.381" y2="-758.433" gradientUnits="userSpaceOnUse">
<stop stop-color="#BA881F"/>
<stop offset="0.58" stop-color="#ECC231"/>
<stop offset="1" stop-color="#A87318"/>
</linearGradient>
<linearGradient id="paint106_linear_501_1695" x1="40.9522" y1="-49.8246" x2="429.152" y2="-19.5088" gradientUnits="userSpaceOnUse">
<stop stop-color="#BA881F"/>
<stop offset="0.58" stop-color="#ECC231"/>
<stop offset="1" stop-color="#A87318"/>
</linearGradient>
<linearGradient id="paint107_linear_501_1695" x1="47.9028" y1="42.4175" x2="418.357" y2="83.6517" gradientUnits="userSpaceOnUse">
<stop stop-color="#BA881F"/>
<stop offset="0.58" stop-color="#ECC231"/>
<stop offset="1" stop-color="#A87318"/>
</linearGradient>
<linearGradient id="paint108_linear_501_1695" x1="52.9988" y1="83.9873" x2="409.44" y2="132.818" gradientUnits="userSpaceOnUse">
<stop stop-color="#BA881F"/>
<stop offset="0.58" stop-color="#ECC231"/>
<stop offset="1" stop-color="#A87318"/>
</linearGradient>
<linearGradient id="paint109_linear_501_1695" x1="-150.805" y1="178.999" x2="328.842" y2="583.55" gradientUnits="userSpaceOnUse">
<stop stop-color="#BA881F"/>
<stop offset="0.58" stop-color="#ECC231"/>
<stop offset="1" stop-color="#A87318"/>
</linearGradient>
<linearGradient id="paint110_linear_501_1695" x1="-892.673" y1="209.937" x2="-806.885" y2="630.545" gradientUnits="userSpaceOnUse">
<stop stop-color="#BA881F"/>
<stop offset="0.58" stop-color="#ECC231"/>
<stop offset="1" stop-color="#A87318"/>
</linearGradient>
<linearGradient id="paint111_linear_501_1695" x1="131.31" y1="215.652" x2="274.973" y2="290.776" gradientUnits="userSpaceOnUse">
<stop stop-color="#BA881F"/>
<stop offset="0.58" stop-color="#ECC231"/>
<stop offset="1" stop-color="#A87318"/>
</linearGradient>
<linearGradient id="paint112_linear_501_1695" x1="119.444" y1="212.343" x2="286.263" y2="292.09" gradientUnits="userSpaceOnUse">
<stop stop-color="#BA881F"/>
<stop offset="0.58" stop-color="#ECC231"/>
<stop offset="1" stop-color="#A87318"/>
</linearGradient>
<linearGradient id="paint113_linear_501_1695" x1="135.576" y1="250.701" x2="139.63" y2="252.158" gradientUnits="userSpaceOnUse">
<stop stop-color="#BA881F"/>
<stop offset="0.58" stop-color="#ECC231"/>
<stop offset="1" stop-color="#A87318"/>
</linearGradient>
</defs>
</svg>
