<svg width="25" height="26" viewBox="0 0 25 26" fill="none" xmlns="http://www.w3.org/2000/svg">
<path d="M12.2224 25.0707C18.9727 25.0707 24.4449 19.5986 24.4449 12.8483C24.4449 6.09802 18.9727 0.625854 12.2224 0.625854C5.47217 0.625854 0 6.09802 0 12.8483C0 19.5986 5.47217 25.0707 12.2224 25.0707Z" fill="#988430"/>
<path d="M12.2225 24.6792C18.7565 24.6792 24.0534 19.3823 24.0534 12.8483C24.0534 6.31421 18.7565 1.01733 12.2225 1.01733C5.68847 1.01733 0.391583 6.31421 0.391583 12.8483C0.391583 19.3823 5.68847 24.6792 12.2225 24.6792Z" fill="#7A6A2A"/>
<path d="M12.2224 24.4299C18.6188 24.4299 23.8041 19.2447 23.8041 12.8483C23.8041 6.45191 18.6188 1.26663 12.2224 1.26663C5.82606 1.26663 0.640772 6.45191 0.640772 12.8483C0.640772 19.2447 5.82606 24.4299 12.2224 24.4299Z" fill="#BA9F33"/>
<path fill-rule="evenodd" clip-rule="evenodd" d="M5.34376 11.543C5.27453 11.4797 5.20139 11.4164 5.13412 11.3531C5.06685 11.2899 4.99775 11.2265 4.92852 11.1633L4.7228 10.9678C4.68916 10.9341 4.65357 10.9045 4.61993 10.8708C4.5863 10.8412 4.54679 10.8075 4.51316 10.7778C4.24016 10.5188 3.96559 10.2597 3.69637 10.0005C3.97524 10.2557 4.24824 10.509 4.52711 10.7679L4.62397 10.8649C4.65761 10.8984 4.6932 10.9281 4.72684 10.9618L4.93244 11.1516C5.00166 11.2148 5.06894 11.2782 5.13816 11.3471C5.20739 11.4161 5.27453 11.4799 5.34376 11.543ZM1.72058 11.5038C1.72058 11.5038 2.71336 11.6066 3.19796 11.6758C3.64683 11.7392 5.05107 11.9547 5.05107 11.9547L1.72058 11.5038ZM1.72058 11.5038C1.99944 11.5276 2.27831 11.5572 2.55718 11.5869C2.69954 11.6007 2.83604 11.6165 2.97254 11.6303L3.18205 11.6542C3.25128 11.6639 3.31855 11.6739 3.38778 11.6838L4.21851 11.8162L4.63375 11.8855C4.77025 11.9092 4.90675 11.935 5.04912 11.9587C4.91262 11.9449 4.77025 11.9251 4.63375 11.9053L4.21851 11.8459L3.38778 11.7234C3.31855 11.7135 3.25128 11.6995 3.18205 11.6898L2.97241 11.6656C2.83591 11.6518 2.69355 11.632 2.55705 11.6161C2.27818 11.5826 1.99944 11.5473 1.72058 11.5038ZM4.95225 12.2133C4.95225 12.2133 3.89219 12.4824 3.53419 12.5853C3.18218 12.6822 2.11613 13.0065 2.11613 13.0065L4.95225 12.2133Z" fill="#CFB66C"/>
<path fill-rule="evenodd" clip-rule="evenodd" d="M4.95225 12.2133C4.71693 12.2826 4.48289 12.3499 4.24418 12.4132L3.53613 12.6031C3.3008 12.6723 3.06678 12.7396 2.83211 12.8088L2.48011 12.9057C2.36342 12.9393 2.24478 12.9689 2.12419 13.0027C2.24074 12.9635 2.35951 12.9235 2.4762 12.8899L2.8282 12.7772C3.06352 12.704 3.29754 12.6347 3.53221 12.5616C3.77145 12.5023 4.0069 12.4389 4.24613 12.3816C4.4735 12.3242 4.71289 12.2668 4.95225 12.2133ZM2.2646 13.6592C2.38115 13.6157 3.72608 12.9888 4.03858 12.8424C4.19503 12.7692 4.64977 12.6078 4.64977 12.6078L2.2646 13.6592Z" fill="#CFB66C"/>
<path fill-rule="evenodd" clip-rule="evenodd" d="M2.2646 13.6592C2.36733 13.6201 2.46445 13.5723 2.56328 13.5268L2.85596 13.3903L3.44342 13.1075C3.63898 13.0146 3.82907 12.9119 4.03075 12.8246C4.13362 12.7812 4.23648 12.7456 4.33921 12.712L4.49566 12.6625C4.54898 12.6487 4.59852 12.6328 4.65211 12.619C4.45655 12.712 4.25069 12.7911 4.05487 12.882C3.85931 12.979 3.65932 13.0581 3.4575 13.1451L2.86027 13.408C2.65975 13.4892 2.4642 13.5762 2.2646 13.6592ZM2.3951 14.2068C2.3951 14.2068 3.6133 13.4929 4.03258 13.2634C4.25212 13.1409 4.96213 12.7887 4.96213 12.7887L2.3951 14.2068Z" fill="#CFB66C"/>
<path fill-rule="evenodd" clip-rule="evenodd" d="M2.3951 14.2068C2.60069 14.0802 2.81028 13.9519 3.01992 13.8214L3.33282 13.6314C3.43959 13.5682 3.54246 13.5089 3.65132 13.4457C3.75809 13.3823 3.86096 13.3191 3.96969 13.2597C4.02145 13.2278 4.07568 13.2 4.13187 13.1767L4.29797 13.0936C4.51751 12.9869 4.73706 12.878 4.96847 12.7851C4.75883 12.9176 4.5432 13.0304 4.32769 13.147C4.22092 13.2063 4.11205 13.2597 4.00528 13.3191C3.8985 13.3784 3.79564 13.4417 3.68678 13.4991C3.58 13.5623 3.47714 13.6217 3.36841 13.679L3.046 13.855L2.3951 14.2068ZM4.95218 12.9451C4.95218 12.9451 4.19471 13.5266 3.94948 13.7125C3.70425 13.8984 2.98238 14.4206 2.98238 14.4206L4.95218 12.9451Z" fill="#CFB66C"/>
<path fill-rule="evenodd" clip-rule="evenodd" d="M9.29938 17.6344L8.91178 16.9007L9.13719 15.983L10.7451 15.362L10.0608 13.9579L10.3989 12.5399L11.0339 11.27L12.9958 10.9616L14.4375 9.58705L17.5505 9.82237L18.1616 13.1509L16.9848 17.3417L16.3145 19.5114L13.597 19.6143L12.3352 18.7401L10.8579 18.1229L9.29938 17.6344Z" fill="#E2CC85"/>
<path fill-rule="evenodd" clip-rule="evenodd" d="M14.0659 17.6107C14.0659 17.6107 13.69 17.7828 13.049 17.7431C12.8635 17.494 11.5642 17.3773 11.5642 17.3773C11.5642 17.3773 11.402 17.3279 11.1152 17.4465C10.8265 17.5639 10.5535 17.5494 10.2984 17.6126C10.0432 17.6759 9.78993 17.3437 9.59437 17.2745C9.39881 17.2013 9.1395 17.0253 9.1395 17.0253L8.59193 16.9719L7.49237 16.5071L5.74551 14.7667L5.27082 15.5099L5.12441 16.4295L5.65255 17.5193L7.07452 18.8147L9.84729 19.5187L11.4908 19.0345L13.5496 18.1642L14.0659 17.6107Z" fill="#F1D789"/>
<path fill-rule="evenodd" clip-rule="evenodd" d="M4.2145 11.46L4.56651 10.394L4.98592 9.70568L6.33658 9.59291L5.93112 10.7757L4.80196 12.7851L5.27065 14.5789L4.44005 14.9941L4.18478 14.6026L3.97918 13.7047L3.96536 12.696L4.2145 11.46Z" fill="#F4ECB4"/>
<path fill-rule="evenodd" clip-rule="evenodd" d="M5.7296 17.5375L5.47055 17.1755C5.47055 17.1755 5.40132 17.0035 5.44096 16.8531C5.48007 16.7009 5.47446 16.691 5.45478 16.6336C5.43509 16.5762 5.26887 16.3784 5.27877 16.2083C5.28855 16.0362 5.26496 15.9789 5.39142 15.8425C5.52388 15.71 5.48437 15.4806 5.48437 15.4806L5.65646 15.5873L5.69558 15.528C5.69558 15.528 5.75881 15.5774 5.75881 15.6546C5.77263 15.5478 5.71526 15.0533 5.84577 14.9407C5.97627 14.8281 6.20768 15.4687 6.20768 15.4687L6.06531 14.5391L5.69936 13.586L5.04867 12.7158L5.00955 11.7565V11.6734C5.00955 11.6734 4.71087 12.1323 4.62782 12.4948C4.5685 12.7439 4.71087 13.0465 4.68128 13.4045C4.65742 13.7606 4.62782 13.7328 4.71478 13.8739C4.80174 14.0149 5.01347 14.305 4.93042 14.5146C4.85728 14.6947 4.60801 14.5681 4.60801 14.5681C4.60801 14.5681 4.5586 14.7144 4.49132 14.7678C4.4676 14.6809 4.44191 14.6255 4.39446 14.5723C4.39042 14.6059 4.38064 14.6514 4.38064 14.6514C4.38064 14.6514 4.33709 14.5149 4.29355 14.3428C4.23436 14.1135 4.171 13.8109 4.11363 13.6487C4.08991 13.7417 4.03059 14.0244 4.03059 14.0244L4.06422 14.4596L4.22641 15.0569L4.38285 15.448L4.53513 15.9266L4.66746 16.2481L4.77423 16.4933L4.86719 17.0452L5.31606 17.5197L5.55543 17.6266L5.7296 17.5375Z" fill="#F3E19D"/>
<path fill-rule="evenodd" clip-rule="evenodd" d="M4.44985 10.5897C4.44985 10.5897 4.12744 11.1373 4.03462 11.6893C3.94179 12.2413 3.85861 12.8245 3.91728 13.576C3.9766 14.3336 4.08937 14.7983 4.18037 15.1306C4.33682 15.6824 4.74202 16.4498 4.74202 16.4498L4.75584 16.4201C4.68773 16.291 4.63337 16.1551 4.59365 16.0146C4.5402 15.805 4.52038 15.5558 4.47097 15.4431C4.42743 15.3304 4.35429 15.2334 4.3187 15.095C4.28506 14.9625 4.27959 14.7529 4.17633 14.5967C4.13279 14.5333 4.07933 14.3672 4.06356 14.2011C4.04374 13.9519 4.07347 13.673 4.04974 13.4437C4.00619 13.062 3.9766 12.8029 4.0161 12.603C4.05561 12.4032 4.26146 11.8358 4.38806 11.3848C4.4711 11.0961 4.42156 10.8528 4.57384 10.6016C4.72611 10.3524 4.8192 10.1329 4.8527 9.98059C4.89182 9.84214 4.44985 10.5897 4.44985 10.5897Z" fill="#F2E8B0"/>
<path fill-rule="evenodd" clip-rule="evenodd" d="M5.97887 10.3701C5.97887 10.3701 5.81277 10.4196 5.73364 10.5066C5.6545 10.5897 5.62087 10.6589 5.51409 10.7993C5.40732 10.9397 5.40132 11.0544 5.31423 11.2304C5.22727 11.4025 5.03536 11.6616 5.01163 11.7545C4.98791 11.8475 4.9484 12.2825 4.89899 12.4883C4.85545 12.694 4.9484 12.9472 4.9484 12.9472L5.06105 12.9233C5.06105 12.9233 5.06105 13.0697 5.17382 13.1687C5.28646 13.2656 5.30628 12.8403 5.30628 12.8403L5.72751 11.4183L6.3623 10.9872L6.43152 10.6391L5.97887 10.3701Z" fill="#F5EEC0"/>
<path fill-rule="evenodd" clip-rule="evenodd" d="M6.28731 11.015C6.28731 11.015 5.98863 11.0347 5.84235 11.1416C5.78303 11.185 5.7593 11.2206 5.69607 11.2741C5.57939 11.3709 5.46062 11.46 5.40339 11.5869C5.34003 11.7134 5.2708 11.9053 5.22334 12.2672C5.20352 12.4195 5.20352 12.5599 5.1897 12.6826C5.16989 12.8487 5.14029 12.9812 5.15607 13.0737C5.17589 13.2635 5.37171 13.3625 5.39074 13.578L5.7962 13.3724L6.17793 11.8672L6.98885 11.3588L6.52994 10.8446L6.28679 11.0141L6.28731 11.015Z" fill="#E6DB9D"/>
<path fill-rule="evenodd" clip-rule="evenodd" d="M4.14813 21.1503C4.14982 21.1354 4.15152 21.1206 4.15321 21.1053C4.2124 20.5968 4.22244 20.2115 4.26585 19.9701C4.32908 19.628 4.37263 19.5008 4.36272 19.3728C4.3489 19.1672 4.33312 19.0169 4.35294 18.8586C4.38254 18.6489 4.58826 18.3998 4.5824 18.2277C4.57836 18.0912 4.50913 18.0023 4.44981 17.9193C4.39049 17.8362 4.34303 17.767 4.34303 17.767C4.34303 17.767 4.74849 17.4881 4.74458 16.3647C4.75286 16.367 4.76083 16.3703 4.76831 16.3746L4.96804 16.9421L5.10454 17.1082L5.62864 18.0852L6.30306 18.7399L7.29975 19.4103L7.92476 20.0905L7.98799 21.9041L7.17121 22.9642L7.03744 23.2064C5.97474 22.6729 5.00037 21.9795 4.14813 21.1503Z" fill="#E5CB7A"/>
<path fill-rule="evenodd" clip-rule="evenodd" d="M6.6432 22.8853C6.6432 22.8853 6.65702 22.6599 6.84294 22.5135C6.87266 22.5629 6.89235 22.6105 6.88648 22.6459C6.92012 22.5867 7.15544 22.2069 7.68749 22.108C8.21954 22.0111 8.34809 21.6235 8.34809 21.6235L9.47725 20.5971L10.7687 19.4085L12.3391 18.8566L13.0729 18.6766C13.0729 18.6766 13.0867 18.73 13.0591 18.8487C13.1955 18.8389 13.4981 18.7697 13.8125 18.6589C13.9391 18.6094 14.0579 18.5896 14.1211 18.6549C14.2141 18.7419 14.2279 18.9476 14.2338 19.0702C14.386 19.0365 14.562 18.8903 14.7031 18.9041C14.9286 18.9278 15.1284 19.1929 15.3578 19.1929C15.6604 19.1929 15.7968 19.007 16.0085 18.8605C16.1351 18.7736 16.317 18.665 16.4198 18.5916C16.6651 18.4115 19.2599 17.6185 19.2599 17.6185L20.1696 17.6778L20.316 18.6548L20.2378 21.2088C20.2282 21.2181 20.2185 21.2277 20.2087 21.237L16.0723 23.3974L10.3385 24.2764C9.0541 24.0665 7.81464 23.6402 6.67293 23.0155L6.6432 22.8853Z" fill="#D8C173"/>
<path fill-rule="evenodd" clip-rule="evenodd" d="M4.49602 21.4752C4.5775 21.3048 4.65077 21.1623 4.66368 21.1113C4.67385 21.2141 4.69249 21.4395 4.73004 21.6791C4.65121 21.6121 4.5732 21.5442 4.49602 21.4752Z" fill="#F1D789"/>
<path fill-rule="evenodd" clip-rule="evenodd" d="M8.68429 23.8787L9.42585 23.6725L9.48908 23.6923C9.48908 23.6923 9.52271 23.7121 9.52271 23.7793C9.61567 23.7259 9.6948 23.7357 9.75217 23.7003C9.78176 23.7635 9.81136 23.9731 9.94199 23.9988C10.0784 24.0285 10.2248 23.9395 10.3731 23.8268C10.5194 23.7102 10.686 23.5638 10.8121 23.5044C10.8584 23.5895 10.8993 23.6773 10.9348 23.7674C11.1009 23.6349 11.3896 23.097 11.801 23.1068C11.9199 22.8258 12.1185 22.5859 12.3723 22.4166C12.754 22.1576 12.9932 22.1377 13.2919 22.1615C13.4105 22.0074 13.5567 21.8766 13.7231 21.7758C13.7725 21.7956 13.909 21.8787 14.0791 21.7995C14.2512 21.7205 14.4449 21.4139 14.7001 21.3744C14.8376 21.3555 14.9774 21.3848 15.0956 21.4574C15.0956 21.4574 15.8387 20.7197 16.3515 20.4744C16.3317 20.4151 16.2922 20.1917 16.8933 19.6972C16.927 19.7269 16.9032 19.8099 16.927 19.8145C16.9367 19.8145 17.0834 19.7513 17.2691 19.6088C17.4985 19.4368 17.7733 19.2568 17.9394 19.2073C18.2523 19.1144 18.5843 19.3042 18.5843 19.3042C18.6125 19.2844 18.6439 19.2697 18.6772 19.2607C18.7562 19.2469 18.8136 19.2369 18.8571 19.2216C18.8532 19.3244 18.9106 19.5004 18.8571 19.6527C18.9191 19.6875 18.9846 19.7154 19.0527 19.7357C19.0192 19.8089 18.9459 19.9948 18.8234 20.0838C18.9261 20.1333 18.9399 20.1906 19.0863 20.2403C19.027 20.3233 18.9299 20.4658 18.8866 20.5532C18.8431 20.6461 18.6867 21.0318 18.6175 21.1781C18.5444 21.3245 18.4455 21.5934 18.398 21.6474C18.3504 21.7014 18.1784 21.9302 18.046 22.0428C18.1633 21.9993 18.6433 21.853 18.847 21.7976C18.7863 21.8865 18.4791 22.3424 18.1836 22.7809C16.7691 23.6287 15.1902 24.1653 13.5521 24.3549C11.9139 24.5446 10.2541 24.3829 8.68337 23.8807L8.68429 23.8787Z" fill="#E0CD81"/>
<path fill-rule="evenodd" clip-rule="evenodd" d="M6.3362 10.9615C6.3362 10.9615 6.16424 10.9615 6.13061 10.9853C6.09697 11.009 6.3027 11.0585 6.36593 11.0823C6.42916 11.106 6.56566 11.2147 6.60125 11.3018C6.63489 11.3849 7.83731 11.8693 7.83731 11.8693L8.68774 11.8258L8.98094 11.4207L8.42321 10.9322L8.81433 9.77919L8.29623 9.86224L7.05026 10.6054L6.42525 10.8447L6.3362 10.9615Z" fill="#DFC57C"/>
<path fill-rule="evenodd" clip-rule="evenodd" d="M8.20374 11.3433C8.21604 11.3632 8.23335 11.3795 8.25395 11.3906C8.27454 11.4017 8.29769 11.4072 8.32108 11.4065C8.49708 11.4065 8.65913 11.45 8.72641 11.5389C8.83918 11.6814 9.15168 12.1363 9.15168 12.1363L9.89924 12.4053L9.94748 11.525L9.13069 10.9575L8.20113 11.2996V11.3431L8.20374 11.3433Z" fill="#E5CC7C"/>
<path fill-rule="evenodd" clip-rule="evenodd" d="M8.05706 11.6696C8.05706 11.6696 8.19343 11.6795 8.36552 11.6162C8.53762 11.5528 8.8204 11.4164 8.94308 11.4699C9.11504 11.543 9.07945 11.7725 9.26549 11.9783C9.37813 12.1049 9.58386 12.101 9.70054 12.2375C9.81722 12.374 10.2186 12.3107 10.2186 12.3107L10.3709 13.132L9.75986 13.9153L9.56 14.8883H8.7337L7.97884 14.5888L7.60702 13.6892L7.79293 12.7795L8.05706 11.6696Z" fill="#D2C281"/>
<path fill-rule="evenodd" clip-rule="evenodd" d="M9.65534 11.7091C9.67583 11.7154 9.69713 11.7187 9.71857 11.719C9.69484 11.7388 9.6453 11.7822 9.66512 11.895C9.68493 12.0078 9.74816 12.1501 9.69484 12.2371C9.73741 12.2836 9.76915 12.339 9.7878 12.3993C9.82143 12.4963 9.83134 12.5852 10.0508 12.5991C10.0191 12.6186 9.9899 12.6419 9.9638 12.6684C9.9638 12.6684 10.1161 12.8008 10.1933 12.9234C10.2723 12.92 10.4819 12.8548 10.4819 12.8548L10.5254 12.8845L10.6184 12.8454C10.6184 12.8454 10.5314 12.8118 10.5947 12.6002C10.654 12.4143 10.7074 12.4242 10.712 12.4104C10.7166 12.3965 10.7556 12.2007 10.7556 12.1216C10.7851 12.0188 10.8089 11.7063 10.8089 11.7063L10.7456 11.0161L10.3897 10.8005L10.1003 10.5211L9.8273 11.0353L9.64752 11.2146L9.6337 11.6595L9.65534 11.7091Z" fill="#E2C270"/>
<path fill-rule="evenodd" clip-rule="evenodd" d="M10.5117 11.1317C10.5117 11.1317 10.5749 11.3116 10.5988 11.4501C10.6072 11.4232 10.6119 11.3952 10.6126 11.367C10.6126 11.367 10.662 11.64 10.6718 11.7528C10.6916 11.7488 10.7109 11.7429 10.7154 11.7626C10.7198 11.7823 10.7649 12.0019 10.7545 12.1245C10.8368 11.9886 10.9508 11.8747 11.0867 11.7923C11.1658 11.7428 11.2588 11.6894 11.3558 11.6854C11.508 11.6815 11.6187 11.7824 11.8007 11.7824C12.2397 11.7824 12.6373 11.46 12.93 11.3612C13.1455 11.2879 13.3314 11.2346 13.4619 11.1158C13.5253 11.0625 13.6381 10.9438 13.7408 10.7677C13.8773 10.533 14.0197 10.3287 14.1622 10.3031C14.0977 10.3149 14.0321 10.3195 13.9666 10.3169C13.9666 10.3169 14.0101 10.2733 14.0839 10.214C14.1577 10.1547 14.2461 10.0816 14.3726 10.0816C14.5981 10.0816 14.7108 10.1151 14.8374 10.1151C14.9639 10.1111 15.0371 10.0816 15.0371 10.0816C15.0371 10.0816 15.1697 10.1745 15.4682 10.1745C15.7669 10.1784 15.9666 10.2041 16.123 10.2181C16.2793 10.232 16.8032 10.1745 16.9536 10.1789C17.0516 10.1827 17.1478 10.2063 17.2365 10.2482L16.7519 8.84015L15.0111 7.3187L13.9748 8.05244L12.3806 9.6465L10.838 10.2181L10.5156 10.58V11.1317H10.5117Z" fill="#CCB360"/>
<path fill-rule="evenodd" clip-rule="evenodd" d="M13.9728 10.3246C13.9728 10.3246 14.0163 10.2812 14.0893 10.2219C14.1623 10.1626 14.2516 10.0893 14.3781 10.0893C14.6035 10.0893 14.7163 10.1229 14.8429 10.1229C14.9695 10.119 15.0426 10.0893 15.0426 10.0893C15.0426 10.0893 15.1753 10.1821 15.4738 10.1821C15.7724 10.186 15.9722 10.2117 16.1285 10.2255C16.2848 10.2394 16.8088 10.1821 16.9591 10.1864C17.0571 10.1901 17.1533 10.2137 17.2419 10.2557L17.0223 9.62074L16.7673 9.13628L16.0394 8.33918C16.0394 8.33918 15.1659 7.82499 15.1593 7.82108C15.1554 7.81717 14.8567 7.73803 14.8567 7.73803L14.0656 8.21663L13.3478 10.0738L13.3339 10.4649L13.7986 10.6845C13.9153 10.4889 14.044 10.3324 14.1646 10.3126C14.0557 10.3245 13.9728 10.3246 13.9728 10.3246Z" fill="#D5B457"/>
<path fill-rule="evenodd" clip-rule="evenodd" d="M13.9628 10.4572C13.8936 10.4611 13.8363 10.4473 13.8204 10.3979C13.7611 10.2318 13.7136 10.2081 13.664 10.2081C13.6143 10.2081 13.5473 10.3149 13.5075 10.3246C13.4678 10.3344 13.4206 10.2021 13.4206 10.2021L13.377 10.1823C13.377 10.1823 13.1219 10.3484 12.942 10.5442C12.762 10.74 12.4673 11.0723 12.3348 11.1315C12.2024 11.1907 11.7474 11.2107 11.5917 11.2443C11.436 11.2779 11.2634 11.3907 11.2397 11.4164C11.216 11.4421 11.309 11.4697 11.3229 11.4954C11.3367 11.5191 11.1705 11.5092 11.1566 11.5345C11.1469 11.5543 11.1958 11.667 11.22 11.7243C11.2624 11.7032 11.309 11.6917 11.3564 11.6907C11.5086 11.6868 11.6195 11.7877 11.8013 11.7877C12.2404 11.7877 12.6379 11.4653 12.9306 11.3663C13.1463 11.2932 13.3322 11.2397 13.4627 11.1211C13.5259 11.0678 13.6387 10.949 13.7415 10.773C13.8166 10.6524 13.8895 10.5403 13.9628 10.4572Z" fill="#D2B257"/>
<path fill-rule="evenodd" clip-rule="evenodd" d="M7.66599 20.2452C7.66599 20.2452 7.62688 20.0988 7.26444 19.7211C7.16158 19.6143 7.09835 19.5255 7.02912 19.462C6.85703 19.2997 6.75612 19.2563 6.63357 19.1633C6.36461 18.9636 6.07193 18.9636 5.84651 18.7184C5.6211 18.4731 5.3584 18.0046 5.17587 17.5257C4.99596 17.0471 4.94642 16.8948 4.94642 16.881C4.94642 16.8672 4.99596 16.7743 5.05919 16.7881C5.12242 16.8019 5.12242 16.9244 5.13833 16.9542C5.16983 17.0027 5.20556 17.0483 5.2451 17.0905C5.33806 17.1974 5.47052 17.3252 5.53779 17.5158C5.52397 17.3536 5.46856 17.1737 5.46856 17.1737C5.46856 17.1737 5.81666 17.3933 6.11325 17.6226C6.41194 17.852 6.53449 17.9312 6.62171 18.0775C6.70893 18.2237 6.91439 18.6095 7.01282 18.7223C7.11126 18.8351 8.45996 19.2602 8.45996 19.2602L9.10152 19.7385L9.42002 20.4367L9.17075 20.8278L8.69215 20.9307L7.91487 20.5826L7.66599 20.2452Z" fill="#D2B159"/>
<path fill-rule="evenodd" clip-rule="evenodd" d="M5.9392 17.8401C5.9392 17.8401 6.10138 18.0992 6.49693 18.3444C6.85298 18.56 7.41658 18.7559 7.91903 18.8725C8.20768 18.9418 8.49645 18.9951 8.7555 18.9991C9.45365 19.0089 9.9342 18.8093 10.5296 18.744C10.852 18.7104 11.2476 18.6847 11.6589 18.5875C12.1869 18.461 12.4994 18.3185 12.9247 18.1182C13.2332 17.9758 13.5161 17.8691 13.7454 17.7326C14.0678 17.5427 14.3031 17.3311 14.5761 17.2679C14.5425 17.3609 14.5069 17.527 14.2379 17.6991C14.3803 17.695 14.5761 17.6852 14.5761 17.6852C14.5761 17.6852 14.3863 17.7979 14.052 18.0511C13.8463 18.2075 13.5734 18.4723 13.2946 18.6483C13.1145 18.7611 12.9187 18.8439 12.7901 18.9114C12.4773 19.0835 12.3511 19.1704 12.1455 19.3807C12.2186 19.3768 12.2246 19.3807 12.2246 19.3807C12.2246 19.3807 11.9654 19.4144 11.7796 19.5132C11.7405 19.5132 11.6727 19.4994 11.5541 19.533C11.4611 19.5626 11.3384 19.63 11.212 19.6655C11.0319 19.7189 10.9728 19.6952 10.9728 19.6952L11.0023 19.7545C11.0023 19.7545 10.7677 19.7505 10.6895 19.7584C10.7033 19.7623 10.6994 19.7683 10.6994 19.7683C10.6856 19.7706 10.6724 19.7753 10.6602 19.7822C10.6226 19.8065 10.5812 19.8246 10.5377 19.8355C10.514 19.8394 10.4942 19.8394 10.4644 19.8454C10.4743 19.8691 10.5515 20.0018 10.5871 20.0801C10.5575 20.0999 10.1124 20.4361 10.1124 20.4361C10.1262 20.4578 10.1375 20.4811 10.1461 20.5053C10.1599 20.5487 10.1659 20.6121 10.1797 20.6417C10.2132 20.701 10.233 20.7109 10.233 20.7109C10.233 20.7109 10.1797 20.7208 10.0866 20.7446C10.0076 20.7644 9.91061 20.7979 9.77372 20.8177C9.73171 20.8232 9.68946 20.8265 9.64712 20.8276C9.66694 20.8712 9.7539 21.0373 9.59367 21.229C9.43344 21.4208 9.38403 21.4487 9.33462 21.5713C9.30975 21.5524 9.28327 21.5359 9.25548 21.5217C9.20216 21.498 9.12889 21.4625 9.10321 21.4149C9.08824 21.4783 9.06841 21.5405 9.04389 21.6009C8.99448 21.7333 8.92134 21.8639 8.90752 21.9628C8.85407 21.9034 8.75524 21.7868 8.61874 21.8105C8.48224 21.8342 8.37351 22.0201 8.34979 22.0736C8.34979 22.0399 8.32606 22.0143 8.32019 22.0538C8.31615 22.0973 8.24105 22.5521 7.82178 22.92C7.81787 22.827 7.81787 22.6213 7.80796 22.5541C7.76884 22.5932 7.721 22.651 7.43613 22.7737C7.15727 22.8962 7.20146 23.0189 7.20146 23.0189C7.20146 23.0189 7.17774 22.8234 7.32806 22.6174C7.48033 22.4118 7.57329 22.3148 7.57329 22.299C7.57083 22.2829 7.56397 22.2679 7.55347 22.2555C7.53365 22.2356 7.49415 22.2119 7.49415 22.1961C7.51788 22.1864 7.7532 22.0736 7.73938 21.8401C7.72556 21.6306 7.63665 21.5217 7.57329 21.4447C7.56351 21.4348 7.66637 21.3616 7.65242 21.3379C7.64251 21.3241 7.51605 21.231 7.50015 21.1814C7.50389 21.1519 7.51052 21.1228 7.51996 21.0945C7.53378 21.0509 7.54369 21.0212 7.53978 20.9916C7.52987 20.9422 7.47642 20.8057 7.46064 20.7919C7.47446 20.7958 7.57329 20.7919 7.57329 20.7919C7.57329 20.7919 7.49428 20.6653 7.48033 20.606C7.46638 20.5467 7.43679 20.3903 7.42101 20.3607C7.45465 20.3647 7.53769 20.3705 7.53769 20.3607C7.54174 20.331 7.46455 20.2816 7.49858 20.2434C7.52231 20.2473 7.56781 20.2671 7.61122 20.3225C7.5875 20.2592 7.54799 20.1366 7.46482 20.0872C7.50393 20.0734 7.63691 20.0377 7.75359 20.1069C7.87027 20.1761 7.91004 20.273 7.91004 20.273C7.91004 20.273 7.97927 20.3265 8.08617 20.4056C8.20872 20.5025 8.36491 20.6403 8.61418 20.7378C8.66763 20.7675 8.804 20.7675 8.90296 20.7477C8.94604 20.7374 8.98735 20.7208 9.02551 20.6983C9.03928 20.6902 9.05388 20.6835 9.06905 20.6785C9.04779 20.6358 9.02334 20.5948 8.99591 20.5558C9.02955 20.5558 9.06905 20.5598 9.06905 20.5598C9.06905 20.5598 9.09278 20.5064 8.986 20.4034C9.00973 20.3797 9.03946 20.3643 9.03946 20.3242C9.00582 20.3203 8.9465 20.2709 8.93268 20.2511C8.95237 20.2373 8.98209 20.1918 9.01573 20.178C8.986 20.1542 8.91286 20.0553 8.87923 20.0455C8.91136 20.0336 8.94245 20.019 8.97218 20.002C8.97218 20.002 8.80609 19.9584 8.75264 19.9228C8.69918 19.8837 8.62018 19.8161 8.57272 19.7962C8.52318 19.7764 8.43622 19.7666 8.40063 19.727C8.43414 19.7369 8.48759 19.727 8.52722 19.727C8.55682 19.727 8.57077 19.7309 8.58055 19.7309C8.57663 19.7171 8.57663 19.6874 8.65381 19.6776C8.69094 19.672 8.72696 19.6607 8.76059 19.644C8.76059 19.644 8.68732 19.64 8.60414 19.5609C8.52097 19.4818 8.45187 19.4185 8.40441 19.4086C8.355 19.3987 8.26204 19.4423 8.20468 19.4382C8.12554 19.4285 8.09191 19.3888 8.09191 19.3888C8.09191 19.3888 7.82895 19.4125 7.24553 19.0566C6.74112 18.748 6.52157 18.4752 6.52157 18.4752C6.47436 18.458 6.42874 18.4368 6.3852 18.4118C6.19538 18.313 5.93229 18.1073 5.94024 17.8382L5.9392 17.8401Z" fill="#C2A44D"/>
<path fill-rule="evenodd" clip-rule="evenodd" d="M13.2153 5.96972C13.261 5.98458 13.3017 6.012 13.3326 6.04885C13.4256 6.15563 13.4849 6.35731 13.2733 6.57295C13.3563 6.60254 13.3906 6.61206 13.4631 6.60254C13.39 6.68963 13.2239 6.87554 13.214 7.03773C13.2041 7.17019 13.2871 7.20982 13.2871 7.20982C13.2871 7.20982 13.1605 7.3561 13.1546 7.60094C13.2144 7.53352 13.2799 7.47132 13.3502 7.41503C13.4966 7.29834 13.6983 7.16588 13.8348 7.08284C13.8329 7.11764 13.8376 7.15249 13.8486 7.18557C13.8486 7.18557 14.1036 6.97593 14.318 7.06902C14.4148 7.11256 14.3713 7.24893 14.3713 7.24893C14.3713 7.24893 14.5039 7.19952 14.5968 7.29248C14.6898 7.38543 14.8212 7.62519 14.8886 7.71814C14.9182 7.76169 14.9954 7.84473 15.0744 7.97328C15.1823 8.15325 15.2724 8.34332 15.3435 8.54079C15.3474 8.43793 15.3731 8.27783 15.6659 8.37861C15.9586 8.48147 16.2908 8.69711 16.5696 9.12173C16.8485 9.54636 16.9176 10.0257 17.058 10.2083C17.2004 10.3843 17.3468 10.6769 17.3567 10.7996C17.3666 10.9223 17.3131 11.3177 17.6058 12.3877C17.6889 12.0555 17.8155 11.3177 17.8155 11.3177L17.8847 10.667L17.9638 8.6537L15.8614 6.90709L14.218 5.71445L13.148 5.81731L13.2153 5.96972Z" fill="#CAA13E"/>
<path fill-rule="evenodd" clip-rule="evenodd" d="M17.1212 8.96591C17.1212 8.96591 17.0915 8.77035 16.5971 8.4379C16.1026 8.10962 15.717 8.10962 15.3611 7.83075C15.0881 7.6112 14.8033 7.10679 14.618 6.9407C14.4379 6.77656 14.4083 6.30187 14.4083 6.30187L15.0155 5.79342L15.9184 4.48826L16.6818 3.64774L17.0476 4.1562L17.556 4.75343L17.8388 5.95195L17.9417 7.70625L17.1212 8.96591Z" fill="#B59544"/>
<path fill-rule="evenodd" clip-rule="evenodd" d="M17.7325 11.0687C17.7475 10.8026 17.7146 10.5361 17.6355 10.2816C17.5051 9.87615 17.2203 9.15623 17.0879 8.88662C17.0345 8.58793 17.0741 8.56421 17.1315 8.53057C17.1888 8.49693 17.4045 8.37412 17.5226 7.94324C17.6407 7.51236 18.0072 7.49828 18.0072 7.49828L18.2326 7.33219L18.5748 8.18847L18.8734 8.96184L18.9663 9.55321L19.0356 10.0575L18.8734 11.1236L18.0725 11.8474L17.7325 11.0687Z" fill="#C89D3A"/>
<path fill-rule="evenodd" clip-rule="evenodd" d="M6.55631 22.9288C6.57295 22.9184 6.58764 22.9052 6.59972 22.8897C6.61354 22.8699 6.62358 22.8462 6.63336 22.8403C6.65318 22.8304 6.74613 22.8012 6.79554 22.8106C6.84495 22.8199 6.97559 22.8738 7.04481 22.8699C7.18718 22.866 7.35328 22.7571 7.61637 22.8066C8.01192 22.8798 8.10487 23.1487 8.33433 23.301C8.49078 23.4079 8.6527 23.3603 8.67643 23.3603H8.72975C8.73966 23.3603 8.8128 23.2773 8.85243 23.2813C8.93157 23.2852 8.93939 23.3506 8.9888 23.3545C9.10548 23.3683 9.33103 23.2952 9.4438 23.3249C9.47724 23.3354 9.50765 23.3538 9.53244 23.3785C9.55723 23.4033 9.57566 23.4337 9.58617 23.4671C9.6099 23.5403 9.59008 23.6332 9.53272 23.6867C9.41017 23.7993 9.29348 23.9062 9.26975 23.9996C9.29993 24.0226 9.32891 24.0471 9.35658 24.0731C8.37803 23.8238 7.43653 23.4468 6.55631 22.9519V22.9288Z" fill="#CEB052"/>
<path fill-rule="evenodd" clip-rule="evenodd" d="M17.0877 18.9992C17.0877 18.9992 17.3962 18.5879 17.5031 18.3841C17.6098 18.1741 17.1649 15.5144 17.1649 15.5144L18.0589 12.5855L18.035 11.6322C18.035 11.6322 18.0785 10.7521 18.1814 10.3703C18.3041 10.5899 18.6858 10.8549 18.7689 10.9953C18.808 10.7263 18.9408 10.1587 18.9211 9.55355C18.9943 9.66619 19.1703 10.7995 19.1703 10.7995L19.3463 11.5629L19.5757 12.3738L19.8309 13.2302L19.9832 13.8216L20.0701 13.9639L20.1434 14.2131L20.2126 14.4822L20.4123 15.113L20.5297 15.6311L20.6226 16.5706C20.6428 16.6425 20.6574 16.7159 20.6662 16.7901C20.6701 16.893 20.6524 16.9523 20.6524 16.9702C20.6524 16.9881 20.686 17.1956 20.6722 17.3519C20.6524 17.5084 20.6524 17.6308 20.5297 17.743C20.407 17.8553 20.3299 18.5262 20.3299 18.5262L20.1104 18.3799C20.1104 18.3799 20.1539 18.18 20.0511 17.9982C19.9482 17.8163 19.7485 17.7786 19.6357 17.8084C19.5231 17.8321 19.2977 17.8675 19.2244 17.9309C19.1552 17.9941 18.9851 18.19 18.8288 18.279C18.6333 18.3963 18.3146 18.4056 18.1446 18.4451C17.9725 18.4842 17.7827 18.6015 17.5829 18.7378C17.4262 18.8392 17.2607 18.9265 17.0885 18.9985L17.0877 18.9992Z" fill="#CCA847"/>
<path fill-rule="evenodd" clip-rule="evenodd" d="M17.0877 23.3205C17.0877 23.3205 17.1007 23.329 17.1259 23.3428C18.531 22.6845 19.79 21.7514 20.8285 20.5985C20.8171 20.1982 20.8024 19.7879 20.7862 19.6359C20.7527 19.3135 20.7765 18.9852 20.7666 18.7954C20.7567 18.6056 20.6499 17.8322 20.6005 17.6325C20.547 17.4328 20.444 17.3338 20.4284 17.3338C20.4146 17.3378 20.3314 17.7097 20.3314 17.8031C20.3314 17.8966 20.3116 18.1216 20.3116 18.179C20.2977 18.175 20.2919 18.1399 20.2919 18.1256C20.2721 18.175 20.2483 18.2621 20.2384 18.272C20.2285 18.2819 20.2522 18.1889 20.2384 18.1691C20.2246 18.1493 20.1993 18.1592 20.2048 18.1098C20.2071 18.0805 20.2117 18.0514 20.2186 18.0228C20.2186 18.0228 20.1593 18.1098 20.1159 18.3313C20.0723 18.5508 20.0723 18.5568 20.0566 18.5765C20.0427 18.6004 19.9636 18.6794 19.9596 18.7091C19.9556 18.7624 20.0328 18.8159 20.0387 18.8455C20.0426 18.895 19.9695 19.1243 19.9457 19.2366C19.922 19.3488 19.9319 19.5688 19.9066 19.6816C19.8868 19.7844 19.8675 19.8437 19.7998 19.8872C19.8493 19.8971 19.8967 19.9109 19.8967 19.9109C19.8967 19.9109 19.9659 20.2036 19.7899 20.4528C19.7267 20.5398 19.7109 20.5794 19.6437 20.6586C19.5111 20.8048 19.4082 20.9715 19.3983 21.0798C19.3915 21.0478 19.3868 21.0154 19.3845 20.9828C19.3845 20.9828 19.1789 21.2222 19.0918 21.3587C18.9792 21.5347 18.8228 21.5248 18.7789 21.5683C18.735 21.6119 18.7254 21.6909 18.7398 21.7542C18.7007 21.764 18.6271 21.7779 18.5776 21.9302C18.5539 22.0092 18.4946 22.0867 18.4016 22.1399C18.3086 22.1931 18.1959 22.2091 18.1385 22.2229C18.1879 22.2367 18.2077 22.2367 18.2315 22.2525C18.2019 22.3019 18.0654 22.3791 17.9131 22.4781C17.7608 22.571 17.6876 22.7074 17.65 22.7964C17.6109 22.8795 17.5531 22.9329 17.4602 22.9428C17.4993 22.9666 17.5572 23.0218 17.5868 23.0397C17.5432 23.0496 17.4694 23.0496 17.3376 23.1624C17.1992 23.2771 17.1511 23.3106 17.0877 23.3205Z" fill="#C39D3C"/>
<path fill-rule="evenodd" clip-rule="evenodd" d="M14.3358 24.2369C14.4115 24.1839 14.4935 24.1404 14.58 24.1075C14.8884 23.9849 15.2148 23.9612 15.3433 23.9217C15.466 23.8826 15.5628 23.8286 15.7151 23.799C15.7111 23.8337 15.7077 23.8663 15.704 23.8971C15.2551 24.0382 14.7986 24.1517 14.3358 24.2369Z" fill="#D2BA6B"/>
<path fill-rule="evenodd" clip-rule="evenodd" d="M20.0252 16.1236C20.0252 16.1236 19.9619 16.4657 19.8492 16.6813C19.7364 16.8969 19.6145 17.1955 19.6145 17.1955C19.6152 17.1282 19.6232 17.0612 19.6382 16.9956C19.4959 17.0787 19.1497 17.2785 19.0516 17.3674C18.9586 17.4505 18.8023 17.5969 18.7628 17.6661C18.8557 17.3933 18.9526 17.148 18.9685 17.0353C18.8261 17.1381 18.1615 17.6859 17.8155 18.0479L16.7376 18.9201C16.6132 18.9872 16.4851 19.0471 16.3539 19.0997C16.1681 19.1787 15.9486 19.246 15.7864 19.3093C15.8299 19.1927 15.899 19.0897 15.996 18.9908C16.0989 18.894 16.4073 18.5597 16.4548 18.4042C16.4983 18.242 16.5082 18.1451 16.4509 18.0086C16.3974 18.0224 16.2749 18.0284 16.1918 18.0522C16.1088 18.0759 16.0197 18.1648 16.0197 18.1648C16.0197 18.1648 16.083 17.8029 16.2195 17.4608C16.1166 17.4647 15.9406 17.4943 15.9406 17.4943C15.9406 17.4943 16.1858 17.083 16.6055 16.7963C16.477 16.8236 16.3512 16.8627 16.2298 16.9128C15.9845 17.0157 15.7156 17.168 15.5158 17.251C15.6285 17.0946 16.4196 15.9655 16.8904 14.9133C17.3597 13.8632 17.5351 13.5942 17.6379 13.0306C17.6912 12.7517 17.677 12.3396 17.6912 11.9705C17.7051 11.6046 17.7506 11.2763 17.721 11.0568C17.8435 11.209 18.3024 11.6382 18.3182 12.5975C18.332 13.5567 17.8792 14.8522 17.3986 15.5502C17.5159 15.5838 17.8199 15.6235 18.1323 15.0808C18.4447 14.5382 18.4409 14.3867 18.5537 14.1612C18.5675 14.274 18.5634 14.3135 18.5634 14.3135C18.5634 14.3135 19.0184 13.7617 19.2339 13.0675C19.2775 13.3662 19.406 13.6293 19.2042 14.1771C19.0243 14.6715 18.789 14.7922 18.789 14.7922C18.789 14.7922 18.9057 14.7724 19.0776 14.6695C19.1074 14.7427 19.1015 14.826 19.1509 14.8554C19.2003 14.8849 19.2676 14.9346 19.2775 14.982C19.3308 14.9029 19.4139 14.802 19.4397 14.7269C19.4199 14.8833 19.406 15.5674 19.4788 15.9155C19.6312 15.9017 19.7874 15.8918 19.8941 15.6168C19.821 15.8859 19.821 16.0479 19.8704 16.2774C19.9515 16.2221 20.0252 16.1236 20.0252 16.1236Z" fill="#C0993A"/>
<path fill-rule="evenodd" clip-rule="evenodd" d="M14.8865 5.22211C14.8865 5.22211 14.7342 5.28534 14.4751 5.28534C14.2497 5.28534 14.3129 5.19838 13.9609 5.19838C13.4191 5.19838 11.5264 5.51127 11.194 5.50684C10.9784 5.50293 11.9218 5.5998 11.9218 5.5998L14.3328 5.63343L14.8172 5.59432L14.9973 5.22797L14.8865 5.22211Z" fill="#A88F33"/>
<path fill-rule="evenodd" clip-rule="evenodd" d="M8.63499 9.93516C8.63499 9.93516 8.3264 10.1705 8.1959 10.3505C8.0654 10.5306 7.99617 10.6491 7.8478 10.7955C7.88263 10.7968 7.91743 10.7921 7.95067 10.7817C7.95067 10.7817 7.95067 10.8208 7.92694 10.8311C7.94744 10.8288 7.9682 10.8311 7.98769 10.8379C8.00718 10.8446 8.02491 10.8557 8.03958 10.8702C7.99604 10.8939 7.8774 11.0127 7.97035 11.1531C8.03958 11.2599 8.18599 11.2697 8.18599 11.2697C8.18599 11.2697 8.15235 11.3666 8.29277 11.3567C8.59536 11.3429 8.93355 11.2103 9.08973 11.244C9.24618 11.2831 9.33509 11.2974 9.44578 11.4893C9.56312 11.6792 9.66533 11.7089 9.66533 11.7089C9.66533 11.7089 9.73456 11.5327 9.71878 11.2698C9.77554 11.128 9.807 10.9774 9.81174 10.8248L9.70887 10.0674L9.26 9.49971L8.67854 9.82212L8.63499 9.93516Z" fill="#E3C571"/>
<path fill-rule="evenodd" clip-rule="evenodd" d="M9.18662 9.82237C9.18662 9.82237 9.23016 9.92524 9.41216 9.93501C9.39234 9.97856 9.39234 9.98456 9.39834 10.0181C9.40225 10.0517 9.40812 10.1011 9.40812 10.1011C9.42816 10.0914 9.44627 10.0782 9.46157 10.062C9.47148 10.1055 9.45166 10.1746 9.46157 10.2242C9.46769 10.2543 9.47763 10.2835 9.49117 10.3111C9.49405 10.3044 9.49736 10.2978 9.50107 10.2915C9.50499 10.2815 9.54019 10.3982 9.63757 10.487C9.63749 10.4734 9.64085 10.4599 9.64735 10.4479C9.64885 10.4727 9.65705 10.4966 9.67108 10.5171C9.66379 10.5137 9.65714 10.509 9.65139 10.5033C9.65139 10.5033 9.66117 10.8162 9.71463 10.978C9.72356 10.9675 9.7315 10.9563 9.73835 10.9444C9.73835 10.9346 9.73444 11.0314 9.72453 11.1008C9.71071 11.17 9.72062 11.2669 9.72062 11.2669C9.75628 11.2388 9.79546 11.2156 9.83718 11.1977C9.89649 11.1738 9.99362 11.1007 10.0528 10.9385C10.0871 10.8466 10.1136 10.752 10.1319 10.6557C10.1511 10.6925 10.1643 10.7321 10.1711 10.7731C10.1751 10.8225 10.2681 10.7968 10.2681 10.7968L10.2879 10.5811L10.4052 10.0926L10.512 9.79004L11.0262 8.98916L11.9552 8.27368L12.7661 8.45959L13.4503 7.53003L12.2716 6.82198L11.1562 6.93866L10.1438 8.34082L9.33302 9.6126L9.18662 9.82237Z" fill="#D8B65B"/>
<path fill-rule="evenodd" clip-rule="evenodd" d="M15.029 7.79323C15.029 7.79323 14.9597 7.80705 14.76 7.91057C14.5603 8.01408 14.4218 8.04694 14.3446 8.19921C14.2675 8.35149 14.2616 8.47221 14.2616 8.47221C14.2616 8.47221 14.3981 8.41289 14.4772 8.39308C14.5603 8.37339 14.6532 8.37926 14.6433 8.41289C14.6338 8.43596 14.6206 8.45731 14.6042 8.47612C14.6042 8.47612 14.7607 8.47221 14.7565 8.54939C14.7523 8.62657 14.7269 8.71158 14.6973 8.74912C14.6676 8.78823 14.545 8.84612 14.5312 8.89162C14.4976 8.98458 14.545 8.98849 14.5272 9.06358C14.5133 9.13685 14.4482 9.27922 14.2345 9.52836C14.0149 9.77763 13.9216 9.95364 13.9216 9.95364C13.9216 9.95364 13.8148 9.7539 13.7594 9.58181C13.7203 9.6015 13.5103 9.71818 13.5103 9.71818L13.0237 8.02334L13.0335 7.91057C13.0335 7.91057 13.077 7.85724 13.0869 7.75829C13.0138 7.73456 13.0039 7.71475 12.9069 7.62192C12.8099 7.5291 12.7309 7.41619 12.5688 7.33901C12.5451 7.29547 12.5154 7.23628 12.3967 7.21242C12.2781 7.18856 12.2069 7.16901 12.2069 7.16901C12.2069 7.16901 12.2701 7.14515 12.2999 7.09574C12.2266 7.10565 12.1674 7.12937 12.0072 7.12546C11.845 7.12142 11.8271 7.11555 11.7382 7.12937C11.6493 7.14319 11.5427 7.18283 11.5029 7.04633C11.4594 7.01269 11.3664 7.04241 11.2873 7.15897C11.2081 7.27552 11.1805 7.36861 11.0282 7.41411C11.0175 7.48123 10.994 7.54567 10.959 7.60393C10.9154 7.6772 10.8462 7.75034 10.7533 7.85907C10.6069 8.03116 10.6306 8.31394 10.3972 8.52957C10.1619 8.74508 10.4363 7.93221 10.4363 7.93221L10.8121 7.03264L11.882 5.9864L13.5434 5.87375L13.7056 6.73421L14.5165 7.01308L15.0287 7.79427L15.029 7.79323Z" fill="#D3AE4D"/>
<path fill-rule="evenodd" clip-rule="evenodd" d="M15.2919 7.98302L14.5938 6.97641L14.1053 6.60055C14.1053 6.60055 13.7572 5.9599 13.7334 5.94008C13.7136 5.92626 13.3853 5.89067 13.1757 5.87685L13.2148 5.97372C13.2606 5.98858 13.3012 6.016 13.3321 6.05285C13.4251 6.15963 13.4844 6.36131 13.2728 6.57695C13.3559 6.60655 13.3902 6.61606 13.4626 6.60655C13.3895 6.69363 13.2234 6.87955 13.2135 7.04173C13.2036 7.17419 13.2866 7.21369 13.2866 7.21369C13.2866 7.21369 13.1601 7.3601 13.1542 7.60481C13.214 7.53739 13.2794 7.4752 13.3497 7.4189C13.4962 7.30156 13.6978 7.16962 13.8343 7.08658C13.8325 7.12143 13.8372 7.15632 13.8482 7.18944C13.8482 7.18944 14.1032 6.9798 14.3175 7.07276C14.4144 7.1163 14.3708 7.2528 14.3708 7.2528C14.3708 7.2528 14.5034 7.20339 14.5964 7.29635C14.6893 7.3893 14.8218 7.62854 14.8891 7.72162C14.9187 7.76517 14.9958 7.84821 15.0748 7.97663C15.1828 8.15664 15.2729 8.34675 15.3439 8.54427C15.3478 8.46514 15.3637 8.35445 15.5004 8.35445L15.2919 7.98302Z" fill="#CAA13E"/>
<path fill-rule="evenodd" clip-rule="evenodd" d="M4.82576 10.8429C4.82576 10.8429 4.77635 10.7202 4.82576 10.481C4.87517 10.2417 4.95236 10.129 4.97804 9.77695C5.00372 9.42494 5.23318 8.98584 5.23318 8.98584L5.86796 8.6972L6.31697 8.81975L6.44942 9.42103L5.88178 9.73392C5.88178 9.73392 5.85219 9.86638 5.69196 9.97316C5.53173 10.0799 5.31023 10.163 5.25691 10.2718C5.22503 10.3385 5.20177 10.4089 5.18768 10.4815C5.18768 10.4815 5.02549 10.4478 4.92863 10.5546C4.82576 10.6635 4.82967 10.7598 4.82576 10.8429Z" fill="#F4EFC8"/>
<path fill-rule="evenodd" clip-rule="evenodd" d="M6.10737 10.6826C6.10737 10.6826 6.05391 10.7163 6.01441 10.8C5.9753 10.7367 5.88182 10.3609 5.87791 10.0227C5.874 9.68449 5.85379 9.60066 5.93202 9.4841C6.01024 9.36755 6.31701 9.24474 6.27346 9.03484C6.22992 8.83511 6.04792 8.75206 5.82446 8.80942C5.66801 8.84854 5.55159 9.18125 5.3894 9.34734C5.26672 9.47393 5.12045 9.45412 5.08094 9.52334C5.02749 9.6163 5.0769 9.70926 5.06113 9.76858C5.05709 9.78839 5.00767 9.89517 4.91863 10.0237C4.73871 10.2828 4.43416 10.6487 4.39453 10.977C4.40835 10.7911 4.39857 10.7872 4.44798 10.5814L4.41826 10.532L4.61382 9.89126L4.74041 9.36325L5.02332 8.47906L5.5216 7.57532L6.0062 7.03336L6.51048 7.06699L6.5698 7.82446L6.85857 9.24656L7.46572 9.99412L6.49262 10.649L6.10737 10.6826Z" fill="#EBCC73"/>
<path fill-rule="evenodd" clip-rule="evenodd" d="M6.40992 10.9514C6.40992 10.9514 6.32688 10.9712 6.29715 10.9554C6.26743 10.9396 6.23796 10.9218 6.24774 10.902C6.25752 10.8821 6.31097 10.8486 6.31097 10.8327C6.31207 10.8184 6.30752 10.8041 6.2983 10.793C6.28907 10.782 6.27589 10.7749 6.26156 10.7734C6.21606 10.7675 6.20224 10.7971 6.20224 10.7971C6.20224 10.7971 6.15869 10.7636 6.12323 10.758C6.14421 10.7555 6.16533 10.7541 6.18646 10.754C6.13181 10.7292 6.07383 10.7126 6.01437 10.7046C6.06378 10.675 6.16078 10.5879 6.22401 10.5879C6.28724 10.5879 6.32687 10.5781 6.31697 10.5445C6.30706 10.5108 6.25765 10.4614 6.20432 10.4416C6.22401 10.4179 6.23796 10.3823 6.19051 10.2852C6.14096 10.1883 6.16078 10.123 6.17669 10.0994C6.1905 10.0697 6.23992 10.0163 6.26364 9.9827C6.28737 9.94906 6.30719 9.90356 6.34669 9.87984C6.36651 9.86602 6.42974 9.84072 6.4931 9.8166C6.56233 9.79288 6.61969 9.76315 6.65919 9.79288C6.70274 9.82247 6.68292 9.8621 6.68292 9.8621C6.68292 9.8621 6.81942 9.81256 6.94197 9.87592C7.06465 9.93511 7.36334 9.97279 7.36334 9.97279L7.47037 10.1884L6.76232 10.7956L6.46963 10.942L6.40992 10.9514Z" fill="#E5C66B"/>
<path fill-rule="evenodd" clip-rule="evenodd" d="M7.3927 9.95879C7.3927 9.95879 7.17315 10.1052 7.12374 10.1585C7.15333 10.1626 7.20274 10.1824 7.18293 10.212C7.1592 10.2416 7.01683 10.3444 6.9377 10.4414C6.85465 10.5383 6.77551 10.661 6.74787 10.7203C6.71828 10.7736 6.49273 10.9299 6.41568 10.9496C6.57787 10.9496 6.90419 10.7499 7.02674 10.7499C7.02283 10.8092 7.06038 10.8765 7.1296 10.8823C7.19883 10.8882 7.39856 10.9259 7.66752 10.7598C7.93648 10.5976 7.84757 10.4769 7.96021 10.3979C8.17585 10.2554 8.2628 10.1288 8.38144 10.0498C8.50008 9.97078 8.56149 9.95279 8.56149 9.95279C8.56149 9.95279 8.5654 9.89347 8.6006 9.89947C8.61023 9.90057 8.61938 9.90429 8.62706 9.91022C8.63473 9.91615 8.64064 9.92406 8.64414 9.9331C8.64414 9.9331 8.84987 9.78669 9.11348 9.74719C9.10733 9.74444 9.10242 9.73952 9.09967 9.73337C9.09967 9.73337 9.11935 9.72346 9.12339 9.71356C9.12339 9.71356 9.13721 9.69374 9.14712 9.70365C9.15703 9.71355 9.17085 9.78669 9.19067 9.81642C9.23421 9.7966 9.31726 9.61069 9.31726 9.61069L9.51712 9.03914V8.517L9.36067 8.54672L8.18732 9.045L7.47522 9.78278L7.3927 9.95879Z" fill="#E6BD62"/>
<path fill-rule="evenodd" clip-rule="evenodd" d="M10.7708 7.39767C10.8342 7.38227 10.8951 7.35758 10.9513 7.3244C10.9276 7.38776 10.9276 7.45699 10.8247 7.60731C10.7219 7.75763 10.718 7.7794 10.6349 7.93559C10.5519 8.09777 10.542 8.33114 10.4628 8.43387C10.4983 8.41664 10.5363 8.40532 10.5755 8.40037C10.5755 8.40037 10.4965 8.4696 10.4628 8.54273C10.4292 8.61587 10.3699 8.76815 10.2236 8.86123C10.0773 8.95432 9.89126 9.01351 9.69153 9.23306C9.49167 9.44856 9.28607 9.72156 9.18308 9.81973C9.23653 9.72678 9.30967 9.54087 9.32949 9.41832C9.3493 9.29577 9.32545 9.14923 9.35908 8.98717C9.39272 8.82512 9.39272 8.70831 9.55464 8.4254C9.71656 8.14249 9.99374 7.15961 9.99374 7.15961L10.591 6.96979L10.7708 7.39767Z" fill="#B6933F"/>
<path fill-rule="evenodd" clip-rule="evenodd" d="M10.3395 7.03574C10.3395 7.03574 10.1596 7.29479 10.1102 7.52425C10.0608 7.7537 10.1062 7.73389 10.0766 7.84666C10.0589 7.91542 10.0589 7.98754 10.0766 8.0563C10.1389 7.95592 10.2242 7.87181 10.3255 7.81094C10.4956 7.7082 10.6341 7.63494 10.7166 7.54798C10.7996 7.45502 10.8689 7.30275 11.0488 7.18606C10.9756 7.17615 10.8728 7.14252 10.8532 7.14695C10.9265 7.0639 11.1459 6.93731 11.3674 6.78504C11.587 6.62859 11.5731 6.56549 11.9292 6.4093C11.8125 6.42912 11.7571 6.39939 11.6601 6.4093C11.6992 6.32625 11.8361 6.28662 11.973 6.15025C12.1099 6.01388 11.886 5.81206 11.886 5.81206L10.843 6.44294L10.3395 7.03574Z" fill="#C49937"/>
<path fill-rule="evenodd" clip-rule="evenodd" d="M7.50951 6.56501L7.53324 6.37519L7.83192 5.89659L8.14442 5.05608V3.90697L8.1207 3.24246L8.17011 2.80728L8.20765 2.66895L8.24729 2.6155L8.5023 2.74796L8.85443 3.22656L8.88807 4.15025L8.54584 5.60781L7.56883 6.67387L7.50951 6.56501Z" fill="#DFC068"/>
<path fill-rule="evenodd" clip-rule="evenodd" d="M8.28685 2.56203C8.28685 2.56203 8.1304 2.56607 8.09703 3.21676C8.06365 3.86745 8.04748 4.20955 8.02376 4.53196C8.00003 4.85437 7.94475 5.05006 7.91698 5.24001C7.88921 5.42997 7.87344 5.68889 7.78452 5.84716C7.74541 5.9203 7.66184 6.14975 7.46602 6.32185C7.24647 6.51167 6.91846 6.64426 6.86878 6.65417C6.7817 6.67385 6.34065 6.7174 6.16073 6.81635C6.0975 6.84998 5.98864 6.88949 5.86804 7.00226C5.62868 7.21777 5.31031 7.60341 5.08085 8.06819C4.72885 8.76242 4.37684 10.7223 4.37684 10.7223L4.45598 10.5899C4.45598 10.5899 4.46589 10.4139 4.64189 10.1053C4.81398 9.7968 4.76457 9.45066 5.0038 8.85929C5.09676 8.63387 5.21344 8.34119 5.35581 8.09191C5.58136 7.68646 5.85423 7.33836 6.12918 7.14854C6.57805 6.84008 7.07256 6.7728 7.07256 6.7728L7.60461 6.4208C7.60461 6.4208 7.69756 6.24088 7.82024 6.03516C7.99221 5.74651 8.21136 5.4241 8.25921 4.95541C8.33248 4.26118 8.15634 3.8063 8.16625 3.39498C8.17616 2.98365 8.18007 2.68106 8.26325 2.60779C8.34643 2.53452 8.28685 2.56203 8.28685 2.56203Z" fill="#A88F33"/>
<path fill-rule="evenodd" clip-rule="evenodd" d="M8.28672 5.66712C8.28672 5.66712 8.52139 5.08957 8.62882 4.57734C8.64864 4.47447 8.68814 4.37174 8.69805 4.28869C8.74746 3.8041 8.76128 3.60437 8.69805 3.33932C8.64864 3.14376 8.45882 2.9675 8.35986 2.83087C8.263 2.68837 8.2175 2.63531 8.23731 2.60532C8.25713 2.57533 8.33418 2.52631 8.40927 2.53218C8.4891 2.5345 8.56762 2.55304 8.64005 2.58666C8.71249 2.62028 8.77733 2.66828 8.83064 2.72774C8.98291 2.90374 9.10351 3.50111 9.10351 3.50111L9.23036 4.28934L9.55277 5.28213L8.28672 5.66712Z" fill="#C99E3D"/>
<path fill-rule="evenodd" clip-rule="evenodd" d="M10.4919 5.06598C10.4919 5.06598 10.4483 5.08566 10.3693 5.06598C10.3727 5.09826 10.3671 5.13085 10.3531 5.16016C10.3392 5.18946 10.3174 5.21435 10.2902 5.23207C10.2071 5.19843 9.42973 5.26571 9.42973 5.26571C9.42973 5.26571 9.06782 5.20235 8.95505 4.72375C8.87604 4.40525 9.01437 3.96628 8.96887 3.67751C8.89964 3.25223 8.80277 3.16905 8.79286 3.03673C8.78296 2.9044 8.77305 2.87063 8.77305 2.78758C8.7295 2.77768 8.70382 2.76386 8.66041 2.76386C8.6505 2.72474 8.67018 2.69059 8.62677 2.62136C8.6505 2.63127 8.81268 2.65108 9.0025 2.831C9.15895 2.97741 9.15895 3.03073 9.18255 3.06045C9.21214 3.09005 9.45151 3.29512 9.55437 3.49955C9.65723 3.70397 9.85696 4.35584 9.90246 4.46261C9.91628 4.50616 9.94601 4.5497 10.0198 4.64852C10.1345 4.79102 10.3021 5.02686 10.4919 5.06598Z" fill="#B58634"/>
<path fill-rule="evenodd" clip-rule="evenodd" d="M9.21049 3.07032C9.3303 3.26386 9.43794 3.46467 9.53278 3.6716C9.64946 3.93456 9.71869 4.1502 9.8651 4.3262C9.78596 4.09687 9.64555 3.64591 9.5625 3.48569C9.46955 3.3162 9.27972 3.13355 9.21049 3.07032Z" fill="#A88F33"/>
<path fill-rule="evenodd" clip-rule="evenodd" d="M7.86549 6.32185C7.86549 6.32185 7.66576 6.37126 7.29394 6.56708C7.17126 6.63031 7.0547 6.68363 6.94193 6.73318C6.64898 6.86563 6.33479 6.98805 6.08551 7.05559C6.10533 7.07931 6.11511 7.08909 6.11511 7.08909C6.11511 7.08909 6.11511 7.18609 6.16856 7.24137C6.13897 7.27109 5.74329 7.54005 5.8601 8.43988C5.93911 8.41029 6.03206 8.37066 6.04588 8.37066C6.06974 8.3747 6.07561 8.43988 6.1052 8.43988C6.13479 8.43988 6.23179 8.40077 6.33466 8.26779C6.33075 8.32124 6.27143 8.85916 6.5898 9.22108C6.64911 9.15185 6.79943 8.92239 6.79943 8.92239L6.80335 8.84925C6.80335 8.84925 6.81717 8.59411 6.90034 8.36075C6.98352 8.12738 7.14557 7.95529 7.14557 7.95529L7.99182 6.74686L7.86549 6.32185Z" fill="#E6C367"/>
<path fill-rule="evenodd" clip-rule="evenodd" d="M7.07448 8.09618C7.03574 8.12356 6.99305 8.14488 6.94789 8.15941C6.93407 8.11 6.91425 7.93986 7.03094 7.77377C7.16744 7.5739 7.46599 7.31485 7.54904 7.10887C7.60249 6.97628 7.57876 6.64409 8.05345 6.21881C8.52814 5.79354 8.71392 5.64726 8.71392 5.64726L9.48129 5.26162L10.4247 5.63344L9.95598 7.47039L9.59211 8.33085L8.14497 8.05798L7.07448 8.09618Z" fill="#DCBA5A"/>
<path fill-rule="evenodd" clip-rule="evenodd" d="M7.6267 7.59736L7.80674 7.37194V7.21171C7.80674 7.21171 8.00647 7.15826 8.22198 6.93871C8.43748 6.71917 8.73617 6.29793 8.99926 6.32362C9.26235 6.35334 9.28803 6.89517 9.29794 7.04758C9.30785 7.19998 9.34149 7.54586 9.39481 7.7319C9.45413 7.91781 8.75403 8.62183 8.75403 8.62183L8.27856 8.98374L7.6267 7.59736Z" fill="#E9CE77"/>
<path fill-rule="evenodd" clip-rule="evenodd" d="M8.18389 9.47427C8.18389 9.47427 8.3303 9.24482 8.223 9.1954C8.28623 9.05304 8.40292 8.90272 8.40292 8.90272C8.40292 8.90272 8.48596 8.69712 8.75492 8.44394C9.02388 8.19075 9.1901 8.02257 9.23365 7.85257C9.26049 7.74177 9.2751 7.62836 9.27719 7.51438C9.30627 7.53813 9.33737 7.55929 9.37015 7.57761C9.41369 7.59743 9.61929 7.76743 9.5897 8.10966C9.5601 8.45189 9.43325 8.59426 9.43325 8.59426C9.43325 8.59426 9.3107 8.71681 9.22374 8.78017C9.13065 8.8434 9.09715 8.91654 8.94083 8.92253C8.9569 8.90976 8.97496 8.89972 8.99429 8.89281C8.99429 8.89281 8.8321 8.87312 8.74501 8.95213C8.65792 9.03113 8.47279 9.27454 8.37984 9.34781C8.28688 9.40713 8.18389 9.47427 8.18389 9.47427Z" fill="#CDAE50"/>
<path fill-rule="evenodd" clip-rule="evenodd" d="M14.7598 5.62751C14.5262 5.54235 14.2806 5.49431 14.0321 5.48514C13.6167 5.47132 13.0096 5.49505 12.4143 5.49896C11.7735 5.50287 11.192 5.27941 10.3852 5.23991C10.2527 5.16077 9.91583 4.81463 8.86424 5.54837C8.92747 5.54446 9.6277 5.38619 9.87085 5.69087C10.1161 5.99346 10.0469 6.50765 10.0133 6.6302C9.94998 6.9032 9.74425 7.30071 9.66134 7.57958C9.57842 7.85844 9.59798 8.00498 9.53866 8.20054C9.47934 8.3961 9.34883 8.49323 9.42589 8.71864C9.52875 8.65541 9.58233 8.65541 9.75416 8.26977C9.92599 7.88413 9.89066 7.60917 10.1755 7.28285C10.4544 6.95457 10.9187 6.50557 11.0952 6.39279C11.2717 6.28002 12.6733 5.55228 14.1409 6.24652C14.4949 6.20897 14.7598 5.62751 14.7598 5.62751Z" fill="#D2A83E"/>
<path fill-rule="evenodd" clip-rule="evenodd" d="M9.45553 5.35834C9.45408 5.34348 9.4508 5.32885 9.44576 5.3148C9.43203 5.28587 9.41401 5.25919 9.3923 5.23566C9.3923 5.23566 9.04421 5.17243 8.8682 5.19212C8.55961 5.22575 8.28075 5.60748 8.15024 5.8033C8.01974 5.99912 7.85756 6.30159 7.68155 6.4579C7.68348 6.44268 7.67997 6.42726 7.67164 6.41436C7.67164 6.41436 7.68155 6.42818 7.66187 6.448C7.64218 6.46781 7.64205 6.47759 7.65196 6.48711L7.68168 6.5167C7.69146 6.5167 7.96446 6.39402 8.33628 6.04736C8.73183 5.68545 9.03443 5.4998 9.1927 5.43617C9.27711 5.40031 9.3652 5.37419 9.45553 5.35834Z" fill="#C29637"/>
<path fill-rule="evenodd" clip-rule="evenodd" d="M16.2078 3.8714C16.2078 3.8714 16.1444 3.9504 16.0653 4.03749C15.8893 4.2234 15.6598 4.43291 15.464 4.64855C15.2782 4.85427 15.0686 5.0145 14.8331 5.28346C14.5977 5.55242 14.3247 5.85097 14.2556 5.93806C14.1923 6.02515 14.1429 6.16752 14.1429 6.24066C14.1093 6.21693 14.0698 6.19125 14.0698 6.19125C14.0864 6.2223 14.1063 6.25149 14.1291 6.27834C14.1785 6.34756 14.2556 6.43478 14.2952 6.48797C14.3438 6.55569 14.3787 6.63227 14.3979 6.71339C14.4217 6.7173 14.5739 6.74702 14.7639 6.43452C14.9539 6.12202 15.2029 5.77992 15.2029 5.77992L15.5984 5.19246L15.8477 4.69418L16.1606 4.13644L16.2078 3.8714Z" fill="#AC8132"/>
<path fill-rule="evenodd" clip-rule="evenodd" d="M16.6132 3.47185C16.6132 3.47185 16.3739 3.66741 16.2809 3.78475C16.188 3.90208 15.968 4.21002 15.968 4.21002L16.0471 4.20011L16.4487 3.8442L16.6051 3.56533L16.6132 3.47185Z" fill="#A88F33"/>
<path fill-rule="evenodd" clip-rule="evenodd" d="M16.54 19.189C16.54 19.189 16.536 19.0268 16.627 18.9299C16.72 18.8329 16.9553 18.6906 17.1848 18.1566C17.4142 17.6226 17.4398 17.502 17.4398 17.502C17.4398 17.502 17.0285 17.854 16.7749 17.937C16.8342 17.8143 16.8678 17.7274 16.8976 17.664C16.8639 17.6344 16.7216 17.6008 16.7077 17.585C16.7868 17.5059 16.8303 17.312 16.9905 17.1835C17.1963 17.027 17.572 16.7582 17.864 16.5186C18.1561 16.2789 18.7302 15.7216 18.8035 15.5594C18.847 15.6226 18.8568 15.6621 18.8568 15.6621C18.8568 15.6621 18.5682 16.038 18.4178 16.2772C18.2853 16.483 18.2952 16.5997 18.2952 16.5997L18.5682 16.4823C18.5682 16.4823 18.6472 16.775 18.2893 17.2201C18.4457 17.1608 18.5088 17.1964 18.5978 17.1468C18.4514 17.2399 18.2497 17.3665 18.0598 17.7145C17.8739 18.0626 17.6207 18.468 17.1936 18.7211C16.7783 18.9881 16.5389 19.1878 16.5389 19.1878L16.54 19.189Z" fill="#A67A2E"/>
<path fill-rule="evenodd" clip-rule="evenodd" d="M15.4679 5.83337C15.4679 5.83337 15.3058 6.17143 15.282 6.43452C15.2781 6.49788 15.2622 6.54729 15.2622 6.62043C15.2583 6.85575 15.276 7.11885 15.2231 7.2414C15.2033 7.19199 15.1934 7.15835 15.1736 7.13866C15.144 7.22171 15.0905 7.48076 15.047 7.57763C15.0273 7.5144 14.9837 7.29485 14.9878 7.0358C14.9918 6.77675 14.9976 6.72721 14.9976 6.67388C14.9878 6.75289 14.9343 6.8598 14.9145 6.92303C14.8849 6.8697 14.8513 6.80048 14.8116 6.74311C14.7879 6.78222 14.7583 6.83998 14.7326 6.8697C14.7286 6.84598 14.7188 6.78262 14.7128 6.6937C14.7089 6.59084 14.7029 6.45838 14.7089 6.43061C14.7187 6.37729 14.8019 6.16765 14.9779 5.97574C15.1875 5.74628 15.4031 5.30536 15.4664 5.16886C15.5296 5.03236 15.7986 4.46485 15.7986 4.46485H16.0043L15.7056 5.14514C15.7056 5.14514 15.5257 5.51696 15.4327 5.65359C15.3398 5.79022 15.144 6.18173 15.0569 6.334C15.1201 6.25096 15.1736 6.20741 15.2369 6.12827C15.2982 6.07287 15.4679 5.83337 15.4679 5.83337Z" fill="#8C6228"/>
<path fill-rule="evenodd" clip-rule="evenodd" d="M16.617 3.44609C16.5834 3.54952 16.5303 3.64556 16.4606 3.729C16.3379 3.87541 16.0748 4.0711 15.9464 4.22729C15.8291 4.37956 15.5944 4.79493 15.701 5.28735C15.7401 5.18057 15.8138 4.96898 16.0096 4.72961C16.2054 4.49025 16.4151 4.21542 16.5181 4.00187C16.6208 3.78624 16.6346 3.61623 16.6346 3.61623L16.6737 3.56682L16.65 3.45405L16.617 3.44609Z" fill="#CBA94C"/>
<path fill-rule="evenodd" clip-rule="evenodd" d="M20.6219 16.5644C20.6219 16.5644 20.5428 16.3489 20.519 16.1531C20.4953 15.9573 20.5582 15.9184 20.4854 15.6943C20.4419 15.5578 20.3629 15.577 20.343 15.5578C20.3232 15.5386 20.3094 15.3324 20.3133 15.2196C20.3172 15.1068 20.3094 14.9606 20.2896 14.8972C20.26 14.8735 20.2402 14.8536 20.1966 14.7074C20.1472 14.561 20.1235 14.4878 20.0998 14.4444C20.076 14.401 20.0067 14.3614 20.0067 14.3178C20.0067 14.2307 20.0858 14.1854 20.0858 14.1614C20.0819 14.112 20.0226 14.1516 20.0067 14.1376C19.987 14.1139 20.0562 13.9715 20.0305 13.9517C20.0206 13.942 19.9514 14.025 19.9335 14.0013C19.9137 13.9774 19.89 13.7421 19.8544 13.5859C19.8209 13.4336 19.7852 13.3229 19.7813 13.2774C19.7773 13.2339 19.5083 12.4665 19.4431 12.2806C19.3905 12.1235 19.3463 11.9638 19.3106 11.802C19.2908 11.7091 19.277 11.5191 19.2671 11.5389C19.2572 11.5587 19.2632 11.6556 19.2473 11.6517C19.2334 11.6477 19.184 11.3096 19.1682 11.2561C19.1544 11.2027 19.0713 11.0215 19.0509 10.8903C19.0311 10.7577 18.9877 10.4116 18.958 10.1763C18.9282 9.94095 18.9144 9.84408 18.9144 9.78515C18.9193 9.64102 18.9113 9.49674 18.8907 9.35401C18.8516 9.10473 18.7733 8.80214 18.7048 8.62627C18.5723 8.29395 18.2202 7.44353 18.1572 7.23193C18.1572 7.17848 18.2264 7.2082 18.2264 7.2082C18.2264 7.2082 18.3984 7.63935 18.525 7.97154C18.6477 8.30386 18.7644 8.59654 18.7941 8.62627C18.8178 8.65586 19.0037 8.98218 19.0868 9.51619C19.1698 10.0502 19.1994 10.5426 19.2489 10.8709C19.2727 11.0273 19.2925 11.1933 19.3419 11.3594C19.3952 11.5394 19.4783 11.7254 19.5871 12.0101C19.6801 12.2495 19.7493 12.4492 19.7869 12.6213C19.8304 12.8408 19.8304 13.0069 19.8561 13.1158C19.88 13.2087 19.9154 13.3945 19.9986 13.6633C20.0818 13.9322 20.2042 14.2784 20.2872 14.4939C20.4495 14.9251 20.5219 15.285 20.5464 15.477C20.5681 15.6747 20.6417 16.3588 20.6219 16.5644Z" fill="#A88F33"/>
<path fill-rule="evenodd" clip-rule="evenodd" d="M16.627 3.42231L16.617 3.44609C16.617 3.44609 16.6467 3.45595 16.6408 3.49558C16.6412 3.54981 16.6379 3.60399 16.6309 3.65776C16.6211 3.72699 16.6013 3.78032 16.5974 3.82386C16.5974 3.91682 16.6112 4.02359 16.4801 4.28864C16.4409 4.36178 16.4168 4.42501 16.397 4.46855C16.3476 4.57533 16.3377 4.59123 16.2941 4.64064C16.3634 4.60153 16.6126 4.44509 16.7391 4.46855C16.6521 4.51796 16.5196 4.61496 16.4365 4.74155C16.4563 4.74546 16.5394 4.76137 16.6712 4.74155C16.8907 4.70792 17.136 4.62878 17.3515 4.64456C17.5869 4.65837 17.494 4.36178 17.494 4.36178L17.2223 3.76454L16.7081 3.40276L16.627 3.42231Z" fill="#BE9C44"/>
<path fill-rule="evenodd" clip-rule="evenodd" d="M17.9678 7.8961C17.9678 7.8961 17.7384 7.66664 17.6454 6.87919C17.5525 6.08809 17.5723 4.9236 17.5723 4.9236L17.3864 4.46873C17.3864 4.46873 17.3473 4.16614 17.2499 4.05349C17.1525 3.94085 16.9612 3.7509 16.8741 3.65794C16.787 3.56499 16.6882 3.4384 16.6289 3.41858C16.6585 3.36917 16.7911 3.0903 17.2993 3.08639C17.8075 3.08248 17.9642 3.36526 18.0172 3.46812C18.0703 3.57099 18.3099 4.01569 18.3988 4.86311C18.4819 5.70949 18.4859 5.77285 18.4721 6.06554C18.4622 6.22772 18.4088 6.60345 18.3157 7.00487C18.2307 7.34514 18.138 7.72414 17.9678 7.8961Z" fill="#A17C34"/>
<path fill-rule="evenodd" clip-rule="evenodd" d="M17.2484 8.57044C17.3248 8.57596 17.4012 8.55872 17.4679 8.5209C17.5411 8.51699 17.8061 8.55063 18.0098 8.29158C18.0236 8.35076 18.0593 8.51112 17.9662 8.65349C18.0158 8.60395 18.0889 8.58426 18.0988 8.57044C18.1027 8.64358 18.1719 8.869 17.8793 9.41682C17.9583 9.32986 18.0512 9.33377 18.1343 9.32387C18.1383 9.42673 18.1936 9.77274 18.0473 9.95878C17.9504 10.0854 17.7922 10.0457 17.7922 10.0457C17.7945 10.0181 17.7945 9.99033 17.7922 9.96269C17.7883 9.90924 17.7684 9.85592 17.7824 9.82032C17.7059 9.78539 17.6363 9.73714 17.5767 9.67783C17.4046 9.51564 17.1811 9.23886 17.1653 9.03314C17.1455 8.80368 17.3512 8.75427 17.3512 8.75427C17.334 8.73885 17.3193 8.72081 17.3077 8.70082C17.2978 8.66731 17.2879 8.61386 17.2484 8.57044Z" fill="#8C6228"/>
<path fill-rule="evenodd" clip-rule="evenodd" d="M15.723 6.08241C15.723 6.08241 15.7131 6.06859 15.6598 6.13182C15.6697 6.06859 15.6796 6.00914 15.6835 5.95177C15.7088 5.89866 15.7414 5.84941 15.7805 5.8055C15.7508 5.86468 15.731 5.91814 15.731 5.91814C15.731 5.91814 15.8042 5.78164 15.911 5.69859C15.9842 5.63927 16.0771 5.61163 16.1166 5.55622C16.1602 5.4969 16.1502 5.48699 16.1602 5.47709C16.1602 5.47709 16.2572 5.41386 16.4055 5.22781C16.4252 5.20409 16.4549 5.1784 16.4747 5.15468C16.5083 5.14086 16.5874 5.10526 16.6803 5.05768C16.7773 5.00436 16.8861 4.93122 16.9533 4.90123C17.0858 4.84191 17.2263 4.84791 17.2915 4.75482C17.3409 4.741 17.3943 4.59264 17.3845 4.46618C17.4576 4.49577 17.8334 4.72914 17.962 5.23942C18.055 5.60133 17.8888 6.15907 17.8195 6.42815C17.7503 6.69724 17.7405 6.89684 17.6435 7.01939C17.5209 7.18171 17.1254 7.41051 17.0284 7.52381C16.9454 7.61676 16.6963 7.85208 16.706 8.02209C16.7159 8.14868 16.8721 8.21765 16.9059 8.24164C16.9397 8.26563 16.9394 8.29509 17.0028 8.28075C17.0661 8.26641 17.0897 8.23721 17.1155 8.23721C17.1451 8.24112 17.1451 8.24711 17.1589 8.24711C17.169 8.24682 17.1789 8.24546 17.1887 8.24307C17.1887 8.24307 17.1788 8.42312 16.7575 8.47774C16.7278 8.48179 16.6982 8.49156 16.6605 8.49756C16.7101 8.47383 16.7397 8.47383 16.7931 8.40069C16.7338 8.39078 16.5637 8.38088 16.5201 8.36706C16.5339 8.34333 16.5794 8.27997 16.617 8.25037C16.6506 8.22078 16.6131 8.21126 16.5835 8.22665C16.5325 8.26131 16.4836 8.29892 16.4371 8.33929C16.3877 8.38283 16.3441 8.44215 16.265 8.49574C16.2412 8.4166 16.2452 8.26628 16.3382 8.15755C16.3144 8.16146 16.2689 8.23069 16.2255 8.21687C16.2176 8.14473 16.2223 8.07178 16.2393 8.00123C16.263 7.91219 16.3916 7.756 16.3916 7.756L17.0125 6.6464L17.145 5.80589L15.723 6.08241Z" fill="#92723A"/>
<path fill-rule="evenodd" clip-rule="evenodd" d="M15.6894 6.12993C15.6894 6.12993 15.6557 6.15366 15.723 6.19916C15.7131 6.21298 15.6894 6.26239 15.6597 6.29603C15.6261 6.33514 15.5904 6.35939 15.5766 6.39303C15.547 6.46225 15.5233 6.50971 15.5233 6.53943C15.5233 6.56916 15.5134 6.75898 15.4303 6.88153C15.4006 6.92508 15.367 6.99822 15.3432 7.04763C15.2938 7.13459 15.2503 7.20407 15.2404 7.24319C15.2207 7.31241 15.2069 7.50224 15.2069 7.50224C15.2069 7.50224 15.2504 7.44878 15.2662 7.4291C15.2423 7.47851 15.2166 7.53183 15.1791 7.57146C15.2028 7.55165 15.2721 7.50224 15.3887 7.39937C15.5509 7.263 15.8041 7.03355 16.1127 6.85181C16.0196 6.88544 15.9406 6.88544 15.8774 6.89535C15.9268 6.84594 16.3717 6.3238 16.6051 6.27439C16.6193 6.25642 16.6263 6.23386 16.6249 6.21103L16.4251 6.19134L16.0196 6.2783L15.9604 5.9654L15.6894 6.12993Z" fill="#B18E3E"/>
<path fill-rule="evenodd" clip-rule="evenodd" d="M16.3344 7.90988C16.3344 7.90988 16.2809 7.9632 16.2315 8.09579C16.1935 8.05607 16.1608 8.01149 16.1345 7.9632C16.0614 7.84065 15.9487 7.68434 15.6856 7.77338C15.6817 7.69033 15.6757 7.64679 15.6856 7.58747C15.7292 7.57769 15.8616 7.47091 15.9941 7.3146C16.0872 7.20782 16.1741 7.08514 16.2335 6.92896C16.2726 6.89923 16.3402 6.84982 16.429 6.79246C16.5556 6.7055 16.7079 6.58673 16.7316 6.45427C16.6723 6.478 16.5457 6.53732 16.3557 6.52754C16.429 6.4939 16.5417 6.45831 16.5278 6.3119C16.5576 6.29209 16.5813 6.27827 16.5813 6.27827C16.559 6.27083 16.5355 6.26747 16.5121 6.26836C16.508 6.25454 16.5022 6.23485 16.4685 6.24463C16.4349 6.25441 16.4294 6.25454 16.425 6.26836C16.4111 6.2724 16.3657 6.26836 16.332 6.29222C16.2984 6.31607 16.2054 6.39495 16.1698 6.40877C16.1836 6.38504 16.2033 6.34958 16.2033 6.34958C16.2033 6.34958 16.1065 6.35936 16.0372 6.38869C15.9106 6.43224 15.7644 6.51137 15.616 6.58842C15.6298 6.56469 15.6358 6.54931 15.6456 6.54488C15.6554 6.54045 15.6792 6.5351 15.6792 6.53106C15.6792 6.52702 15.6695 6.49195 15.6753 6.47774C15.7197 6.38377 15.772 6.29379 15.8318 6.20878C15.901 6.11569 15.9148 5.98323 15.9148 5.98323L16.2174 5.83096L17.0678 5.6354L17.6197 5.66903L17.5505 6.05077L17.2245 6.71723L16.9457 7.32438L16.6272 7.69633L16.3344 7.90988Z" fill="#543E26"/>
<path fill-rule="evenodd" clip-rule="evenodd" d="M17.7126 6.25799C17.7126 6.25799 17.3803 6.66932 17.2873 6.73268C17.3467 6.60609 17.7126 5.85253 17.8451 5.64289C17.8155 5.61917 17.7758 5.61917 17.8688 5.25178C17.7898 5.43756 17.762 5.53455 17.6968 5.58396C17.6316 5.63338 17.6236 5.6176 17.5795 5.6176C17.5878 5.60255 17.5912 5.58528 17.5893 5.56819C17.5893 5.56819 17.3104 5.53455 17.1199 5.53455C16.9295 5.53455 16.5524 5.63742 16.3427 5.72047C16.1766 5.78969 16.0836 5.78969 16.0243 5.83311C15.965 5.88252 15.9313 5.93597 15.9016 5.94979C15.8779 5.96361 15.7652 5.9992 15.7394 6.03675C15.7157 6.07586 15.6762 6.1198 15.6762 6.1297C15.6762 6.13961 15.6663 6.15356 15.696 6.14352C15.7058 6.13961 15.7791 6.09998 15.8621 6.05057C15.9747 5.98734 16.1112 5.9142 16.2102 5.87065C16.493 5.75788 16.582 5.7777 16.7085 5.75397C16.8409 5.73024 17.0309 5.67483 17.1574 5.67483C17.2839 5.67092 17.5233 5.67483 17.5787 5.68474C17.555 5.70456 17.5352 5.72829 17.5451 5.81134C17.5451 5.83506 17.5253 5.86075 17.506 5.91811C17.4468 6.08029 17.334 6.34925 17.2713 6.48575C17.1843 6.67153 17.0855 6.82785 17.0366 6.92472C16.9877 7.02158 16.8802 7.27672 16.7737 7.41322C16.6671 7.54972 16.6115 7.63277 16.5781 7.6625C16.5447 7.69222 16.3051 7.86809 16.323 7.93145C16.3665 7.91764 16.6415 7.81412 16.8411 7.58936C17.0407 7.36459 17.0804 7.22744 17.2366 7.10476C17.3928 6.98208 17.5155 6.77648 17.5886 6.60648C17.6499 6.44821 17.6356 6.3984 17.7126 6.25799Z" fill="#806031"/>
<path fill-rule="evenodd" clip-rule="evenodd" d="M10.5513 9.32792C10.5513 9.32792 10.5077 9.50784 10.4088 9.59688C10.3119 9.68397 10.1398 9.75907 10.1201 9.90548C10.0964 10.0518 10.2922 10.125 10.2922 10.125C10.2922 10.125 10.1853 10.301 10.1853 10.4335C10.1853 10.57 10.1814 10.5957 10.1952 10.7262C10.1796 10.7363 10.1662 10.7496 10.1561 10.7653C10.1561 10.7653 10.1659 10.8919 10.2629 10.9709C10.3599 11.0499 10.4428 11.0975 10.4922 11.0777C10.4998 11.0938 10.5064 11.1103 10.512 11.1272C10.512 11.1272 10.5853 10.9413 10.6347 10.7791C10.6841 10.613 10.7277 10.6366 10.7474 10.4131C10.767 10.1897 10.982 9.806 10.982 9.806L11.1287 9.47811L10.8895 9.2922L10.5513 9.32792Z" fill="#B6903C"/>
<path fill-rule="evenodd" clip-rule="evenodd" d="M10.9962 9.65029C10.9468 9.70093 10.9013 9.75514 10.8599 9.81247C10.7967 9.89956 10.7473 9.97856 10.6543 10.0123C10.5614 10.0461 10.502 10.0458 10.5079 10.1389C10.5138 10.232 10.6009 10.2714 10.6503 10.3188C10.7037 10.3682 10.7473 10.4513 10.7236 10.5444C10.7531 10.5306 10.8066 10.5147 10.856 10.4079C10.9054 10.3011 11.251 9.65042 11.251 9.65042L10.9962 9.65029Z" fill="#685026"/>
<path fill-rule="evenodd" clip-rule="evenodd" d="M12.3593 8.14914C12.3593 8.14914 12.3889 8.07013 12.3593 8.01277C12.3295 7.95345 12.1496 7.93363 12.0606 7.86636C11.9676 7.79713 11.8549 7.74902 11.7619 7.7794C11.7757 7.74577 11.8311 7.6725 11.7856 7.65672C11.7421 7.6429 11.58 7.71604 11.5365 7.74968C11.4929 7.78331 11.394 7.82282 11.3743 7.84667C11.3546 7.87053 11.3208 7.9159 11.301 7.89609C11.2812 7.88227 11.2714 7.84667 11.2378 7.86636C11.2042 7.88605 11.0422 8.01864 11.0124 8.09582C10.9825 8.173 10.9154 8.34509 10.7137 8.54078C10.512 8.73647 10.4249 8.86319 10.4842 8.93633C10.5436 9.00947 10.5713 8.95615 10.5812 9.01938C10.5889 9.08145 10.5855 9.14438 10.5713 9.20529C10.5476 9.30815 10.5081 9.40502 10.5614 9.42483C10.6979 9.46838 10.8305 9.38572 10.8601 9.41102C10.9194 9.46434 10.8265 9.65625 10.9669 9.69379C11.1094 9.73291 11.2498 9.66016 11.2498 9.66016L11.7679 9.38129L12.2663 9.11833L12.5213 8.61392L12.3846 8.19268L12.3593 8.14914Z" fill="#D4B968"/>
<path fill-rule="evenodd" clip-rule="evenodd" d="M11.8705 9.3536C11.8705 9.3536 11.7834 9.22114 11.8903 9.10433C11.9972 8.98752 12.1494 8.93824 12.2087 8.8651C12.1974 8.85117 12.1822 8.84087 12.1651 8.8355C12.2045 8.76504 12.2646 8.70838 12.3372 8.67319C12.3076 8.64359 12.268 8.61986 12.2246 8.61986C12.1276 8.61986 12.0681 8.67918 11.9792 8.67918C11.8923 8.67918 11.8823 8.63564 11.8823 8.63564C11.8823 8.63564 12.0288 8.62182 12.0148 8.5565C12.001 8.48728 11.9757 8.48728 11.9757 8.48728C11.9757 8.48728 12.2585 8.36994 12.3079 8.30736C12.3573 8.24478 12.3514 8.17086 12.3613 8.14127C12.3948 8.14127 12.5907 8.0384 12.6698 8.08195C12.7489 8.12549 12.6935 8.24413 12.6935 8.24413C12.6935 8.24413 12.933 8.06409 13.055 7.88756C13.1618 7.89747 13.2115 7.81442 13.2897 7.81442C13.3867 7.81442 13.539 7.94688 13.5686 8.22966C13.5884 8.39184 13.618 8.4848 13.5884 8.77162C13.5746 8.9338 13.5785 9.28007 13.6275 9.4519C13.661 9.5884 13.7402 9.57458 13.7402 9.57458C13.728 9.61618 13.7039 9.6533 13.6709 9.68136C13.6175 9.73077 13.6116 9.8614 13.6175 9.91082C13.6254 9.94694 13.6353 9.98259 13.6472 10.0176C13.6472 10.0176 13.584 10.0907 13.5681 10.1403C13.5542 10.1897 13.4891 10.2233 13.4415 10.2233C13.3939 10.2233 13.4177 10.2193 13.3545 10.2233C13.2913 10.2274 13.2715 10.2371 13.2318 10.2233C13.1922 10.2095 13.1626 10.1936 13.1785 10.0669C13.1923 9.94028 12.69 9.64564 12.69 9.64564L11.8687 9.35295L11.8705 9.3536Z" fill="#CCA849"/>
<path fill-rule="evenodd" clip-rule="evenodd" d="M10.9269 10.6036C10.9269 10.6036 11.1069 10.8429 11.8466 10.8429C12.1986 10.8429 12.3213 10.8093 12.3942 10.7895C12.4733 10.7697 12.7699 10.6531 13.0686 10.301C13.3375 9.98262 13.2782 9.85212 13.2782 9.85212L13.1218 9.82839L12.6133 9.89762L11.1088 10.5384L10.9269 10.6036Z" fill="#585136"/>
<path fill-rule="evenodd" clip-rule="evenodd" d="M11.4789 10.6629C11.4789 10.6629 10.8381 10.8054 10.8381 10.3999C10.8381 10.0044 11.2336 9.58901 11.3326 9.51587C11.4354 9.4426 11.6807 9.35942 11.6807 9.35942H12.272L12.3847 9.6581L12.3353 10.3028L11.4789 10.6629Z" fill="#252211"/>
<path fill-rule="evenodd" clip-rule="evenodd" d="M12.0701 9.48017C12.0701 9.48017 11.9475 9.3674 11.6687 9.51929C11.3898 9.67117 11.1643 9.98863 11.1504 10.2769C11.1366 10.5319 11.3601 10.7218 11.7082 10.7318C11.9672 10.7415 12.1235 10.7119 12.2027 10.6926C12.1829 10.6689 12.08 10.5404 12.08 10.5404L12.0701 9.48017Z" fill="#C3B378"/>
<path fill-rule="evenodd" clip-rule="evenodd" d="M11.9496 9.54334C11.9496 9.54334 11.92 9.51962 11.8323 9.56707C11.7592 9.60618 11.6524 9.70957 11.5693 9.78271C11.5159 9.82625 11.4822 9.84594 11.452 9.87957C11.3293 10.026 11.2265 10.2653 11.2859 10.384C11.3454 10.5026 11.541 10.6391 12.0395 10.5462L11.9482 9.54347L11.9496 9.54334Z" fill="#E6D89C"/>
<path fill-rule="evenodd" clip-rule="evenodd" d="M11.7874 9.7887C11.7874 9.7887 11.7082 9.91138 11.7082 10.1072C11.7082 10.3069 11.821 10.6253 12.2364 10.649C12.5547 10.6688 12.7683 10.1902 12.9997 10.0043C13.1757 9.86197 13.2825 9.85793 13.2825 9.85793C13.2825 9.85793 13.1026 9.66237 12.622 9.40905C12.1473 9.15392 11.6153 9.12028 11.3265 9.51192C11.463 9.50201 11.9041 9.38924 11.9041 9.38924L12.1197 9.45847L11.7874 9.7887Z" fill="#252211"/>
<path fill-rule="evenodd" clip-rule="evenodd" d="M12.4083 10.0477C12.3945 10.0181 12.3846 9.97849 12.442 9.96872C12.4993 9.95894 12.525 9.96467 12.5448 10.0078C12.5647 10.051 12.5839 10.087 12.5546 10.1048C12.525 10.1206 12.448 10.1051 12.4083 10.0477ZM12.3154 9.76885C12.3154 9.76885 12.2956 9.78267 12.3055 9.75503C12.3094 9.72153 12.3352 9.66208 12.3984 9.67603C12.4617 9.68998 12.448 9.75908 12.4375 9.77889C12.4271 9.79871 12.3743 9.83222 12.3347 9.818C12.3297 9.81672 12.325 9.81427 12.3211 9.81085C12.3172 9.80743 12.3142 9.80314 12.3122 9.79833C12.3103 9.79351 12.3095 9.78831 12.31 9.78314C12.3104 9.77798 12.3126 9.77325 12.3154 9.76885Z" fill="#6F674D"/>
<path fill-rule="evenodd" clip-rule="evenodd" d="M6.96182 9.89532C6.96182 9.89532 7.11827 10.0127 7.30001 10.0081C7.47992 10.004 7.71133 9.81827 7.81811 9.6995C7.88134 9.63027 7.93544 9.55713 7.99411 9.49977C8.04365 9.45036 8.07716 9.42663 8.10089 9.39299C8.13452 9.35388 8.17012 9.28035 8.18798 9.25649C8.14443 9.29013 8.0812 9.34958 8.01588 9.38908C7.95265 9.42819 7.81615 9.50172 7.76075 9.52154C7.70742 9.54136 7.1536 9.83443 7.1536 9.83443L6.96182 9.89532Z" fill="#AC924C"/>
<path fill-rule="evenodd" clip-rule="evenodd" d="M7.20106 8.43403C7.20106 8.43403 7.28802 8.37471 7.4562 8.33703C7.61838 8.29792 7.94471 8.26781 7.94471 8.26781L8.21367 8.38514L8.32044 8.7906L8.12488 9.21197L7.87574 9.36841L7.59283 8.91354L7.20171 8.43481L7.20106 8.43403Z" fill="#9F8E57"/>
<path fill-rule="evenodd" clip-rule="evenodd" d="M6.84906 8.79589L6.75597 8.86538C6.75597 8.86538 6.77983 8.82184 6.79951 8.68938C6.8192 8.55692 6.92219 8.23451 7.07251 8.04859C7.22283 7.86268 7.21892 7.87259 7.21892 7.87259C7.20509 7.87006 7.19088 7.87051 7.17723 7.8739C7.16359 7.8773 7.15082 7.88356 7.13979 7.89228C7.1596 7.84847 7.2862 7.69203 7.41279 7.6138C7.53938 7.53558 7.58879 7.51094 7.72125 7.57469C7.85371 7.63844 7.88734 7.67156 7.98434 7.66765C8.08134 7.66374 8.16426 7.56087 8.16426 7.56087C8.16426 7.56087 8.18407 7.6241 8.11093 7.77051C8.03779 7.91692 7.74902 8.21547 7.74902 8.21547L7.14774 8.6268L6.84906 8.79589Z" fill="#EAC970"/>
<path fill-rule="evenodd" clip-rule="evenodd" d="M7.29379 8.38456C7.29379 8.38456 7.72897 8.44388 7.86143 8.32133C7.86534 8.33515 7.88124 8.33515 7.88124 8.34506C7.88018 8.35252 7.8767 8.35944 7.87134 8.36474C7.88574 8.36244 7.90029 8.36114 7.91488 8.36083C7.9323 8.36602 7.95022 8.36934 7.96833 8.37074C7.98293 8.37042 7.99748 8.36907 8.01188 8.3667C8.0105 8.37653 8.00716 8.38598 8.00206 8.39449C7.99695 8.403 7.99018 8.4104 7.98215 8.41624C8.00197 8.41624 8.02127 8.42015 8.02127 8.43593C8.02127 8.4517 8.02518 8.49929 8.00145 8.5092C7.98179 8.51463 7.96087 8.51321 7.94213 8.50515C7.9437 8.5426 7.95387 8.57918 7.97185 8.61206C8.01096 8.6852 8.0944 8.76851 8.20652 8.74452C8.20652 8.74452 8.26571 8.88689 8.01657 9.2033C7.98307 9.24684 7.94734 9.30616 7.90393 9.35557C7.88678 9.39296 7.87366 9.43208 7.86482 9.47226C7.86482 9.47226 8.28618 9.31007 8.40678 8.94021C8.52946 8.56838 8.55318 8.20256 8.52946 7.86046C8.52542 7.76346 8.50964 7.69437 8.48591 7.64482C8.42659 7.52214 8.26037 7.54196 8.19323 7.61119C8.09623 7.70819 7.93405 7.94938 7.70863 8.11547C7.47918 8.28156 7.46992 8.31103 7.29379 8.38456Z" fill="#D7BC6B"/>
<path fill-rule="evenodd" clip-rule="evenodd" d="M6.7719 8.91858C6.7719 8.91858 6.68885 8.96799 6.64531 9.15325C6.60176 9.34308 6.68442 9.57449 6.73226 9.64763C6.78011 9.72077 6.88871 9.92063 7.114 9.93054C7.16976 9.93024 7.2249 9.9188 7.27618 9.8969C7.35482 9.86084 7.42859 9.81497 7.49573 9.7604C7.59272 9.68726 7.67173 9.62403 7.66182 9.61803C7.63809 9.60812 7.06458 9.13344 7.06458 9.13344L6.84895 8.89277L6.7719 8.91858Z" fill="#585136"/>
<path fill-rule="evenodd" clip-rule="evenodd" d="M7.31381 9.70571C7.31381 9.70571 7.4305 9.69593 7.49973 9.65239C7.56895 9.60885 7.09427 9.1382 7.09427 9.1382L7.1279 9.64665L7.31381 9.70571Z" fill="#453A25"/>
<path fill-rule="evenodd" clip-rule="evenodd" d="M6.80929 8.88289C6.80929 8.88289 6.74997 8.99566 6.74997 9.02539C6.74006 9.12225 6.76979 9.4268 6.79351 9.52367C6.81724 9.62653 6.94579 9.78272 7.11201 9.78272C7.21475 9.78272 7.35724 9.71949 7.35724 9.70371C7.35724 9.6839 7.21084 9.6646 7.17133 9.59094C7.14761 9.55183 7.1377 9.45457 7.13222 9.35627C7.12831 9.29304 7.12831 9.22381 7.15204 9.19982C7.20549 9.1405 7.21527 8.97037 7.21527 8.97037L7.40509 8.61771H7.15543L6.85674 8.80362L6.80929 8.88289Z" fill="#84754B"/>
<path fill-rule="evenodd" clip-rule="evenodd" d="M6.73629 8.99172C6.73629 8.99172 6.93185 8.73267 7.10811 8.67322C7.28438 8.61377 7.36325 8.64949 7.36325 8.64949L7.26039 8.91259L7.11398 9.07477L7.12389 9.15782C7.12389 9.15782 7.10003 9.37736 7.24644 9.52964C7.39285 9.68191 7.50158 9.67605 7.56494 9.67605C7.6283 9.67605 7.81017 9.6226 7.90313 9.40305C7.98617 9.19745 8.0554 8.93371 7.88931 8.66931C7.72699 8.40622 7.4403 8.39605 7.3849 8.39605C7.32949 8.39605 6.89443 8.41821 6.73629 8.99172Z" fill="#252211"/>
<path fill-rule="evenodd" clip-rule="evenodd" d="M11.7576 9.87172C11.6845 9.83808 11.7537 9.63249 11.8268 9.56912C11.9 9.50576 11.9929 9.43275 12.1553 9.42272C12.2144 9.4188 12.2718 9.45635 12.262 9.49599C12.2482 9.56912 12.1453 9.67199 12.0524 9.74513C11.9238 9.84604 11.8407 9.90927 11.7576 9.87172Z" fill="#F7F7E7"/>
<path fill-rule="evenodd" clip-rule="evenodd" d="M7.80215 8.7504C7.8556 8.74649 7.92483 8.78951 7.93865 8.8474C7.95247 8.91063 7.90502 9.03722 7.80215 9.03722C7.7191 9.03722 7.67556 8.93436 7.67556 8.90476C7.6765 8.88043 7.68329 8.85668 7.69538 8.83554C7.69929 8.82954 7.7092 8.76031 7.80215 8.7504Z" fill="#F8F6DE"/>
<path fill-rule="evenodd" clip-rule="evenodd" d="M7.0308 8.79592C7.0308 8.79592 6.8943 8.85915 6.83107 8.99148C6.78589 9.0892 6.77222 9.19855 6.79196 9.30438C6.80187 9.35379 6.85128 9.47634 6.88492 9.51988C6.91855 9.56343 6.96405 9.59315 6.99769 9.58911C7.03133 9.58507 7.10042 9.49616 7.10042 9.44283C7.10042 9.38951 7.10447 9.16397 7.16965 9.04129C7.22702 8.91874 7.0308 8.79592 7.0308 8.79592Z" fill="#D4C38B"/>
<path fill-rule="evenodd" clip-rule="evenodd" d="M7.05063 8.78603C7.0269 8.79985 6.9874 8.81967 6.99718 8.84535C7.00709 8.86908 7.09013 8.88446 7.11986 8.94235C7.15349 9.00167 7.15349 9.0649 7.14359 9.09462C7.16942 9.08235 7.19286 9.06558 7.21281 9.04508C7.25636 8.99567 7.30968 8.92853 7.35518 8.92853C7.38491 8.92853 7.4145 8.94235 7.44227 8.94235C7.48581 8.94235 7.52923 8.92853 7.53522 8.88303C7.545 8.82371 7.45218 8.77026 7.39873 8.78017C7.40863 8.74105 7.42245 8.6833 7.37891 8.64367C7.33536 8.60403 7.19899 8.67339 7.16927 8.69321C7.13954 8.71302 7.05063 8.78603 7.05063 8.78603Z" fill="#E2D59D"/>
<path fill-rule="evenodd" clip-rule="evenodd" d="M10.1933 12.9412L10.486 12.8548L10.569 12.9141C10.569 12.9141 10.6282 13.0407 10.7213 13.0565C10.6915 13.1197 10.6144 13.1738 10.6184 13.2187C10.6225 13.2635 10.662 13.2978 10.662 13.2978C10.662 13.2978 10.3989 13.7329 10.9171 14.1713C10.7944 14.2207 10.6382 14.2887 10.5552 14.3278C10.6144 14.3416 10.741 14.3669 10.7944 14.4149C10.8479 14.4628 10.8479 14.4781 10.8973 14.5078C10.9467 14.5375 10.9763 14.577 10.9665 14.5948C10.9329 14.5749 10.8201 14.5158 10.8004 14.571C10.7807 14.6263 10.3119 14.6047 10.3119 14.6047L9.5208 14.7569C9.5208 14.7569 9.5504 14.6778 9.46735 14.6047C9.37048 14.5177 9.25184 14.6086 9.12525 14.5117C8.95916 14.3851 8.95316 14.2387 8.89984 14.1834C8.95316 14.1498 9.06202 14.1004 9.32107 14.0661C9.31116 14.0463 9.27753 13.987 9.29734 13.9336C9.32107 13.8644 9.41989 13.8209 9.3903 13.7381C9.43384 13.7282 9.45353 13.7282 9.56239 13.5917C9.66525 13.4552 9.72849 13.4256 9.80762 13.4157C9.88676 13.4058 9.93421 13.4157 10.0806 13.2792C10.1834 13.1823 10.1499 13.0993 10.1499 13.0993C10.1499 13.0993 10.2169 13.0778 10.1933 12.9412Z" fill="#CBAC5A"/>
<path fill-rule="evenodd" clip-rule="evenodd" d="M9.32902 12.9852C9.33293 12.9654 9.34884 12.9555 9.45562 12.9654C9.56239 12.9753 10.2388 12.9022 10.4227 12.8923C10.6086 12.8785 11.2632 12.8882 11.5817 12.9555C11.9002 13.0228 12.2225 13.1019 12.3787 13.1414C12.5351 13.185 12.5844 13.2006 12.5784 13.2204C12.5745 13.2402 12.5393 13.2595 12.5191 13.2541C12.4994 13.2502 11.9812 13.0919 11.8211 13.0585C11.661 13.0251 11.107 12.9358 10.8042 12.9412C10.5214 12.9452 10.4086 12.9373 10.1694 12.9649C9.93004 12.9946 9.53449 13.0341 9.41585 13.0184C9.29852 13.0045 9.32303 13.0051 9.32902 12.9852Z" fill="#D6BC6F"/>
<path fill-rule="evenodd" clip-rule="evenodd" d="M10.921 14.5354C10.921 14.5354 11.3265 14.7549 11.4729 15.0239C11.5797 15.2236 11.4097 15.3225 11.4097 15.3225C11.4097 15.3225 11.6391 15.3225 11.6094 15.4491C11.5956 15.5281 11.2138 15.7417 10.9587 15.8545C10.6996 15.9672 10.7096 15.9614 10.583 15.9811C10.4603 16.0009 10.124 15.9419 10.0548 16.0404C9.98559 16.1388 10.0157 16.2402 10.035 16.256C10.0548 16.2698 10.215 16.2896 10.215 16.2896C10.215 16.2896 10.1814 16.3826 9.84922 16.3925C9.51703 16.4024 9.43386 16.426 9.41404 16.4617C9.39422 16.4952 9.47727 16.4756 9.62967 16.5009C9.78195 16.5246 9.9955 16.54 9.9955 16.54C9.9955 16.54 9.92627 16.5993 9.74636 16.6467C9.54063 16.7001 9.21822 16.7496 9.12135 16.8089C9.17076 16.8426 9.24403 16.892 9.2778 16.8959C9.19475 16.9157 9.07794 16.9592 9.05825 16.975C9.08785 16.9948 9.12748 17.0186 9.12748 17.0186C9.12748 17.0186 8.96125 17.2183 8.86439 17.2678C8.76752 17.3174 8.20979 17.5763 8.01788 17.5269C7.53928 17.4003 7.47996 16.8762 7.36328 16.8367C7.18727 16.7774 7.10423 16.8959 6.94791 16.8128C7.01714 16.7634 7.05481 16.7338 7.12795 16.7002C7.04882 16.6611 6.63945 16.4015 6.63945 16.4015C6.59664 16.3082 6.54912 16.2171 6.49708 16.1286C6.41794 15.9921 6.30152 15.8101 6.21417 15.6499C6.02435 15.2979 6.01444 15.1357 5.84235 14.936C5.87207 14.8969 5.97481 14.9024 5.97481 14.9024L7.41673 15.377L9.97347 15.4511L10.6384 14.5018L10.921 14.5354Z" fill="#DFC677"/>
<path fill-rule="evenodd" clip-rule="evenodd" d="M7.13362 15.9829C7.14905 16.0001 7.16704 16.0148 7.18695 16.0265C7.23649 16.0601 7.30963 16.0998 7.35904 16.1589C7.37885 16.1293 7.42827 16.0759 7.51548 16.1589C7.6027 16.242 7.71104 16.1828 7.77845 16.2025C7.84767 16.2263 7.85159 16.2361 7.85159 16.2361C7.85159 16.2361 7.8907 16.2025 7.97818 16.1669C8.03163 16.1471 8.09486 16.1333 8.16409 16.1136C8.22732 16.0998 8.29655 16.0799 8.34413 16.0799C8.38768 16.1095 8.54386 16.2755 9.17083 16.0305C9.7622 15.8011 9.89857 15.7754 9.99752 15.8108C10.0074 15.7871 10.0173 15.7416 10.1696 15.7476C10.1696 15.6844 10.043 15.4688 10.043 15.4688L9.34487 15.2295H8.96301L7.81795 15.4392L7.18343 15.8012L7.13362 15.9829Z" fill="#C4A859"/>
<path fill-rule="evenodd" clip-rule="evenodd" d="M6.75199 15.5816C6.75199 15.5816 6.76581 15.6883 6.92408 15.8011C7.08053 15.9138 7.12968 15.981 7.12968 15.981C7.12968 15.981 7.1594 15.9419 7.18313 15.902C7.20686 15.8585 7.22668 15.8091 7.26618 15.7952C7.34532 15.7616 7.52523 15.8248 7.56486 15.8149C7.5985 15.8052 7.58859 15.7359 7.62418 15.7359C7.70723 15.7319 7.76055 15.7893 7.79028 15.7893C7.82 15.7893 7.89301 15.7853 7.90292 15.7696C7.91283 15.7538 7.91674 15.5895 8.02951 15.5104C8.15219 15.4234 8.30251 15.461 8.34241 15.4808C8.34241 15.5104 8.34632 15.5837 8.42545 15.5876C8.50459 15.5915 8.51241 15.5777 8.5819 15.6014C8.65139 15.6251 8.73418 15.5975 8.77172 15.714C8.80536 15.7042 8.8845 15.6943 8.86468 15.5816C8.90379 15.552 8.93795 15.5322 9.02113 15.4155C9.04094 15.3859 9.07445 15.3522 9.10026 15.3087C9.16949 15.3087 9.25254 15.2949 9.36322 15.3917C9.32959 15.4155 9.30977 15.4309 9.29999 15.455C9.32894 15.4836 9.35537 15.5147 9.379 15.5479C9.40872 15.587 9.42854 15.635 9.46609 15.6449C9.54913 15.6687 9.68563 15.635 9.83791 15.6449C9.98432 15.6548 10.1069 15.7082 10.1603 15.7418C10.1801 15.732 10.1801 15.728 10.2295 15.7379C10.279 15.7478 10.3165 15.7517 10.2632 15.6885C10.2928 15.7023 10.3264 15.732 10.3561 15.7023C10.3859 15.6726 10.4095 15.6292 10.4925 15.6192C10.5756 15.6093 10.6053 15.6232 10.6389 15.5362C10.6825 15.4294 10.5321 15.4294 10.5321 15.4294C10.5321 15.4294 10.6014 15.3661 10.6786 15.283C10.7715 15.1961 10.8783 15.0833 10.904 14.9448C10.9475 14.6897 10.6984 14.6562 10.6984 14.6562L9.48995 15.028L8.01256 14.9547L6.75199 15.5816Z" fill="#927D49"/>
<path fill-rule="evenodd" clip-rule="evenodd" d="M5.66614 12.0908C5.66614 12.0908 5.62703 12.1402 5.60291 12.2569C5.57879 12.3736 5.58909 12.3598 5.56927 12.4428C5.54946 12.5258 5.30605 13.3525 5.39731 13.6314C5.48857 13.9103 5.64659 14.0131 5.74541 14.2386C5.76522 14.288 5.78452 14.3177 5.79482 14.3612C5.82846 14.5075 5.79886 14.6203 5.83836 14.7667C5.85218 14.8161 5.88791 14.8735 5.94123 14.9328C6.05856 15.0553 6.24982 15.172 6.33235 15.2551C6.4489 15.3777 6.61512 15.627 6.82672 15.6506C6.93949 15.6644 7.09972 15.617 7.23218 15.538C7.34951 15.4647 7.422 15.362 7.54507 15.3033C7.63203 15.2598 7.72499 15.244 7.80803 15.2242C7.98012 15.1905 8.13644 15.1851 8.2294 15.2044C8.37176 15.2341 8.708 15.3369 8.8943 15.3369C9.03988 15.3346 9.18464 15.3147 9.32544 15.2776C9.60822 15.1946 9.95032 15.0521 10.1759 14.9888C10.3083 14.9497 10.4151 14.9394 10.524 14.9157C10.7099 14.8722 10.8661 14.8128 10.9551 14.7001C10.8958 14.6308 10.8226 14.5241 10.427 14.528C9.97809 14.5379 9.45985 14.787 9.20472 14.8267C8.94958 14.8663 8.83889 14.8998 8.55403 14.7969C8.27477 14.693 8.26551 14.6243 8.26551 14.6243C8.26551 14.6243 7.9723 14.4193 7.84962 13.8965C7.72694 13.3737 7.84962 12.9927 8.16812 12.6307C8.25117 12.5377 8.23135 12.4547 8.23135 12.4547C8.23135 12.4547 8.44099 12.1719 8.38363 11.9071C8.3204 11.644 7.91494 11.6975 7.91494 11.6975L5.66614 12.0908Z" fill="#6E6342"/>
<path fill-rule="evenodd" clip-rule="evenodd" d="M6.00432 12.971C5.98688 13.0038 5.97868 13.0407 5.98059 13.0778C5.9845 13.1311 6.00041 13.2003 6.16051 13.3566C6.29701 13.493 6.26728 13.6453 6.26728 13.6453C6.26728 13.6453 6.33599 13.6591 6.52242 13.5719C6.66883 13.5027 6.71798 13.6253 6.71798 13.6253C6.7606 13.603 6.80679 13.5883 6.85448 13.5818C6.89769 13.5778 6.93951 13.5645 6.97703 13.5427C6.97703 13.5427 7.14912 13.7187 7.29944 13.8017C7.43594 13.875 7.51508 13.9244 7.58235 13.875C7.64558 13.8315 7.64558 13.7424 7.64154 13.7029C7.62585 13.6665 7.60599 13.6319 7.58235 13.6001C7.53881 13.5368 7.46958 13.4636 7.46502 13.4045C7.45511 13.2681 7.56788 13.1058 7.54402 13.0663C7.52016 13.0268 7.43138 13.0169 7.21183 13.096C6.98446 13.1711 6.00432 12.971 6.00432 12.971Z" fill="#39331F"/>
<path fill-rule="evenodd" clip-rule="evenodd" d="M6.52243 13.855C6.52243 13.855 6.40979 13.7482 6.44929 13.23C6.49711 13.2293 6.54486 13.2339 6.59166 13.2438C6.59166 13.2438 6.65306 13.6454 6.52243 13.855Z" fill="#292311"/>
<path fill-rule="evenodd" clip-rule="evenodd" d="M5.71971 11.6953C5.73543 11.6837 5.75001 11.6706 5.76325 11.6562C5.72414 11.7293 5.54358 12.022 5.68998 12.4829C5.83639 12.9417 6.20417 13.2838 6.65709 13.2997C7.11 13.3156 7.34806 13.0939 7.62028 12.7617C7.72706 12.6293 7.84974 12.4631 7.95847 12.3504C8.12065 12.1743 8.24724 12.1249 8.24724 11.9549C8.24724 11.6068 7.8912 11.4505 7.3671 11.2943C6.843 11.1381 6.37027 11.1574 6.12504 11.2643C5.8858 11.3808 5.78307 11.5034 5.71971 11.6953Z" fill="#252211"/>
<path fill-rule="evenodd" clip-rule="evenodd" d="M7.40266 14.0113L7.44177 13.9914C7.44177 13.9914 7.45155 13.835 7.51491 13.8392C7.57814 13.8491 7.60787 13.9322 7.60187 13.9618C7.59796 13.9914 7.58218 14.041 7.51882 14.035C7.43577 14.0369 7.40266 14.0113 7.40266 14.0113Z" fill="#3F3824"/>
<path fill-rule="evenodd" clip-rule="evenodd" d="M7.22671 13.3468C7.22671 13.3468 7.26582 13.333 7.31367 13.3804C7.35278 13.3804 7.52331 13.3606 7.57676 13.3942C7.63021 13.4279 7.64599 13.4575 7.64599 13.4575C7.64599 13.4575 7.44626 13.501 7.3374 13.4575C7.22671 13.4199 7.22671 13.3468 7.22671 13.3468Z" fill="#2D2815"/>
<path fill-rule="evenodd" clip-rule="evenodd" d="M8.10685 13.3763C8.10685 13.3663 8.00008 13.2932 7.8873 13.2694C7.86749 13.2654 7.86345 13.2793 7.84819 13.2793C7.83828 13.2753 7.83437 13.2456 7.83437 13.2456L7.77023 13.2794C7.77023 13.2794 7.76032 13.2932 7.79396 13.3185C7.82355 13.3422 7.87309 13.362 7.88691 13.4015C7.90073 13.4411 7.90073 13.4549 7.90673 13.4609C7.91064 13.4648 7.97987 13.4609 8.0135 13.4411C8.04714 13.4212 8.11089 13.3893 8.10685 13.3763Z" fill="#82764F"/>
<path fill-rule="evenodd" clip-rule="evenodd" d="M7.10797 13.7779C7.10797 13.7779 7.12766 13.6415 7.26025 13.6355C7.39662 13.6256 7.42243 13.7581 7.42243 13.7581L7.3433 13.8372C7.3433 13.8353 7.28333 13.7522 7.10797 13.7779Z" fill="#2D2816"/>
<path fill-rule="evenodd" clip-rule="evenodd" d="M7.9684 13.1904C7.9684 13.1904 7.89513 13.2695 7.73308 13.2932C7.71926 13.2734 7.68953 13.2339 7.73308 13.1707C7.77662 13.1075 7.82603 13.0876 7.87544 13.1073C7.89725 13.1109 7.91758 13.1206 7.93405 13.1353C7.95052 13.15 7.96244 13.1691 7.9684 13.1904Z" fill="#574F35"/>
<path fill-rule="evenodd" clip-rule="evenodd" d="M8.26692 13.2874C8.27096 13.2675 8.25714 13.2636 8.26692 13.2537C8.2767 13.2438 8.33028 13.2241 8.34019 13.2339C8.3441 13.2379 8.34019 13.2537 8.34019 13.273C8.34019 13.2923 8.34019 13.3121 8.33028 13.3263C8.31646 13.3462 8.27696 13.3561 8.25714 13.3502C8.23733 13.3443 8.23342 13.3166 8.23342 13.3111C8.24319 13.3072 8.26692 13.2973 8.26692 13.2874ZM8.60459 13.0738C8.60459 13.0639 8.63822 13.0441 8.65804 13.0441C8.68763 13.0441 8.68763 13.0678 8.69168 13.0738C8.70145 13.0777 8.70145 13.0698 8.71136 13.0876C8.72127 13.1055 8.73522 13.137 8.72518 13.1569C8.71514 13.1767 8.67577 13.1904 8.66599 13.1864C8.65217 13.1765 8.60863 13.0876 8.60459 13.0738Z" fill="#82764F"/>
<path fill-rule="evenodd" clip-rule="evenodd" d="M7.92497 13.3329C7.92497 13.3329 7.96852 13.3426 8.02783 13.3922C8.00802 13.406 7.97829 13.4218 7.97829 13.4218C7.97829 13.4218 7.97438 13.3764 7.92497 13.3329Z" fill="#6E6342"/>
<path fill-rule="evenodd" clip-rule="evenodd" d="M7.82792 12.8977C7.81801 12.8879 7.85751 12.8642 7.88124 12.8681C7.90497 12.872 7.91488 12.8879 7.94056 12.8918C7.96624 12.8957 7.97029 12.8819 7.97967 12.872C7.98906 12.8621 8.02322 12.8681 8.02908 12.872C8.03274 12.8763 8.03605 12.881 8.03899 12.8858C8.03941 12.8783 8.04137 12.8709 8.04476 12.8642C8.04814 12.8575 8.05288 12.8515 8.05868 12.8467C8.06627 12.8411 8.07501 12.8373 8.08427 12.8356C8.09353 12.8339 8.10305 12.8343 8.11213 12.8368C8.11604 12.8506 8.13586 12.9 8.13195 12.9099C8.12804 12.9198 8.06872 12.9338 8.05868 12.9238C8.06859 12.9476 8.11213 12.997 8.118 13.0068C8.12386 13.0166 8.07445 13.0404 8.05477 13.0365C8.02713 13.0346 7.85751 12.9352 7.82792 12.8977ZM8.08697 12.5694C8.08331 12.5594 8.0763 12.551 8.06715 12.5457C8.05333 12.5418 8.00783 12.5457 8.00783 12.5694C8.00783 12.5931 8.04694 12.7258 8.09088 12.7949C8.14042 12.8642 8.17393 12.9214 8.20756 12.9373C8.21813 12.9421 8.23012 12.9427 8.24112 12.9391C8.25213 12.9354 8.26133 12.9277 8.26688 12.9175C8.2708 12.9076 8.2807 12.8344 8.27679 12.6624C8.27288 12.4903 8.26688 12.3242 8.25698 12.3143C8.24707 12.3044 8.20756 12.3045 8.19374 12.3242C8.17993 12.3439 8.09101 12.5398 8.08697 12.5694Z" fill="#585136"/>
<path fill-rule="evenodd" clip-rule="evenodd" d="M7.91101 13.582C7.91101 13.582 7.84178 13.5385 7.77451 13.5682C7.71127 13.5979 7.71519 13.7146 7.71519 13.7146C7.72941 13.7202 7.74478 13.7222 7.75996 13.7205C7.77514 13.7187 7.78966 13.7133 7.80227 13.7047C7.84582 13.6751 7.9011 13.6256 7.91101 13.582Z" fill="#574F35"/>
<path fill-rule="evenodd" clip-rule="evenodd" d="M8.04147 13.7384C8.03756 13.6992 8.00236 13.6992 8.00236 13.679C8.00478 13.6694 8.01038 13.6608 8.01825 13.6547C8.02612 13.6486 8.03581 13.6453 8.04577 13.6454C8.06559 13.6454 8.08488 13.6691 8.10913 13.6845C8.13286 13.6983 8.16845 13.7236 8.17236 13.7537C8.17628 13.7839 8.13325 13.8664 8.08541 13.8664C8.03756 13.8664 8.05138 13.7779 8.04147 13.7384ZM8.4232 13.6849C8.4232 13.6849 8.34406 13.7086 8.34993 13.6849C8.3558 13.6612 8.37379 13.6553 8.39947 13.6553C8.41252 13.6417 8.43007 13.6332 8.44888 13.6315C8.45964 13.6309 8.47021 13.6345 8.47848 13.6414C8.47848 13.6414 8.53193 13.6176 8.54771 13.6315C8.56348 13.6453 8.55175 13.6453 8.56153 13.6612C8.57398 13.6788 8.58215 13.6991 8.58539 13.7205C8.58539 13.7363 8.52607 13.7699 8.47848 13.764C8.4232 13.7522 8.43298 13.6948 8.4232 13.6849ZM8.88394 13.5959C8.88394 13.5959 8.90767 13.6097 8.88798 13.6256C8.87416 13.6394 8.80493 13.6647 8.74548 13.6691C8.68616 13.6691 8.63284 13.6789 8.63284 13.6592C8.63284 13.6395 8.68225 13.5999 8.71185 13.59C8.71778 13.5826 8.72532 13.5766 8.7339 13.5725C8.74248 13.5683 8.75188 13.5662 8.76139 13.5663C8.78512 13.5663 8.87794 13.5564 8.90376 13.5524C8.92748 13.5484 8.9473 13.5622 8.93335 13.582C8.92748 13.5959 8.88394 13.5959 8.88394 13.5959ZM9.02044 12.9852C9.02044 12.9852 8.99071 13.0484 8.95721 13.0484C8.92357 13.0445 8.92357 13.0346 8.92357 13.0247C8.92357 13.0109 8.95721 12.9753 8.95317 12.9654C8.94339 12.9654 8.91953 12.9654 8.92357 12.9416C8.92357 12.9218 8.95721 12.8981 8.9868 12.9025C9.00916 12.8842 9.03701 12.8737 9.06594 12.8729C9.09958 12.8729 9.12917 12.8827 9.12917 12.9025C9.12917 12.9224 9.09006 12.9658 9.07572 12.9758C9.05994 12.9916 9.04013 13.0015 9.02044 12.9852ZM8.56948 14.154C8.56948 14.154 8.53037 14.158 8.53037 14.1777C8.53037 14.1876 8.54015 14.1876 8.5541 14.1818C8.56213 14.1813 8.57009 14.1799 8.57782 14.1777C8.58173 14.1818 8.58173 14.2014 8.61146 14.2014C8.63587 14.1981 8.65939 14.1901 8.68069 14.1777C8.70442 14.1679 8.72423 14.1579 8.72423 14.1386C8.71432 14.105 8.69451 14.0891 8.66491 14.0891C8.64975 14.0881 8.63462 14.0915 8.62137 14.099C8.62137 14.099 8.61146 14.0792 8.57782 14.099C8.54419 14.1188 8.5481 14.1188 8.55801 14.1287C8.57574 14.1445 8.56948 14.154 8.56948 14.154ZM8.34602 14.3597C8.34602 14.3498 8.39543 14.33 8.40925 14.336C8.42307 14.3399 8.46257 14.415 8.46257 14.4229C8.46257 14.4329 8.41316 14.4566 8.39335 14.4566C8.37353 14.4566 8.34002 14.4229 8.34002 14.4175C8.34002 14.4136 8.36375 14.4077 8.36375 14.4036C8.36962 14.3939 8.34602 14.3696 8.34602 14.3597ZM8.18957 14.0709C8.19948 14.067 8.19948 14.0571 8.2133 14.0472C8.21763 14.0443 8.22256 14.0425 8.22771 14.0418C8.23286 14.0411 8.2381 14.0416 8.24303 14.0433C8.24651 14.0371 8.25134 14.0317 8.25716 14.0276C8.26298 14.0235 8.26964 14.0207 8.27666 14.0194C8.30039 14.0155 8.32021 14.0194 8.31577 14.0293C8.31577 14.0591 8.33559 14.0788 8.33559 14.1025C8.33559 14.1262 8.32177 14.1559 8.27236 14.1758C8.22295 14.1896 8.15568 14.1896 8.14577 14.1857C8.13586 14.1818 8.12595 14.1421 8.13586 14.1223C8.14577 14.1025 8.17367 14.0808 8.18957 14.0709Z" fill="#82764F"/>
<path fill-rule="evenodd" clip-rule="evenodd" d="M8.25268 14.0844C8.25268 14.0844 8.21904 14.1042 8.21904 14.1141C8.21606 14.1237 8.21474 14.1337 8.21513 14.1437C8.21513 14.1496 8.25868 14.1398 8.26454 14.1338C8.2665 14.1299 8.25268 14.0947 8.25268 14.0844Z" fill="#6E6342"/>
<path fill-rule="evenodd" clip-rule="evenodd" d="M7.95854 13.9914C7.97822 13.9954 8.01186 13.9914 8.03754 14.0013C8.05736 14.0112 8.07118 14.031 8.05136 14.0547C8.03155 14.0785 8.01225 14.114 7.96832 14.1081C7.9189 14.1041 7.87145 14.0785 7.87145 14.0586C7.87062 14.0461 7.87229 14.0335 7.87636 14.0216C7.88043 14.0098 7.88683 13.9988 7.89518 13.9894C7.91499 13.9736 7.9249 13.9835 7.95854 13.9914Z" fill="#585136"/>
<path fill-rule="evenodd" clip-rule="evenodd" d="M7.9348 14.0112C7.9348 14.0112 7.87157 14.0606 7.85567 14.0845C7.83585 14.1082 7.73898 14.2308 7.70939 14.2564C7.71922 14.2391 7.73042 14.2226 7.74289 14.207C7.70378 14.232 7.67446 14.2697 7.65985 14.3138C7.63612 14.3871 7.79243 14.4266 7.89517 14.4563C7.9979 14.486 8.03767 14.4954 8.03767 14.4954C7.99984 14.4386 7.96737 14.3783 7.94067 14.3155C7.90156 14.2225 7.88135 14.2126 7.90703 14.1691C7.92685 14.1255 7.95657 14.096 7.95657 14.0623C7.94471 14.031 7.9348 14.0112 7.9348 14.0112Z" fill="#574F35"/>
<path fill-rule="evenodd" clip-rule="evenodd" d="M5.6801 14.1676C5.69449 14.1702 5.70925 14.1702 5.72364 14.1676C5.75323 14.1635 6.06183 14.0502 6.38424 14.0706C6.6256 14.0852 6.86483 14.1245 7.09816 14.1879C7.50362 14.2947 8.0079 14.5063 8.33422 14.627C8.42118 14.6605 8.50631 14.72 8.56889 14.7436C8.81816 14.8406 8.82794 14.8406 8.97435 14.8663C9.14644 14.89 9.32245 14.8326 9.5064 14.7931C9.73182 14.7436 10.1175 14.7198 10.4556 14.6704C10.565 14.6553 10.6729 14.6308 10.7781 14.5973C10.7781 14.5973 10.5091 14.8662 9.86427 14.9631C9.60363 15.0027 9.33877 15.006 9.07722 14.973C8.87149 14.9532 8.73512 14.9235 8.63225 14.8939C8.51557 14.8603 8.27621 14.7712 7.98156 14.6983C7.77584 14.6449 7.54638 14.6054 7.28342 14.556C6.63468 14.4372 5.93093 14.3 5.6801 14.1676Z" fill="#252211"/>
<path fill-rule="evenodd" clip-rule="evenodd" d="M4.95218 12.9451C4.79573 13.0776 4.62986 13.2043 4.4678 13.3268L3.9793 13.7022C3.8132 13.8247 3.65102 13.9513 3.48479 14.074C3.31857 14.1967 3.15261 14.3132 2.97634 14.426C3.13279 14.2936 3.29875 14.1709 3.46485 14.0503C3.63094 13.9297 3.80316 13.8114 3.96339 13.6892L4.4519 13.3133C4.61995 13.1907 4.78204 13.0638 4.95218 12.9451ZM4.08803 14.3297C4.08803 14.3297 4.26403 14.1833 4.48358 13.9777C4.75645 13.7227 5.09073 13.3962 5.1975 13.337L4.08803 14.3297Z" fill="#CFB66C"/>
<path fill-rule="evenodd" clip-rule="evenodd" d="M4.08803 14.3297C4.17512 14.2427 4.2679 14.1576 4.36085 14.0744L4.50322 13.9519C4.54677 13.9128 4.59631 13.8688 4.63972 13.8253C4.72668 13.7383 4.81181 13.6452 4.89877 13.5563C4.94187 13.5116 4.98744 13.4694 5.03527 13.4297C5.05918 13.4086 5.08574 13.3906 5.11428 13.3763C5.13814 13.3625 5.16382 13.3372 5.19733 13.3327C5.17764 13.3625 5.15391 13.3763 5.13409 13.402C5.11037 13.4218 5.09055 13.4455 5.07086 13.4652C5.02732 13.5087 4.97791 13.5482 4.93436 13.5879C4.84141 13.667 4.74454 13.7443 4.65159 13.8271C4.55863 13.9099 4.47167 13.9992 4.37858 14.0823C4.27781 14.1674 4.18503 14.2501 4.08803 14.3297ZM5.27059 13.5385C5.27059 13.5385 4.6259 14.1695 4.49331 14.2722L5.27059 13.5385Z" fill="#CFB66C"/>
<path fill-rule="evenodd" clip-rule="evenodd" d="M5.27059 13.5385C5.2126 13.6056 5.15047 13.669 5.08448 13.7283L4.88892 13.9142C4.82569 13.9774 4.76624 14.0408 4.69909 14.104C4.62987 14.1634 4.56664 14.2214 4.49337 14.2761L4.68319 14.0902C4.74655 14.027 4.81578 13.9737 4.88305 13.9103L5.07287 13.7244C5.13806 13.6592 5.20137 13.5958 5.27059 13.5385ZM5.30024 13.8806C5.24082 14.0464 5.17079 14.2083 5.0906 14.3652C4.92451 14.6975 4.67537 15.1127 4.56651 15.3245L5.30024 13.8806Z" fill="#CFB66C"/>
<path fill-rule="evenodd" clip-rule="evenodd" d="M5.30024 13.8806C5.30024 13.9537 5.28051 14.0173 5.25678 14.0805C5.23365 14.1438 5.20728 14.2058 5.17777 14.2664C5.14805 14.3257 5.11441 14.3891 5.08078 14.4464C5.04714 14.5038 5.00764 14.563 4.97791 14.6224L4.77818 14.9745C4.70895 15.0918 4.64168 15.2098 4.56854 15.3225C4.61795 15.196 4.68523 15.0773 4.74859 14.9606C4.81782 14.8433 4.88105 14.726 4.94415 14.6046C4.97496 14.5441 5.00267 14.4821 5.02719 14.4188C5.05679 14.3554 5.08638 14.2961 5.11024 14.2388C5.13984 14.1755 5.16356 14.1161 5.19329 14.0588C5.22679 13.9974 5.25474 13.9379 5.30024 13.8806Z" fill="#CFB66C"/>
<path fill-rule="evenodd" clip-rule="evenodd" d="M6.00447 15.5025C6.00447 15.5025 5.80891 15.7615 5.82847 16.0898C5.88179 15.9178 5.94906 15.6548 6.00447 15.5025ZM6.19038 15.7622C6.19038 15.7622 6.12115 16.4662 6.06379 16.8123C6.14488 16.4122 6.16066 16.4459 6.19038 15.7622ZM7.48576 16.8539C7.48576 16.8539 7.19308 17.7144 7.18708 17.9535C7.25044 17.7076 7.37299 17.2059 7.48576 16.8539Z" fill="#DEC270"/>
<path fill-rule="evenodd" clip-rule="evenodd" d="M8.16996 15.4492C8.16996 15.4492 8.64465 16.2323 9.00069 16.9008C8.90435 16.5644 8.68271 15.9475 8.16996 15.4492Z" fill="#CBAF59"/>
<path fill-rule="evenodd" clip-rule="evenodd" d="M9.44576 16.6022C9.70638 17.0629 9.94141 17.5376 10.1498 18.0241C10.1103 17.6879 10.0034 17.1124 9.44576 16.6022Z" fill="#E3C677"/>
<path fill-rule="evenodd" clip-rule="evenodd" d="M13.1955 17.7569C13.2745 17.7075 13.4308 17.4384 13.5673 17.3712C13.7037 17.302 13.8066 17.2882 13.9292 17.1517C14.0518 17.0092 14.0857 16.9222 14.3544 16.8096C14.7302 16.6473 14.4717 16.4376 14.4717 16.4376C14.5131 16.397 14.5574 16.3593 14.6042 16.325C14.7012 16.2519 14.8138 16.1628 14.804 16.0065C14.7902 15.7435 14.7408 15.3618 14.5252 15.1403C14.7348 15.0968 15.1362 15.0672 15.3856 15.0039C15.6743 14.9307 15.8069 14.8278 15.8069 14.8278C15.8069 14.8278 15.6408 14.545 15.9097 14.2603C16.1787 13.9755 16.3982 13.8054 16.5604 13.4869C16.3745 13.4632 16.0911 13.3644 15.3678 13.6392C15.4068 13.6576 15.4445 13.6787 15.4805 13.7024C15.4805 13.7024 15.0356 13.8251 14.8734 13.9616C14.5905 14.2008 14.5549 14.3966 14.2484 14.5431C13.9419 14.6895 13.6333 14.6498 13.3783 14.7685C13.1233 14.8871 13.0856 14.988 12.9925 15.0316C13.0123 15.0553 12.9886 15.0948 13.0261 15.1284C13.0024 15.1621 12.864 15.3875 12.7235 15.3875C12.7374 15.4409 12.856 15.4804 12.856 15.4804C12.856 15.4804 12.769 15.5438 12.5475 15.5596C12.6602 15.6769 12.7671 15.8048 13.0617 15.9907C13.038 16.0401 12.9391 16.1134 12.9787 16.2064C13.0222 16.2993 13.1351 16.4259 13.5858 16.5288C13.3564 16.5385 13.0875 16.592 12.7254 16.5426C12.3635 16.499 12.3041 16.4734 12.0807 16.5288C12.1044 16.5525 12.1676 16.5525 12.223 16.6157C12.1637 16.6196 11.7919 16.5722 11.6653 16.7384C11.5329 16.9104 11.4755 17.1933 11.4854 17.3831C11.4162 17.4167 11.3489 17.4761 11.3825 17.5987C11.4162 17.7214 11.5922 17.7609 11.7049 17.838C11.8176 17.921 11.8275 17.9506 11.9344 17.9309C12.047 17.9072 12.2131 17.7946 12.3101 17.7946C12.4071 17.7946 12.4762 17.8677 12.4762 17.8677C12.4762 17.8677 12.7393 17.7411 12.765 17.7648C12.7887 17.7886 12.7689 17.9408 12.7946 17.9646C12.8207 17.9824 13.1164 17.8064 13.1955 17.7569Z" fill="#ECD592"/>
</svg>
