<svg width="24" height="25" viewBox="0 0 24 25" fill="none" xmlns="http://www.w3.org/2000/svg">
<path d="M12 24.0156C18.6274 24.0156 24 18.643 24 12.0156C24 5.38821 18.6274 0.015625 12 0.015625C5.37258 0.015625 0 5.38821 0 12.0156C0 18.643 5.37258 24.0156 12 24.0156Z" fill="#627EEA"/>
<path d="M11.998 3.01562V9.66812L17.6208 12.1806L11.998 3.01562Z" fill="white" fill-opacity="0.602"/>
<path d="M11.998 3.01562L6.375 12.1806L11.998 9.66812V3.01562Z" fill="white"/>
<path d="M11.998 16.4915V21.0118L17.6245 13.2275L11.998 16.4915Z" fill="white" fill-opacity="0.602"/>
<path d="M11.998 21.0118V16.4915L6.375 13.2275L11.998 21.0118Z" fill="white"/>
<path d="M11.998 15.4452L17.6208 12.1806L11.998 9.66943V15.4452Z" fill="white" fill-opacity="0.2"/>
<path d="M6.375 12.1806L11.998 15.4452V9.66943L6.375 12.1806Z" fill="white" fill-opacity="0.602"/>
</svg>
