<svg width="13" height="12" viewBox="0 0 13 12" fill="none" xmlns="http://www.w3.org/2000/svg">
<path d="M5.95388 6.31188C6.5489 6.65531 6.8464 6.82702 7.17314 6.8273C7.49987 6.82759 7.79767 6.65641 8.3933 6.31401L12.1901 4.13153C12.3614 4.03301 12.4671 3.85039 12.4671 3.65268C12.4671 3.45498 12.3614 3.27235 12.1901 3.17383L8.39193 0.990551C7.79695 0.64854 7.49945 0.477534 7.17305 0.477661C6.84662 0.477789 6.54928 0.649026 5.95456 0.991502L2.68944 2.87179C2.66524 2.88572 2.65314 2.89268 2.64186 2.89928C1.52652 3.5522 0.837432 4.74422 0.828218 6.03658C0.828125 6.04964 0.828125 6.0636 0.828125 6.09153C0.828125 6.11943 0.828125 6.13337 0.828218 6.14641C0.837411 7.43733 1.52497 8.62822 2.63832 9.28165C2.64957 9.28827 2.66164 9.29523 2.68581 9.30919L4.73108 10.4901C5.92284 11.1782 6.51872 11.5222 7.1731 11.5224C7.82747 11.5226 8.42359 11.179 9.61581 10.4917L11.7749 9.24706C12.3718 8.90292 12.6703 8.73086 12.8342 8.44719C12.9981 8.16351 12.9981 7.81899 12.9981 7.12992V5.79879C12.9981 5.60762 12.8946 5.43146 12.7276 5.33844C12.566 5.24844 12.369 5.24977 12.2086 5.34195L7.78147 7.88682C7.48445 8.05758 7.33592 8.14294 7.17293 8.143C7.00997 8.14303 6.8614 8.05775 6.56426 7.8872L3.56785 6.16719C3.41776 6.08103 3.34271 6.03795 3.28243 6.03017C3.145 6.01245 3.01286 6.08942 2.96051 6.21772C2.93756 6.27401 2.93802 6.36053 2.93895 6.53359C2.93963 6.66101 2.93997 6.72471 2.95188 6.7833C2.97856 6.91453 3.04758 7.03336 3.14839 7.12149C3.1934 7.16086 3.24856 7.19271 3.35891 7.25639L6.56257 9.10542C6.86049 9.27735 7.00944 9.36332 7.17299 9.36338C7.33656 9.36342 7.48557 9.27753 7.78356 9.10576L11.7103 6.84223C11.8121 6.78355 11.863 6.75423 11.9012 6.77627C11.9393 6.79832 11.9393 6.85706 11.9393 6.97456V7.57833C11.9393 7.75061 11.9393 7.83673 11.8983 7.90766C11.8573 7.97857 11.7827 8.0216 11.6335 8.10763L8.39469 9.97458C7.79843 10.3183 7.5003 10.4901 7.17306 10.49C6.84581 10.4898 6.54783 10.3177 5.9519 9.97346L2.92174 8.22307C2.91212 8.2175 2.90731 8.21472 2.90282 8.2121C2.26747 7.84084 1.87544 7.16164 1.87176 6.42577C1.87174 6.42058 1.87174 6.41503 1.87174 6.4039V5.84967C1.87174 5.44344 2.08809 5.06798 2.43954 4.86426C2.7501 4.68424 3.13317 4.68388 3.44406 4.86333L5.95388 6.31188Z" fill="white"/>
</svg>
