<svg width="212" height="48" viewBox="0 0 212 48" fill="none" xmlns="http://www.w3.org/2000/svg">
<path d="M71.5399 33.4211C70.0896 33.4211 68.6888 33.2715 67.3374 32.9724C65.9859 32.6733 64.8735 32.2844 64 31.8059L65.8788 27.9474C66.7028 28.3811 67.6175 28.7325 68.6228 29.0017C69.6447 29.256 70.6335 29.3831 71.5894 29.3831C72.1497 29.3831 72.5865 29.3532 72.8996 29.2934C73.2292 29.2186 73.4682 29.1214 73.6165 29.0017C73.7648 28.8671 73.839 28.7101 73.839 28.5306C73.839 28.2465 73.666 28.0221 73.3199 27.8576C72.9738 27.6931 72.5123 27.5585 71.9355 27.4538C71.3751 27.3342 70.7571 27.2146 70.0814 27.0949C69.4057 26.9603 68.7217 26.7883 68.0295 26.5789C67.3538 26.3696 66.7276 26.0929 66.1507 25.7489C65.5904 25.4049 65.1372 24.9563 64.7911 24.4029C64.445 23.8346 64.2719 23.1317 64.2719 22.2942C64.2719 21.3221 64.5686 20.4397 65.1619 19.6471C65.7717 18.8395 66.6699 18.1964 67.8565 17.7179C69.0596 17.2393 70.5511 17 72.331 17C73.5011 17 74.6548 17.1122 75.792 17.3365C76.9291 17.5608 77.9509 17.9048 78.8574 18.3684L77.1022 22.2045C76.2452 21.8156 75.4129 21.524 74.6054 21.3296C73.8143 21.1352 73.0397 21.038 72.2816 21.038C71.7212 21.038 71.2762 21.0828 70.9466 21.1726C70.617 21.2623 70.378 21.3819 70.2297 21.5315C70.0979 21.681 70.032 21.8456 70.032 22.025C70.032 22.2942 70.205 22.5111 70.5511 22.6756C70.8972 22.8251 71.3504 22.9523 71.9108 23.0569C72.4876 23.1616 73.1139 23.2738 73.7896 23.3934C74.4818 23.5131 75.1657 23.6776 75.8414 23.887C76.5171 24.0963 77.1352 24.373 77.6955 24.717C78.2723 25.061 78.7338 25.5096 79.0799 26.063C79.426 26.6163 79.599 27.3043 79.599 28.1268C79.599 29.084 79.2941 29.9663 78.6843 30.7739C78.091 31.5666 77.2011 32.2097 76.0145 32.7032C74.8278 33.1818 73.3363 33.4211 71.5399 33.4211Z" fill="#2B1D11"/>
<path d="M85.5936 29.6972L85.2722 23.887L91.7986 17.3589H98.1519L90.8344 24.6721L87.596 27.6782L85.5936 29.6972ZM80.3774 33.0621V17.3589H86.1127V33.0621H80.3774ZM91.7491 33.0621L86.6566 26.9603L90.4389 23.3261L98.498 33.0621H91.7491Z" fill="#2B1D11"/>
<path d="M102.625 33.0621V26.1752L103.96 29.3382L96.0991 17.3589H102.255L107.57 25.547H103.985L109.35 17.3589H114.986L107.174 29.3382L108.46 26.1752V33.0621H102.625Z" fill="#2B1D11"/>
<path d="M115.649 33.0621V17.3589H124.178C126.106 17.3589 127.804 17.6805 129.271 18.3236C130.738 18.9517 131.883 19.849 132.707 21.0155C133.531 22.1821 133.943 23.5729 133.943 25.1881C133.943 26.8182 133.531 28.224 132.707 29.4055C131.883 30.572 130.738 31.4768 129.271 32.1199C127.804 32.7481 126.106 33.0621 124.178 33.0621H115.649ZM121.484 28.9344H123.931C124.755 28.9344 125.472 28.7923 126.082 28.5082C126.708 28.224 127.194 27.8053 127.54 27.2519C127.886 26.6836 128.059 25.9957 128.059 25.1881C128.059 24.3955 127.886 23.7225 127.54 23.1691C127.194 22.6158 126.708 22.197 126.082 21.9129C125.472 21.6287 124.755 21.4866 123.931 21.4866H121.484V28.9344Z" fill="#2B1D11"/>
<path d="M134.846 33.0621V17.3589H143.177C144.792 17.3589 146.185 17.5982 147.355 18.0768C148.542 18.5554 149.456 19.2433 150.099 20.1406C150.742 21.023 151.063 22.0699 151.063 23.2813C151.063 24.4927 150.742 25.5395 150.099 26.4219C149.456 27.2893 148.542 27.9548 147.355 28.4185C146.185 28.8821 144.792 29.1139 143.177 29.1139H138.085L140.68 26.9379V33.0621H134.846ZM146.155 33.0621L141.903 27.3417H148.083L152.385 33.0621H146.155ZM140.68 27.5211L138.085 25.1208H142.806C143.614 25.1208 144.207 24.9563 144.586 24.6273C144.982 24.2982 145.18 23.8496 145.18 23.2813C145.18 22.713 144.982 22.2643 144.586 21.9353C144.207 21.6063 143.614 21.4418 142.806 21.4418H138.085L140.68 19.0414V27.5211Z" fill="#2B1D11"/>
<path d="M161.433 33.4211C160.032 33.4211 158.73 33.2192 157.527 32.8154C156.34 32.4116 155.31 31.8433 154.437 31.1104C153.563 30.3627 152.879 29.4878 152.385 28.4858C151.907 27.4838 151.668 26.392 151.668 25.2105C151.668 24.0141 151.907 22.9223 152.385 21.9353C152.879 20.9333 153.563 20.0659 154.437 19.333C155.31 18.5853 156.34 18.0095 157.527 17.6057C158.73 17.2019 160.032 17 161.433 17C162.85 17 164.152 17.2019 165.339 17.6057C166.525 18.0095 167.555 18.5853 168.429 19.333C169.302 20.0659 169.978 20.9333 170.456 21.9353C170.95 22.9223 171.198 24.0141 171.198 25.2105C171.198 26.392 170.95 27.4838 170.456 28.4858C169.978 29.4878 169.302 30.3627 168.429 31.1104C167.555 31.8433 166.525 32.4116 165.339 32.8154C164.152 33.2192 162.85 33.4211 161.433 33.4211ZM161.433 29.1363C161.977 29.1363 162.479 29.0466 162.941 28.8671C163.419 28.6877 163.831 28.4334 164.177 28.1044C164.539 27.7604 164.82 27.3492 165.017 26.8706C165.215 26.377 165.314 25.8237 165.314 25.2105C165.314 24.5974 165.215 24.0515 165.017 23.5729C164.82 23.0794 164.539 22.6681 164.177 22.3391C163.831 21.9951 163.419 21.7334 162.941 21.5539C162.479 21.3745 161.977 21.2847 161.433 21.2847C160.889 21.2847 160.378 21.3745 159.9 21.5539C159.439 21.7334 159.027 21.9951 158.664 22.3391C158.318 22.6681 158.046 23.0794 157.848 23.5729C157.65 24.0515 157.552 24.5974 157.552 25.2105C157.552 25.8237 157.65 26.377 157.848 26.8706C158.046 27.3492 158.318 27.7604 158.664 28.1044C159.027 28.4334 159.439 28.6877 159.9 28.8671C160.378 29.0466 160.889 29.1363 161.433 29.1363Z" fill="#2B1D11"/>
<path d="M171.871 33.0621V17.3589H176.667L185.237 27.6109H181.068L189.44 17.3589H194.236L194.285 33.0621H188.97L188.921 24.6273H189.761L185.163 31.6488H180.944L176.148 24.6273H177.187V33.0621H171.871Z" fill="#2B1D11"/>
<path d="M200.612 23.1915H211.918V27.0052H200.612V23.1915ZM201.008 29.069H212V33.0621H195.272V17.3589H211.934V21.352H201.008V29.069Z" fill="#2B1D11"/>
<path fill-rule="evenodd" clip-rule="evenodd" d="M17.0461 13.6706C19.16 11.6881 22.1408 10.0288 25.9651 10.0288C32.2598 10.0288 36.061 13.9451 37.7484 16.8774C42.5104 17.1051 47.5532 20.7002 47.9627 26.7609C48.2104 30.4262 47.0566 33.171 45.2061 35.044C43.4329 36.8387 41.2018 37.6546 39.4773 37.9402L39.2903 37.9712H28.428V35.9135H39.1291L39.157 35.9089C40.595 35.6707 42.3983 34.9937 43.7949 33.5801C45.2031 32.1548 46.1693 30.0087 45.9594 26.9031C45.6211 21.8962 41.2655 18.8706 37.1654 18.9243L36.5485 18.9323L36.2627 18.3721C34.9723 15.8421 31.6735 12.0865 25.9651 12.0865C22.75 12.0865 20.2331 13.471 18.4019 15.1885C16.8949 16.6018 15.8412 18.2501 15.2311 19.5675L14.9864 20.0959L14.4181 20.1507C14.2511 20.1668 14.0741 20.1889 13.8932 20.2194C13.3559 20.3098 12.7465 20.4796 12.2505 20.8143C11.7096 21.1793 11.2667 21.6988 10.9473 22.1701L10.6039 22.6769L10.0059 22.6051C8.34206 22.4056 6.731 22.8231 5.47011 23.7856C3.98135 24.922 3.01212 26.7953 3.01212 29.2244C3.01212 31.8928 4.25109 33.5837 5.79803 34.5915C7.32546 35.5866 9.14426 35.9135 10.3583 35.9135L17.0848 35.9135L17.0865 35.9135L17.0881 35.9135L17.0904 35.9135L17.0918 35.9135L17.1784 35.9128L17.2291 35.9125C18.6862 35.9027 21.9561 35.8393 23.909 33.1743C25.5109 30.9883 25.5117 28.1833 25.4953 26.3854L25.4947 26.3185C25.4932 26.1548 25.4918 25.9994 25.4918 25.8547H27.4999C27.4999 25.9882 27.5012 26.1335 27.5027 26.2994L27.5033 26.3661L27.5039 26.4303C27.5202 28.1792 27.5524 31.6292 25.5148 34.4098C22.9324 37.9338 18.7165 37.9607 17.2896 37.9698C17.2735 37.9699 17.2577 37.97 17.2423 37.9701L17.1927 37.9705L17.1048 37.9711L17.0983 37.9711L17.0927 37.9712L17.0894 37.9712L10.3583 37.9712C8.86965 37.9712 6.64988 37.5848 4.72067 36.3279C2.66552 34.9891 1.00404 32.6792 1.00404 29.2244C1.00404 26.2008 2.23107 23.6922 4.27049 22.1354C5.8172 20.9548 7.71839 20.4092 9.65299 20.5109C10.0339 20.0278 10.5311 19.5108 11.1461 19.0958C11.9824 18.5315 12.9111 18.2994 13.5678 18.1889C13.6009 18.1833 13.6339 18.178 13.6666 18.1729C14.3912 16.7551 15.5105 15.1108 17.0461 13.6706Z" fill="#3A7CFC"/>
<path d="M39.2903 37.9712L39.4773 37.9402C41.2018 37.6546 43.4329 36.8387 45.2061 35.044C47.0566 33.171 48.2103 30.4262 47.9627 26.7609C47.5532 20.7002 42.5104 17.1051 37.7484 16.8774C36.061 13.9451 32.2598 10.0288 25.9651 10.0288C22.1408 10.0288 19.16 11.6881 17.0461 13.6706C15.5105 15.1108 14.3912 16.7551 13.6666 18.1729C13.6339 18.178 13.6009 18.1833 13.5678 18.1889C12.9111 18.2994 11.9824 18.5315 11.1461 19.0958C10.5311 19.5108 10.0339 20.0278 9.65299 20.5109C7.71838 20.4092 5.81719 20.9548 4.27048 22.1354C2.23106 23.6922 1.00404 26.2008 1.00404 29.2244C1.00404 32.6792 2.66551 34.9891 4.72066 36.3279C6.64987 37.5847 8.86965 37.9712 10.3583 37.9712L17.0894 37.9712L17.0927 37.9712L17.0983 37.9711L17.1048 37.9711L17.2896 37.9698C18.7165 37.9607 22.9324 37.9338 25.5148 34.4098C27.5524 31.6292 27.5202 28.1792 27.5039 26.4303L27.5026 26.2994C27.5012 26.1335 27.4999 25.9881 27.4999 25.8547H28.5039C28.5039 25.9825 28.5051 26.1229 28.5066 26.2899L28.5072 26.3563L28.5078 26.4204L28.5083 26.4738C28.5249 28.2215 28.5604 31.967 26.3177 35.0276C23.4353 38.9609 18.7809 38.9895 17.3348 38.9984L17.2959 38.9986L17.249 38.9989L17.1999 38.9993L17.112 38.9999L17.1021 39L17.095 39L17.0894 39H10.3583C8.73246 39 6.31215 38.5839 4.18198 37.1962C1.8732 35.6921 0 33.0729 0 29.2244C0 25.9039 1.35571 23.0774 3.67067 21.3103C5.2816 20.0807 7.22246 19.4693 9.20172 19.47C9.5794 19.0446 10.0423 18.6088 10.5939 18.2365C11.4312 17.6715 12.3252 17.3944 13.0147 17.2478C13.7836 15.8496 14.894 14.2943 16.3682 12.9117C18.6233 10.7967 21.836 9 25.9651 9C32.3924 9 36.4022 12.8149 38.3327 15.8885C43.3298 16.37 48.5278 20.2295 48.9643 26.6899C49.2309 30.6349 47.9835 33.679 45.9116 35.776C43.9501 37.7613 41.5051 38.6466 39.6375 38.9558L39.3709 39H28.428V37.9712H39.2903Z" fill="#2B1D11"/>
<path d="M39.0599 35.039H28.428V34.0616H38.9785C40.136 33.8507 41.4997 33.3002 42.5249 32.2626C43.5354 31.2399 44.3322 29.6322 44.1565 27.031C43.8775 22.9026 39.9764 20.3745 36.4919 20.8251L35.3577 20.9718L34.9496 19.8775C34.2308 17.9498 31.3894 13.9384 25.9651 13.9384C23.2974 13.9384 21.1983 15.0764 19.6221 16.5546C18.0249 18.0526 17.0194 19.8544 16.5995 20.9937L16.2517 21.9374L15.2675 21.9582C14.9919 21.964 14.5966 21.9778 14.1861 22.0468C13.7551 22.1194 13.4336 22.2334 13.2445 22.361C12.9892 22.5333 12.7399 22.8006 12.5276 23.0906C12.3161 23.3793 12.1802 23.6366 12.1369 23.7347L11.6381 24.8644L10.463 24.5685C8.97193 24.193 7.56425 24.4963 6.54979 25.2707C5.55563 26.0296 4.81941 27.3318 4.81941 29.2244C4.81941 31.1875 5.68032 32.3203 6.76768 33.0287C7.93386 33.7884 9.39196 34.0616 10.3583 34.0616H17.0829L17.0947 34.0615C18.6081 34.0495 21.0583 33.9803 22.4638 32.0623C23.6827 30.399 23.6985 28.1957 23.6865 26.3156L23.6865 26.3131C23.6855 26.1575 23.6846 26.0033 23.6846 25.8548L24.6383 25.8547C24.6383 26.0003 24.6393 26.1521 24.6403 26.3092C24.652 28.1339 24.6682 30.6818 23.2265 32.6492C21.501 35.0038 18.5473 35.0273 17.1021 35.0388L17.0871 35.039H10.3583C9.26122 35.039 7.61274 34.7374 6.25588 33.8535C4.92607 32.9871 3.86552 31.5598 3.86552 29.2244C3.86552 27.0487 4.72467 25.445 5.97992 24.4868C7.24218 23.5233 8.94732 23.1803 10.6906 23.6193L11.0958 23.7213L11.2678 23.3318C11.4171 22.9936 11.9594 22.0578 12.7199 21.5446C13.0709 21.3078 13.5443 21.1643 14.0315 21.0823C14.5117 21.0015 14.9627 20.987 15.2478 20.981L15.5872 20.9738L15.7071 20.6484C16.1746 19.3798 17.2601 17.4448 18.978 15.8336C20.6888 14.2291 23.0084 12.961 25.9651 12.961C31.9088 12.961 35.0308 17.357 35.8406 19.5286L35.9813 19.9059L36.3724 19.8553C40.2959 19.3479 44.7843 22.1727 45.108 26.9634C45.3017 29.8308 44.4155 31.7227 43.1952 32.9579C41.9706 34.1973 40.3687 34.8153 39.0599 35.039Z" fill="#F51808"/>
<path d="M25.9651 11.9322C22.7041 11.9322 20.1525 13.3374 18.3002 15.0746C16.5914 16.6772 15.462 18.5754 14.8933 19.9629C14.6096 19.9757 14.2496 20.003 13.8688 20.0671C13.3223 20.159 12.689 20.3336 12.1677 20.6854C11.4015 21.2024 10.8422 22.0037 10.5435 22.5338C8.66461 22.1669 6.80558 22.5737 5.38011 23.6618C3.84987 24.8299 2.86148 26.751 2.86148 29.2244C2.86148 31.9522 4.13252 33.6893 5.71719 34.7217C7.27482 35.7364 9.12373 36.0678 10.3583 36.0678H17.0871L17.091 36.0678L17.1797 36.0671C18.6009 36.0571 22.0023 36.0332 24.0294 33.2669C25.6873 31.0045 25.6613 28.1047 25.6452 26.3169C25.6438 26.1531 25.6424 25.9985 25.6424 25.8547L26.4958 25.8547C26.4958 25.9938 26.4972 26.1441 26.4987 26.3089L26.4993 26.3757C26.5154 28.1385 26.5443 31.2915 24.7119 33.7921C22.4297 36.9065 18.6536 36.9318 17.2357 36.9413L17.1856 36.9416L17.0976 36.9423L17.0943 36.9423L17.0904 36.9423L17.0871 36.9423H10.3583C9.00695 36.9423 6.98766 36.5857 5.25934 35.4597C3.4583 34.2864 2.00807 32.286 2.00807 29.2244C2.00807 26.4981 3.1062 24.3071 4.87029 22.9605C6.35213 21.8293 8.22388 21.3556 10.1227 21.5833C10.4847 21.0491 11.0135 20.4172 11.6983 19.9551C12.3644 19.5056 13.1335 19.3046 13.7305 19.2041C13.9377 19.1693 14.138 19.1444 14.324 19.1264C14.9816 17.7065 16.1082 15.945 17.724 14.4296C19.6966 12.5795 22.4454 11.0577 25.9651 11.0577C32.1651 11.0577 35.7513 15.1482 37.1525 17.8955C41.6682 17.8364 46.5784 21.1687 46.961 26.832C47.1898 30.2175 46.1298 32.6629 44.5005 34.3121C42.9156 35.9162 40.8984 36.6627 39.3171 36.9245L39.2097 36.9423H28.428V36.0678H39.1412L39.181 36.0612C40.6403 35.8195 42.4758 35.1321 43.9007 33.6899C45.3421 32.2309 46.3223 30.0399 46.1096 26.8924C45.7494 21.5614 40.9224 18.4517 36.63 18.7946C35.5367 16.2822 32.1436 11.9322 25.9651 11.9322Z" fill="#7EB0FB"/>
<path fill-rule="evenodd" clip-rule="evenodd" d="M18.3002 15.0746C20.1525 13.3374 22.7041 11.9322 25.9651 11.9322C32.1436 11.9322 35.5367 16.2822 36.63 18.7946C40.9224 18.4517 45.7494 21.5614 46.1096 26.8924C46.3223 30.0398 45.3421 32.2309 43.9007 33.6899C42.4758 35.1321 40.6403 35.8195 39.181 36.0612L39.1412 36.0678H28.428V35.039H39.0599C40.3687 34.8153 41.9706 34.1973 43.1952 32.9579C44.4155 31.7227 45.3017 29.8308 45.108 26.9634C44.7843 22.1727 40.2959 19.3479 36.3724 19.8553L35.9813 19.9059L35.8406 19.5286C35.0308 17.357 31.9088 12.961 25.9651 12.961C23.0084 12.961 20.6888 14.2291 18.978 15.8336C17.2601 17.4448 16.1746 19.3798 15.7071 20.6484L15.5872 20.9738L15.2478 20.981C14.9627 20.987 14.5117 21.0015 14.0315 21.0823C13.5443 21.1643 13.0709 21.3078 12.7199 21.5446C11.9594 22.0578 11.4171 22.9936 11.2678 23.3318L11.0958 23.7213L10.6906 23.6193C8.94731 23.1803 7.24217 23.5233 5.97992 24.4868C4.72467 25.445 3.86552 27.0487 3.86552 29.2244C3.86552 31.5598 4.92606 32.9871 6.25588 33.8535C7.61274 34.7374 9.26121 35.039 10.3583 35.039H17.0871L17.1021 35.0388C18.5472 35.0273 21.501 35.0038 23.2265 32.6492C24.6682 30.6818 24.6519 28.1339 24.6403 26.3092C24.6393 26.1521 24.6383 26.0003 24.6383 25.8547H25.6424C25.6424 25.9985 25.6438 26.153 25.6452 26.3169C25.6613 28.1047 25.6873 31.0045 24.0294 33.2669C22.0023 36.0332 18.6009 36.0571 17.1797 36.0671C17.1492 36.0673 17.1196 36.0675 17.091 36.0678L17.0871 36.0678H10.3583C9.12373 36.0678 7.27482 35.7364 5.7172 34.7217C4.13253 33.6893 2.86148 31.9522 2.86148 29.2244C2.86148 26.751 3.84987 24.8299 5.38011 23.6618C6.80558 22.5737 8.66461 22.1669 10.5435 22.5338C10.8422 22.0036 11.4015 21.2024 12.1677 20.6854C12.689 20.3336 13.3223 20.159 13.8688 20.0671C14.2496 20.003 14.6096 19.9757 14.8933 19.9629C15.462 18.5754 16.5914 16.6772 18.3002 15.0746Z" fill="#E4FBF5"/>
</svg>
